<svg width="56" height="56" viewBox="0 0 56 56" fill="none" xmlns="http://www.w3.org/2000/svg">
<rect x="0.5" y="0.5" width="55" height="55" rx="19.5" stroke="#BAC8D3"/>
<mask id="mask0" mask-type="alpha" maskUnits="userSpaceOnUse" x="0" y="0" width="56" height="56">
<rect width="56" height="56" rx="20" fill="#C4C4C4"/>
</mask>
<g mask="url(#mask0)">
<path fill-rule="evenodd" clip-rule="evenodd" d="M53.375 54.25C53.375 54.7332 53.7668 55.125 54.25 55.125V55.125C54.7332 55.125 55.125 54.7332 55.125 54.25V54.25C55.125 53.7668 54.7332 53.375 54.25 53.375V53.375C53.7668 53.375 53.375 53.7668 53.375 54.25V54.25ZM51.625 55.125C52.1082 55.125 52.5 54.7332 52.5 54.25V54.25C52.5 53.7668 52.1082 53.375 51.625 53.375V53.375C51.1418 53.375 50.75 53.7668 50.75 54.25V54.25C50.75 54.7332 51.1418 55.125 51.625 55.125V55.125ZM49 55.125C49.4832 55.125 49.875 54.7332 49.875 54.25V54.25C49.875 53.7668 49.4832 53.375 49 53.375V53.375C48.5168 53.375 48.125 53.7668 48.125 54.25V54.25C48.125 54.7332 48.5168 55.125 49 55.125V55.125ZM46.375 55.125C46.8582 55.125 47.25 54.7332 47.25 54.25V54.25C47.25 53.7668 46.8582 53.375 46.375 53.375V53.375C45.8918 53.375 45.5 53.7668 45.5 54.25V54.25C45.5 54.7332 45.8918 55.125 46.375 55.125V55.125ZM43.75 55.125C44.2332 55.125 44.625 54.7332 44.625 54.25V54.25C44.625 53.7668 44.2332 53.375 43.75 53.375V53.375C43.2668 53.375 42.875 53.7668 42.875 54.25V54.25C42.875 54.7332 43.2668 55.125 43.75 55.125V55.125ZM41.125 55.125C41.6082 55.125 42 54.7332 42 54.25V54.25C42 53.7668 41.6082 53.375 41.125 53.375V53.375C40.6418 53.375 40.25 53.7668 40.25 54.25V54.25C40.25 54.7332 40.6418 55.125 41.125 55.125V55.125ZM38.5 55.125C38.9832 55.125 39.375 54.7332 39.375 54.25V54.25C39.375 53.7668 38.9832 53.375 38.5 53.375V53.375C38.0168 53.375 37.625 53.7668 37.625 54.25V54.25C37.625 54.7332 38.0168 55.125 38.5 55.125V55.125ZM35.875 55.125C36.3582 55.125 36.75 54.7332 36.75 54.25V54.25C36.75 53.7668 36.3582 53.375 35.875 53.375V53.375C35.3918 53.375 35 53.7668 35 54.25V54.25C35 54.7332 35.3918 55.125 35.875 55.125V55.125ZM33.25 55.125C33.7332 55.125 34.125 54.7332 34.125 54.25V54.25C34.125 53.7668 33.7332 53.375 33.25 53.375V53.375C32.7668 53.375 32.375 53.7668 32.375 54.25V54.25C32.375 54.7332 32.7668 55.125 33.25 55.125V55.125ZM30.625 55.125C31.1082 55.125 31.5 54.7332 31.5 54.25V54.25C31.5 53.7668 31.1082 53.375 30.625 53.375V53.375C30.1418 53.375 29.75 53.7668 29.75 54.25V54.25C29.75 54.7332 30.1418 55.125 30.625 55.125V55.125ZM28 55.125C28.4832 55.125 28.875 54.7332 28.875 54.25V54.25C28.875 53.7668 28.4832 53.375 28 53.375V53.375C27.5168 53.375 27.125 53.7668 27.125 54.25V54.25C27.125 54.7332 27.5168 55.125 28 55.125V55.125ZM25.375 55.125C25.8582 55.125 26.25 54.7332 26.25 54.25V54.25C26.25 53.7668 25.8582 53.375 25.375 53.375V53.375C24.8918 53.375 24.5 53.7668 24.5 54.25V54.25C24.5 54.7332 24.8918 55.125 25.375 55.125V55.125ZM22.75 55.125C23.2332 55.125 23.625 54.7332 23.625 54.25V54.25C23.625 53.7668 23.2332 53.375 22.75 53.375V53.375C22.2668 53.375 21.875 53.7668 21.875 54.25V54.25C21.875 54.7332 22.2668 55.125 22.75 55.125V55.125ZM20.125 55.125C20.6082 55.125 21 54.7332 21 54.25V54.25C21 53.7668 20.6082 53.375 20.125 53.375V53.375C19.6418 53.375 19.25 53.7668 19.25 54.25V54.25C19.25 54.7332 19.6418 55.125 20.125 55.125V55.125ZM17.5 55.125C17.9832 55.125 18.375 54.7332 18.375 54.25V54.25C18.375 53.7668 17.9832 53.375 17.5 53.375V53.375C17.0168 53.375 16.625 53.7668 16.625 54.25V54.25C16.625 54.7332 17.0168 55.125 17.5 55.125V55.125ZM14.875 55.125C15.3582 55.125 15.75 54.7332 15.75 54.25V54.25C15.75 53.7668 15.3582 53.375 14.875 53.375V53.375C14.3918 53.375 14 53.7668 14 54.25V54.25C14 54.7332 14.3918 55.125 14.875 55.125V55.125ZM12.25 55.125C12.7332 55.125 13.125 54.7332 13.125 54.25V54.25C13.125 53.7668 12.7332 53.375 12.25 53.375V53.375C11.7668 53.375 11.375 53.7668 11.375 54.25V54.25C11.375 54.7332 11.7668 55.125 12.25 55.125V55.125ZM9.625 55.125C10.1082 55.125 10.5 54.7332 10.5 54.25V54.25C10.5 53.7668 10.1082 53.375 9.625 53.375V53.375C9.14175 53.375 8.75 53.7668 8.75 54.25V54.25C8.75 54.7332 9.14175 55.125 9.625 55.125V55.125ZM7 55.125C7.48325 55.125 7.875 54.7332 7.875 54.25V54.25C7.875 53.7668 7.48325 53.375 7 53.375V53.375C6.51675 53.375 6.125 53.7668 6.125 54.25V54.25C6.125 54.7332 6.51675 55.125 7 55.125V55.125ZM4.375 55.125C4.85825 55.125 5.25 54.7332 5.25 54.25V54.25C5.25 53.7668 4.85825 53.375 4.375 53.375V53.375C3.89175 53.375 3.5 53.7668 3.5 54.25V54.25C3.5 54.7332 3.89175 55.125 4.375 55.125V55.125ZM1.75 55.125C2.23325 55.125 2.625 54.7332 2.625 54.25V54.25C2.625 53.7668 2.23325 53.375 1.75 53.375V53.375C1.26675 53.375 0.875 53.7668 0.875 54.25V54.25C0.875 54.7332 1.26675 55.125 1.75 55.125V55.125ZM0 56V56C0 56 3.4158e-06 56 7.62939e-06 56H55.125C55.6082 56 56 55.6082 56 55.125V55.125V53.375V52.5V50.75V49.875V48.125V47.25V45.5V44.625V42.875V42V40.25V39.375V37.625V36.75V35V34.125V32.375V31.5V29.75V28.875V27.125V26.25V24.5V23.625V21.875V21V19.25V18.375V16.625V15.75V14V13.125V11.375V10.5V8.75V7.875V6.125V5.25V3.5V2.625V0.875V0.875C56 0.39175 55.6082 -1.7079e-06 55.125 -3.8147e-06V-3.8147e-06H53.375H52.5H50.75H49.875H48.125H47.25H45.5H44.625H42.875H42H40.25H39.375H37.625H36.75H35H34.125H32.375H31.5H29.75H28.875H27.125H26.25H24.5H23.625H21.875H21H19.25H18.375H16.625H15.75H14H13.125H11.375H10.5H8.75H7.875H6.125H5.25H3.5H2.625L0.875 -7.62939e-06V-7.62939e-06C0.39175 -3.41579e-06 0 0.39175 0 0.875V0.875L0 2.625L0 3.5L0 5.25L0 6.125L0 7.875L0 8.75L0 10.5L0 11.375L0 13.125L0 14L0 15.75L0 16.625L0 18.375L0 19.25L0 21L0 21.875L0 23.625L0 24.5L0 26.25L0 27.125L0 28.875L0 29.75L0 31.5L0 32.375L0 34.125L0 35L0 36.75L0 37.625L0 39.375L0 40.25L0 42L0 42.875L0 44.625L0 45.5L0 47.25L0 48.125L0 49.875L0 50.75L0 52.5L0 53.375L0 55.125L0 56ZM0.875 51.625C0.875 52.1082 1.26675 52.5 1.75 52.5V52.5C2.23325 52.5 2.625 52.1082 2.625 51.625V51.625C2.625 51.1418 2.23325 50.75 1.75 50.75V50.75C1.26675 50.75 0.875 51.1418 0.875 51.625V51.625ZM0.875 49C0.875 49.4832 1.26675 49.875 1.75 49.875V49.875C2.23325 49.875 2.625 49.4832 2.625 49V49C2.625 48.5168 2.23325 48.125 1.75 48.125V48.125C1.26675 48.125 0.875 48.5168 0.875 49V49ZM0.875 46.375C0.875 46.8582 1.26675 47.25 1.75 47.25V47.25C2.23325 47.25 2.625 46.8582 2.625 46.375V46.375C2.625 45.8918 2.23325 45.5 1.75 45.5V45.5C1.26675 45.5 0.875 45.8918 0.875 46.375V46.375ZM0.875 43.75C0.875 44.2332 1.26675 44.625 1.75 44.625V44.625C2.23325 44.625 2.625 44.2332 2.625 43.75V43.75C2.625 43.2668 2.23325 42.875 1.75 42.875V42.875C1.26675 42.875 0.875 43.2668 0.875 43.75V43.75ZM0.875 41.125C0.875 41.6082 1.26675 42 1.75 42V42C2.23325 42 2.625 41.6082 2.625 41.125V41.125C2.625 40.6418 2.23325 40.25 1.75 40.25V40.25C1.26675 40.25 0.875 40.6418 0.875 41.125V41.125ZM0.875 38.5C0.875 38.9832 1.26675 39.375 1.75 39.375V39.375C2.23325 39.375 2.625 38.9832 2.625 38.5V38.5C2.625 38.0168 2.23325 37.625 1.75 37.625V37.625C1.26675 37.625 0.875 38.0168 0.875 38.5V38.5ZM0.875 35.875C0.875 36.3582 1.26675 36.75 1.75 36.75V36.75C2.23325 36.75 2.625 36.3582 2.625 35.875V35.875C2.625 35.3918 2.23325 35 1.75 35V35C1.26675 35 0.875 35.3918 0.875 35.875V35.875ZM0.875 33.25C0.875 33.7332 1.26675 34.125 1.75 34.125V34.125C2.23325 34.125 2.625 33.7332 2.625 33.25V33.25C2.625 32.7668 2.23325 32.375 1.75 32.375V32.375C1.26675 32.375 0.875 32.7668 0.875 33.25V33.25ZM0.875 30.625C0.875 31.1082 1.26675 31.5 1.75 31.5V31.5C2.23325 31.5 2.625 31.1082 2.625 30.625V30.625C2.625 30.1418 2.23325 29.75 1.75 29.75V29.75C1.26675 29.75 0.875 30.1418 0.875 30.625V30.625ZM0.875 28C0.875 28.4832 1.26675 28.875 1.75 28.875V28.875C2.23325 28.875 2.625 28.4832 2.625 28V28C2.625 27.5168 2.23325 27.125 1.75 27.125V27.125C1.26675 27.125 0.875 27.5168 0.875 28V28ZM0.875 25.375C0.875 25.8582 1.26675 26.25 1.75 26.25V26.25C2.23325 26.25 2.625 25.8582 2.625 25.375V25.375C2.625 24.8918 2.23325 24.5 1.75 24.5V24.5C1.26675 24.5 0.875 24.8918 0.875 25.375V25.375ZM0.875 22.75C0.875 23.2332 1.26675 23.625 1.75 23.625V23.625C2.23325 23.625 2.625 23.2332 2.625 22.75V22.75C2.625 22.2668 2.23325 21.875 1.75 21.875V21.875C1.26675 21.875 0.875 22.2668 0.875 22.75V22.75ZM0.875 20.125C0.875 20.6082 1.26675 21 1.75 21V21C2.23325 21 2.625 20.6082 2.625 20.125V20.125C2.625 19.6418 2.23325 19.25 1.75 19.25V19.25C1.26675 19.25 0.875 19.6418 0.875 20.125V20.125ZM0.875 17.5C0.875 17.9832 1.26675 18.375 1.75 18.375V18.375C2.23325 18.375 2.625 17.9832 2.625 17.5V17.5C2.625 17.0168 2.23325 16.625 1.75 16.625V16.625C1.26675 16.625 0.875 17.0168 0.875 17.5V17.5ZM0.875 14.875C0.875 15.3582 1.26675 15.75 1.75 15.75V15.75C2.23325 15.75 2.625 15.3582 2.625 14.875V14.875C2.625 14.3918 2.23325 14 1.75 14V14C1.26675 14 0.875 14.3918 0.875 14.875V14.875ZM0.875 12.25C0.875 12.7332 1.26675 13.125 1.75 13.125V13.125C2.23325 13.125 2.625 12.7332 2.625 12.25V12.25C2.625 11.7668 2.23325 11.375 1.75 11.375V11.375C1.26675 11.375 0.875 11.7668 0.875 12.25V12.25ZM0.875 9.625C0.875 10.1082 1.26675 10.5 1.75 10.5V10.5C2.23325 10.5 2.625 10.1082 2.625 9.625V9.625C2.625 9.14175 2.23325 8.75 1.75 8.75V8.75C1.26675 8.75 0.875 9.14175 0.875 9.625V9.625ZM0.875 7C0.875 7.48325 1.26675 7.875 1.75 7.875V7.875C2.23325 7.875 2.625 7.48325 2.625 7V7C2.625 6.51675 2.23325 6.125 1.75 6.125V6.125C1.26675 6.125 0.875 6.51675 0.875 7V7ZM0.875 4.375C0.875 4.85825 1.26675 5.25 1.75 5.25V5.25C2.23325 5.25 2.625 4.85825 2.625 4.375V4.375C2.625 3.89175 2.23325 3.5 1.75 3.5V3.5C1.26675 3.5 0.875 3.89175 0.875 4.375V4.375ZM0.875 1.75C0.875 2.23325 1.26675 2.625 1.75 2.625V2.625C2.23325 2.625 2.625 2.23325 2.625 1.75V1.75C2.625 1.26675 2.23325 0.875 1.75 0.875V0.875C1.26675 0.875 0.875 1.26675 0.875 1.75V1.75ZM4.375 0.875C3.89175 0.875 3.5 1.26675 3.5 1.75V1.75C3.5 2.23325 3.89175 2.625 4.375 2.625V2.625C4.85825 2.625 5.25 2.23325 5.25 1.75V1.75C5.25 1.26675 4.85825 0.875 4.375 0.875V0.875ZM7 0.875C6.51675 0.875 6.125 1.26675 6.125 1.75V1.75C6.125 2.23325 6.51675 2.625 7 2.625V2.625C7.48325 2.625 7.875 2.23325 7.875 1.75V1.75C7.875 1.26675 7.48325 0.875 7 0.875V0.875ZM9.625 0.875C9.14175 0.875 8.75 1.26675 8.75 1.75V1.75C8.75 2.23325 9.14175 2.625 9.625 2.625V2.625C10.1082 2.625 10.5 2.23325 10.5 1.75V1.75C10.5 1.26675 10.1082 0.875 9.625 0.875V0.875ZM12.25 0.875C11.7668 0.875 11.375 1.26675 11.375 1.75V1.75C11.375 2.23325 11.7668 2.625 12.25 2.625V2.625C12.7332 2.625 13.125 2.23325 13.125 1.75V1.75C13.125 1.26675 12.7332 0.875 12.25 0.875V0.875ZM14.875 0.875C14.3918 0.875 14 1.26675 14 1.75V1.75C14 2.23325 14.3918 2.625 14.875 2.625V2.625C15.3582 2.625 15.75 2.23325 15.75 1.75V1.75C15.75 1.26675 15.3582 0.875 14.875 0.875V0.875ZM17.5 0.875C17.0168 0.875 16.625 1.26675 16.625 1.75V1.75C16.625 2.23325 17.0168 2.625 17.5 2.625V2.625C17.9832 2.625 18.375 2.23325 18.375 1.75V1.75C18.375 1.26675 17.9832 0.875 17.5 0.875V0.875ZM20.125 0.875C19.6418 0.875 19.25 1.26675 19.25 1.75V1.75C19.25 2.23325 19.6418 2.625 20.125 2.625V2.625C20.6082 2.625 21 2.23325 21 1.75V1.75C21 1.26675 20.6082 0.875 20.125 0.875V0.875ZM22.75 0.875C22.2668 0.875 21.875 1.26675 21.875 1.75V1.75C21.875 2.23325 22.2668 2.625 22.75 2.625V2.625C23.2332 2.625 23.625 2.23325 23.625 1.75V1.75C23.625 1.26675 23.2332 0.875 22.75 0.875V0.875ZM25.375 0.875C24.8918 0.875 24.5 1.26675 24.5 1.75V1.75C24.5 2.23325 24.8918 2.625 25.375 2.625V2.625C25.8582 2.625 26.25 2.23325 26.25 1.75V1.75C26.25 1.26675 25.8582 0.875 25.375 0.875V0.875ZM28 0.875C27.5168 0.875 27.125 1.26675 27.125 1.75V1.75C27.125 2.23325 27.5168 2.625 28 2.625V2.625C28.4832 2.625 28.875 2.23325 28.875 1.75V1.75C28.875 1.26675 28.4832 0.875 28 0.875V0.875ZM30.625 0.875C30.1418 0.875 29.75 1.26675 29.75 1.75V1.75C29.75 2.23325 30.1418 2.625 30.625 2.625V2.625C31.1082 2.625 31.5 2.23325 31.5 1.75V1.75C31.5 1.26675 31.1082 0.875 30.625 0.875V0.875ZM33.25 0.875C32.7668 0.875 32.375 1.26675 32.375 1.75V1.75C32.375 2.23325 32.7668 2.625 33.25 2.625V2.625C33.7332 2.625 34.125 2.23325 34.125 1.75V1.75C34.125 1.26675 33.7332 0.875 33.25 0.875V0.875ZM35.875 0.875C35.3918 0.875 35 1.26675 35 1.75V1.75C35 2.23325 35.3918 2.625 35.875 2.625V2.625C36.3582 2.625 36.75 2.23325 36.75 1.75V1.75C36.75 1.26675 36.3582 0.875 35.875 0.875V0.875ZM38.5 0.875C38.0168 0.875 37.625 1.26675 37.625 1.75V1.75C37.625 2.23325 38.0168 2.625 38.5 2.625V2.625C38.9832 2.625 39.375 2.23325 39.375 1.75V1.75C39.375 1.26675 38.9832 0.875 38.5 0.875V0.875ZM41.125 0.875C40.6418 0.875 40.25 1.26675 40.25 1.75V1.75C40.25 2.23325 40.6418 2.625 41.125 2.625V2.625C41.6082 2.625 42 2.23325 42 1.75V1.75C42 1.26675 41.6082 0.875 41.125 0.875V0.875ZM43.75 0.875C43.2668 0.875 42.875 1.26675 42.875 1.75V1.75C42.875 2.23325 43.2668 2.625 43.75 2.625V2.625C44.2332 2.625 44.625 2.23325 44.625 1.75V1.75C44.625 1.26675 44.2332 0.875 43.75 0.875V0.875ZM46.375 0.875C45.8918 0.875 45.5 1.26675 45.5 1.75V1.75C45.5 2.23325 45.8918 2.625 46.375 2.625V2.625C46.8582 2.625 47.25 2.23325 47.25 1.75V1.75C47.25 1.26675 46.8582 0.875 46.375 0.875V0.875ZM49 0.875C48.5168 0.875 48.125 1.26675 48.125 1.75V1.75C48.125 2.23325 48.5168 2.625 49 2.625V2.625C49.4832 2.625 49.875 2.23325 49.875 1.75V1.75C49.875 1.26675 49.4832 0.875 49 0.875V0.875ZM51.625 0.875C51.1418 0.875 50.75 1.26675 50.75 1.75V1.75C50.75 2.23325 51.1418 2.625 51.625 2.625V2.625C52.1082 2.625 52.5 2.23325 52.5 1.75V1.75C52.5 1.26675 52.1082 0.875 51.625 0.875V0.875ZM54.25 0.875C53.7668 0.875 53.375 1.26675 53.375 1.75V1.75C53.375 2.23325 53.7668 2.625 54.25 2.625V2.625C54.7332 2.625 55.125 2.23325 55.125 1.75V1.75C55.125 1.26675 54.7332 0.875 54.25 0.875V0.875ZM55.125 4.375C55.125 3.89175 54.7332 3.5 54.25 3.5V3.5C53.7668 3.5 53.375 3.89175 53.375 4.375V4.375C53.375 4.85825 53.7668 5.25 54.25 5.25V5.25C54.7332 5.25 55.125 4.85825 55.125 4.375V4.375ZM55.125 7C55.125 6.51675 54.7332 6.125 54.25 6.125V6.125C53.7668 6.125 53.375 6.51675 53.375 7V7C53.375 7.48325 53.7668 7.875 54.25 7.875V7.875C54.7332 7.875 55.125 7.48325 55.125 7V7ZM55.125 9.625C55.125 9.14175 54.7332 8.75 54.25 8.75V8.75C53.7668 8.75 53.375 9.14175 53.375 9.625V9.625C53.375 10.1082 53.7668 10.5 54.25 10.5V10.5C54.7332 10.5 55.125 10.1082 55.125 9.625V9.625ZM55.125 12.25C55.125 11.7668 54.7332 11.375 54.25 11.375V11.375C53.7668 11.375 53.375 11.7668 53.375 12.25V12.25C53.375 12.7332 53.7668 13.125 54.25 13.125V13.125C54.7332 13.125 55.125 12.7332 55.125 12.25V12.25ZM55.125 14.875C55.125 14.3918 54.7332 14 54.25 14V14C53.7668 14 53.375 14.3918 53.375 14.875V14.875C53.375 15.3582 53.7668 15.75 54.25 15.75V15.75C54.7332 15.75 55.125 15.3582 55.125 14.875V14.875ZM55.125 17.5C55.125 17.0168 54.7332 16.625 54.25 16.625V16.625C53.7668 16.625 53.375 17.0168 53.375 17.5V17.5C53.375 17.9832 53.7668 18.375 54.25 18.375V18.375C54.7332 18.375 55.125 17.9832 55.125 17.5V17.5ZM55.125 20.125C55.125 19.6418 54.7332 19.25 54.25 19.25V19.25C53.7668 19.25 53.375 19.6418 53.375 20.125V20.125C53.375 20.6082 53.7668 21 54.25 21V21C54.7332 21 55.125 20.6082 55.125 20.125V20.125ZM55.125 22.75C55.125 22.2668 54.7332 21.875 54.25 21.875V21.875C53.7668 21.875 53.375 22.2668 53.375 22.75V22.75C53.375 23.2332 53.7668 23.625 54.25 23.625V23.625C54.7332 23.625 55.125 23.2332 55.125 22.75V22.75ZM55.125 25.375C55.125 24.8918 54.7332 24.5 54.25 24.5V24.5C53.7668 24.5 53.375 24.8918 53.375 25.375V25.375C53.375 25.8582 53.7668 26.25 54.25 26.25V26.25C54.7332 26.25 55.125 25.8582 55.125 25.375V25.375ZM55.125 28C55.125 27.5168 54.7332 27.125 54.25 27.125V27.125C53.7668 27.125 53.375 27.5168 53.375 28V28C53.375 28.4832 53.7668 28.875 54.25 28.875V28.875C54.7332 28.875 55.125 28.4832 55.125 28V28ZM55.125 30.625C55.125 30.1418 54.7332 29.75 54.25 29.75V29.75C53.7668 29.75 53.375 30.1418 53.375 30.625V30.625C53.375 31.1082 53.7668 31.5 54.25 31.5V31.5C54.7332 31.5 55.125 31.1082 55.125 30.625V30.625ZM55.125 33.25C55.125 32.7668 54.7332 32.375 54.25 32.375V32.375C53.7668 32.375 53.375 32.7668 53.375 33.25V33.25C53.375 33.7332 53.7668 34.125 54.25 34.125V34.125C54.7332 34.125 55.125 33.7332 55.125 33.25V33.25ZM55.125 35.875C55.125 35.3918 54.7332 35 54.25 35V35C53.7668 35 53.375 35.3918 53.375 35.875V35.875C53.375 36.3582 53.7668 36.75 54.25 36.75V36.75C54.7332 36.75 55.125 36.3582 55.125 35.875V35.875ZM55.125 38.5C55.125 38.0168 54.7332 37.625 54.25 37.625V37.625C53.7668 37.625 53.375 38.0168 53.375 38.5V38.5C53.375 38.9832 53.7668 39.375 54.25 39.375V39.375C54.7332 39.375 55.125 38.9832 55.125 38.5V38.5ZM55.125 41.125C55.125 40.6418 54.7332 40.25 54.25 40.25V40.25C53.7668 40.25 53.375 40.6418 53.375 41.125V41.125C53.375 41.6082 53.7668 42 54.25 42V42C54.7332 42 55.125 41.6082 55.125 41.125V41.125ZM55.125 43.75C55.125 43.2668 54.7332 42.875 54.25 42.875V42.875C53.7668 42.875 53.375 43.2668 53.375 43.75V43.75C53.375 44.2332 53.7668 44.625 54.25 44.625V44.625C54.7332 44.625 55.125 44.2332 55.125 43.75V43.75ZM55.125 46.375C55.125 45.8918 54.7332 45.5 54.25 45.5V45.5C53.7668 45.5 53.375 45.8918 53.375 46.375V46.375C53.375 46.8582 53.7668 47.25 54.25 47.25V47.25C54.7332 47.25 55.125 46.8582 55.125 46.375V46.375ZM55.125 49C55.125 48.5168 54.7332 48.125 54.25 48.125V48.125C53.7668 48.125 53.375 48.5168 53.375 49V49C53.375 49.4832 53.7668 49.875 54.25 49.875V49.875C54.7332 49.875 55.125 49.4832 55.125 49V49ZM55.125 51.625C55.125 51.1418 54.7332 50.75 54.25 50.75V50.75C53.7668 50.75 53.375 51.1418 53.375 51.625V51.625C53.375 52.1082 53.7668 52.5 54.25 52.5V52.5C54.7332 52.5 55.125 52.1082 55.125 51.625V51.625ZM51.625 52.5C52.1082 52.5 52.5 52.1082 52.5 51.625V51.625C52.5 51.1418 52.1082 50.75 51.625 50.75V50.75C51.1418 50.75 50.75 51.1418 50.75 51.625V51.625C50.75 52.1082 51.1418 52.5 51.625 52.5V52.5ZM49 52.5C49.4832 52.5 49.875 52.1082 49.875 51.625V51.625C49.875 51.1418 49.4832 50.75 49 50.75V50.75C48.5168 50.75 48.125 51.1418 48.125 51.625V51.625C48.125 52.1082 48.5168 52.5 49 52.5V52.5ZM46.375 52.5C46.8582 52.5 47.25 52.1082 47.25 51.625V51.625C47.25 51.1418 46.8582 50.75 46.375 50.75V50.75C45.8918 50.75 45.5 51.1418 45.5 51.625V51.625C45.5 52.1082 45.8918 52.5 46.375 52.5V52.5ZM43.75 52.5C44.2332 52.5 44.625 52.1082 44.625 51.625V51.625C44.625 51.1418 44.2332 50.75 43.75 50.75V50.75C43.2668 50.75 42.875 51.1418 42.875 51.625V51.625C42.875 52.1082 43.2668 52.5 43.75 52.5V52.5ZM41.125 52.5C41.6082 52.5 42 52.1082 42 51.625V51.625C42 51.1418 41.6082 50.75 41.125 50.75V50.75C40.6418 50.75 40.25 51.1418 40.25 51.625V51.625C40.25 52.1082 40.6418 52.5 41.125 52.5V52.5ZM38.5 52.5C38.9832 52.5 39.375 52.1082 39.375 51.625V51.625C39.375 51.1418 38.9832 50.75 38.5 50.75V50.75C38.0168 50.75 37.625 51.1418 37.625 51.625V51.625C37.625 52.1082 38.0168 52.5 38.5 52.5V52.5ZM35.875 52.5C36.3582 52.5 36.75 52.1082 36.75 51.625V51.625C36.75 51.1418 36.3582 50.75 35.875 50.75V50.75C35.3918 50.75 35 51.1418 35 51.625V51.625C35 52.1082 35.3918 52.5 35.875 52.5V52.5ZM33.25 52.5C33.7332 52.5 34.125 52.1082 34.125 51.625V51.625C34.125 51.1418 33.7332 50.75 33.25 50.75V50.75C32.7668 50.75 32.375 51.1418 32.375 51.625V51.625C32.375 52.1082 32.7668 52.5 33.25 52.5V52.5ZM30.625 52.5C31.1082 52.5 31.5 52.1082 31.5 51.625V51.625C31.5 51.1418 31.1082 50.75 30.625 50.75V50.75C30.1418 50.75 29.75 51.1418 29.75 51.625V51.625C29.75 52.1082 30.1418 52.5 30.625 52.5V52.5ZM28 52.5C28.4832 52.5 28.875 52.1082 28.875 51.625V51.625C28.875 51.1418 28.4832 50.75 28 50.75V50.75C27.5168 50.75 27.125 51.1418 27.125 51.625V51.625C27.125 52.1082 27.5168 52.5 28 52.5V52.5ZM25.375 52.5C25.8582 52.5 26.25 52.1082 26.25 51.625V51.625C26.25 51.1418 25.8582 50.75 25.375 50.75V50.75C24.8918 50.75 24.5 51.1418 24.5 51.625V51.625C24.5 52.1082 24.8918 52.5 25.375 52.5V52.5ZM22.75 52.5C23.2332 52.5 23.625 52.1082 23.625 51.625V51.625C23.625 51.1418 23.2332 50.75 22.75 50.75V50.75C22.2668 50.75 21.875 51.1418 21.875 51.625V51.625C21.875 52.1082 22.2668 52.5 22.75 52.5V52.5ZM20.125 52.5C20.6082 52.5 21 52.1082 21 51.625V51.625C21 51.1418 20.6082 50.75 20.125 50.75V50.75C19.6418 50.75 19.25 51.1418 19.25 51.625V51.625C19.25 52.1082 19.6418 52.5 20.125 52.5V52.5ZM17.5 52.5C17.9832 52.5 18.375 52.1082 18.375 51.625V51.625C18.375 51.1418 17.9832 50.75 17.5 50.75V50.75C17.0168 50.75 16.625 51.1418 16.625 51.625V51.625C16.625 52.1082 17.0168 52.5 17.5 52.5V52.5ZM14.875 52.5C15.3582 52.5 15.75 52.1082 15.75 51.625V51.625C15.75 51.1418 15.3582 50.75 14.875 50.75V50.75C14.3918 50.75 14 51.1418 14 51.625V51.625C14 52.1082 14.3918 52.5 14.875 52.5V52.5ZM12.25 52.5C12.7332 52.5 13.125 52.1082 13.125 51.625V51.625C13.125 51.1418 12.7332 50.75 12.25 50.75V50.75C11.7668 50.75 11.375 51.1418 11.375 51.625V51.625C11.375 52.1082 11.7668 52.5 12.25 52.5V52.5ZM9.625 52.5C10.1082 52.5 10.5 52.1082 10.5 51.625V51.625C10.5 51.1418 10.1082 50.75 9.625 50.75V50.75C9.14175 50.75 8.75 51.1418 8.75 51.625V51.625C8.75 52.1082 9.14175 52.5 9.625 52.5V52.5ZM7 52.5C7.48325 52.5 7.875 52.1082 7.875 51.625V51.625C7.875 51.1418 7.48325 50.75 7 50.75V50.75C6.51675 50.75 6.125 51.1418 6.125 51.625V51.625C6.125 52.1082 6.51675 52.5 7 52.5V52.5ZM4.375 52.5C4.85825 52.5 5.25 52.1082 5.25 51.625V51.625C5.25 51.1418 4.85825 50.75 4.375 50.75V50.75C3.89175 50.75 3.5 51.1418 3.5 51.625V51.625C3.5 52.1082 3.89175 52.5 4.375 52.5V52.5ZM3.5 49C3.5 49.4832 3.89175 49.875 4.375 49.875V49.875C4.85825 49.875 5.25 49.4832 5.25 49V49C5.25 48.5168 4.85825 48.125 4.375 48.125V48.125C3.89175 48.125 3.5 48.5168 3.5 49V49ZM3.5 46.375C3.5 46.8582 3.89175 47.25 4.375 47.25V47.25C4.85825 47.25 5.25 46.8582 5.25 46.375V46.375C5.25 45.8918 4.85825 45.5 4.375 45.5V45.5C3.89175 45.5 3.5 45.8918 3.5 46.375V46.375ZM3.5 43.75C3.5 44.2332 3.89175 44.625 4.375 44.625V44.625C4.85825 44.625 5.25 44.2332 5.25 43.75V43.75C5.25 43.2668 4.85825 42.875 4.375 42.875V42.875C3.89175 42.875 3.5 43.2668 3.5 43.75V43.75ZM3.5 41.125C3.5 41.6082 3.89175 42 4.375 42V42C4.85825 42 5.25 41.6082 5.25 41.125V41.125C5.25 40.6418 4.85825 40.25 4.375 40.25V40.25C3.89175 40.25 3.5 40.6418 3.5 41.125V41.125ZM3.5 38.5C3.5 38.9832 3.89175 39.375 4.375 39.375V39.375C4.85825 39.375 5.25 38.9832 5.25 38.5V38.5C5.25 38.0168 4.85825 37.625 4.375 37.625V37.625C3.89175 37.625 3.5 38.0168 3.5 38.5V38.5ZM3.5 35.875C3.5 36.3582 3.89175 36.75 4.375 36.75V36.75C4.85825 36.75 5.25 36.3582 5.25 35.875V35.875C5.25 35.3918 4.85825 35 4.375 35V35C3.89175 35 3.5 35.3918 3.5 35.875V35.875ZM3.5 33.25C3.5 33.7332 3.89175 34.125 4.375 34.125V34.125C4.85825 34.125 5.25 33.7332 5.25 33.25V33.25C5.25 32.7668 4.85825 32.375 4.375 32.375V32.375C3.89175 32.375 3.5 32.7668 3.5 33.25V33.25ZM3.5 30.625C3.5 31.1082 3.89175 31.5 4.375 31.5V31.5C4.85825 31.5 5.25 31.1082 5.25 30.625V30.625C5.25 30.1418 4.85825 29.75 4.375 29.75V29.75C3.89175 29.75 3.5 30.1418 3.5 30.625V30.625ZM3.5 28C3.5 28.4832 3.89175 28.875 4.375 28.875V28.875C4.85825 28.875 5.25 28.4832 5.25 28V28C5.25 27.5168 4.85825 27.125 4.375 27.125V27.125C3.89175 27.125 3.5 27.5168 3.5 28V28ZM3.5 25.375C3.5 25.8582 3.89175 26.25 4.375 26.25V26.25C4.85825 26.25 5.25 25.8582 5.25 25.375V25.375C5.25 24.8918 4.85825 24.5 4.375 24.5V24.5C3.89175 24.5 3.5 24.8918 3.5 25.375V25.375ZM3.5 22.75C3.5 23.2332 3.89175 23.625 4.375 23.625V23.625C4.85825 23.625 5.25 23.2332 5.25 22.75V22.75C5.25 22.2668 4.85825 21.875 4.375 21.875V21.875C3.89175 21.875 3.5 22.2668 3.5 22.75V22.75ZM3.5 20.125C3.5 20.6082 3.89175 21 4.375 21V21C4.85825 21 5.25 20.6082 5.25 20.125V20.125C5.25 19.6418 4.85825 19.25 4.375 19.25V19.25C3.89175 19.25 3.5 19.6418 3.5 20.125V20.125ZM3.5 17.5C3.5 17.9832 3.89175 18.375 4.375 18.375V18.375C4.85825 18.375 5.25 17.9832 5.25 17.5V17.5C5.25 17.0168 4.85825 16.625 4.375 16.625V16.625C3.89175 16.625 3.5 17.0168 3.5 17.5V17.5ZM3.5 14.875C3.5 15.3582 3.89175 15.75 4.375 15.75V15.75C4.85825 15.75 5.25 15.3582 5.25 14.875V14.875C5.25 14.3918 4.85825 14 4.375 14V14C3.89175 14 3.5 14.3918 3.5 14.875V14.875ZM3.5 12.25C3.5 12.7332 3.89175 13.125 4.375 13.125V13.125C4.85825 13.125 5.25 12.7332 5.25 12.25V12.25C5.25 11.7668 4.85825 11.375 4.375 11.375V11.375C3.89175 11.375 3.5 11.7668 3.5 12.25V12.25ZM3.5 9.625C3.5 10.1082 3.89175 10.5 4.375 10.5V10.5C4.85825 10.5 5.25 10.1082 5.25 9.625V9.625C5.25 9.14175 4.85825 8.75 4.375 8.75V8.75C3.89175 8.75 3.5 9.14175 3.5 9.625V9.625ZM3.5 7C3.5 7.48325 3.89175 7.875 4.375 7.875V7.875C4.85825 7.875 5.25 7.48325 5.25 7V7C5.25 6.51675 4.85825 6.125 4.375 6.125V6.125C3.89175 6.125 3.5 6.51675 3.5 7V7ZM3.5 4.375C3.5 4.85825 3.89175 5.25 4.375 5.25V5.25C4.85825 5.25 5.25 4.85825 5.25 4.375V4.375C5.25 3.89175 4.85825 3.5 4.375 3.5V3.5C3.89175 3.5 3.5 3.89175 3.5 4.375V4.375ZM7 3.5C6.51675 3.5 6.125 3.89175 6.125 4.375V4.375C6.125 4.85825 6.51675 5.25 7 5.25V5.25C7.48325 5.25 7.875 4.85825 7.875 4.375V4.375C7.875 3.89175 7.48325 3.5 7 3.5V3.5ZM9.625 3.5C9.14175 3.5 8.75 3.89175 8.75 4.375V4.375C8.75 4.85825 9.14175 5.25 9.625 5.25V5.25C10.1082 5.25 10.5 4.85825 10.5 4.375V4.375C10.5 3.89175 10.1082 3.5 9.625 3.5V3.5ZM12.25 3.5C11.7668 3.5 11.375 3.89175 11.375 4.375V4.375C11.375 4.85825 11.7668 5.25 12.25 5.25V5.25C12.7332 5.25 13.125 4.85825 13.125 4.375V4.375C13.125 3.89175 12.7332 3.5 12.25 3.5V3.5ZM14.875 3.5C14.3918 3.5 14 3.89175 14 4.375V4.375C14 4.85825 14.3918 5.25 14.875 5.25V5.25C15.3582 5.25 15.75 4.85825 15.75 4.375V4.375C15.75 3.89175 15.3582 3.5 14.875 3.5V3.5ZM17.5 3.5C17.0168 3.5 16.625 3.89175 16.625 4.375V4.375C16.625 4.85825 17.0168 5.25 17.5 5.25V5.25C17.9832 5.25 18.375 4.85825 18.375 4.375V4.375C18.375 3.89175 17.9832 3.5 17.5 3.5V3.5ZM20.125 3.5C19.6418 3.5 19.25 3.89175 19.25 4.375V4.375C19.25 4.85825 19.6418 5.25 20.125 5.25V5.25C20.6082 5.25 21 4.85825 21 4.375V4.375C21 3.89175 20.6082 3.5 20.125 3.5V3.5ZM22.75 3.5C22.2668 3.5 21.875 3.89175 21.875 4.375V4.375C21.875 4.85825 22.2668 5.25 22.75 5.25V5.25C23.2332 5.25 23.625 4.85825 23.625 4.375V4.375C23.625 3.89175 23.2332 3.5 22.75 3.5V3.5ZM25.375 3.5C24.8918 3.5 24.5 3.89175 24.5 4.375V4.375C24.5 4.85825 24.8918 5.25 25.375 5.25V5.25C25.8582 5.25 26.25 4.85825 26.25 4.375V4.375C26.25 3.89175 25.8582 3.5 25.375 3.5V3.5ZM28 3.5C27.5168 3.5 27.125 3.89175 27.125 4.375V4.375C27.125 4.85825 27.5168 5.25 28 5.25V5.25C28.4832 5.25 28.875 4.85825 28.875 4.375V4.375C28.875 3.89175 28.4832 3.5 28 3.5V3.5ZM30.625 3.5C30.1418 3.5 29.75 3.89175 29.75 4.375V4.375C29.75 4.85825 30.1418 5.25 30.625 5.25V5.25C31.1082 5.25 31.5 4.85825 31.5 4.375V4.375C31.5 3.89175 31.1082 3.5 30.625 3.5V3.5ZM33.25 3.5C32.7668 3.5 32.375 3.89175 32.375 4.375V4.375C32.375 4.85825 32.7668 5.25 33.25 5.25V5.25C33.7332 5.25 34.125 4.85825 34.125 4.375V4.375C34.125 3.89175 33.7332 3.5 33.25 3.5V3.5ZM35.875 3.5C35.3918 3.5 35 3.89175 35 4.375V4.375C35 4.85825 35.3918 5.25 35.875 5.25V5.25C36.3582 5.25 36.75 4.85825 36.75 4.375V4.375C36.75 3.89175 36.3582 3.5 35.875 3.5V3.5ZM38.5 3.5C38.0168 3.5 37.625 3.89175 37.625 4.375V4.375C37.625 4.85825 38.0168 5.25 38.5 5.25V5.25C38.9832 5.25 39.375 4.85825 39.375 4.375V4.375C39.375 3.89175 38.9832 3.5 38.5 3.5V3.5ZM41.125 3.5C40.6418 3.5 40.25 3.89175 40.25 4.375V4.375C40.25 4.85825 40.6418 5.25 41.125 5.25V5.25C41.6082 5.25 42 4.85825 42 4.375V4.375C42 3.89175 41.6082 3.5 41.125 3.5V3.5ZM43.75 3.5C43.2668 3.5 42.875 3.89175 42.875 4.375V4.375C42.875 4.85825 43.2668 5.25 43.75 5.25V5.25C44.2332 5.25 44.625 4.85825 44.625 4.375V4.375C44.625 3.89175 44.2332 3.5 43.75 3.5V3.5ZM46.375 3.5C45.8918 3.5 45.5 3.89175 45.5 4.375V4.375C45.5 4.85825 45.8918 5.25 46.375 5.25V5.25C46.8582 5.25 47.25 4.85825 47.25 4.375V4.375C47.25 3.89175 46.8582 3.5 46.375 3.5V3.5ZM49 3.5C48.5168 3.5 48.125 3.89175 48.125 4.375V4.375C48.125 4.85825 48.5168 5.25 49 5.25V5.25C49.4832 5.25 49.875 4.85825 49.875 4.375V4.375C49.875 3.89175 49.4832 3.5 49 3.5V3.5ZM51.625 3.5C51.1418 3.5 50.75 3.89175 50.75 4.375V4.375C50.75 4.85825 51.1418 5.25 51.625 5.25V5.25C52.1082 5.25 52.5 4.85825 52.5 4.375V4.375C52.5 3.89175 52.1082 3.5 51.625 3.5V3.5ZM52.5 7C52.5 6.51675 52.1082 6.125 51.625 6.125V6.125C51.1418 6.125 50.75 6.51675 50.75 7V7C50.75 7.48325 51.1418 7.875 51.625 7.875V7.875C52.1082 7.875 52.5 7.48325 52.5 7V7ZM52.5 9.625C52.5 9.14175 52.1082 8.75 51.625 8.75V8.75C51.1418 8.75 50.75 9.14175 50.75 9.625V9.625C50.75 10.1082 51.1418 10.5 51.625 10.5V10.5C52.1082 10.5 52.5 10.1082 52.5 9.625V9.625ZM52.5 12.25C52.5 11.7668 52.1082 11.375 51.625 11.375V11.375C51.1418 11.375 50.75 11.7668 50.75 12.25V12.25C50.75 12.7332 51.1418 13.125 51.625 13.125V13.125C52.1082 13.125 52.5 12.7332 52.5 12.25V12.25ZM52.5 14.875C52.5 14.3918 52.1082 14 51.625 14V14C51.1418 14 50.75 14.3918 50.75 14.875V14.875C50.75 15.3582 51.1418 15.75 51.625 15.75V15.75C52.1082 15.75 52.5 15.3582 52.5 14.875V14.875ZM52.5 17.5C52.5 17.0168 52.1082 16.625 51.625 16.625V16.625C51.1418 16.625 50.75 17.0168 50.75 17.5V17.5C50.75 17.9832 51.1418 18.375 51.625 18.375V18.375C52.1082 18.375 52.5 17.9832 52.5 17.5V17.5ZM52.5 20.125C52.5 19.6418 52.1082 19.25 51.625 19.25V19.25C51.1418 19.25 50.75 19.6418 50.75 20.125V20.125C50.75 20.6082 51.1418 21 51.625 21V21C52.1082 21 52.5 20.6082 52.5 20.125V20.125ZM52.5 22.75C52.5 22.2668 52.1082 21.875 51.625 21.875V21.875C51.1418 21.875 50.75 22.2668 50.75 22.75V22.75C50.75 23.2332 51.1418 23.625 51.625 23.625V23.625C52.1082 23.625 52.5 23.2332 52.5 22.75V22.75ZM52.5 25.375C52.5 24.8918 52.1082 24.5 51.625 24.5V24.5C51.1418 24.5 50.75 24.8918 50.75 25.375V25.375C50.75 25.8582 51.1418 26.25 51.625 26.25V26.25C52.1082 26.25 52.5 25.8582 52.5 25.375V25.375ZM52.5 28C52.5 27.5168 52.1082 27.125 51.625 27.125V27.125C51.1418 27.125 50.75 27.5168 50.75 28V28C50.75 28.4832 51.1418 28.875 51.625 28.875V28.875C52.1082 28.875 52.5 28.4832 52.5 28V28ZM52.5 30.625C52.5 30.1418 52.1082 29.75 51.625 29.75V29.75C51.1418 29.75 50.75 30.1418 50.75 30.625V30.625C50.75 31.1082 51.1418 31.5 51.625 31.5V31.5C52.1082 31.5 52.5 31.1082 52.5 30.625V30.625ZM52.5 33.25C52.5 32.7668 52.1082 32.375 51.625 32.375V32.375C51.1418 32.375 50.75 32.7668 50.75 33.25V33.25C50.75 33.7332 51.1418 34.125 51.625 34.125V34.125C52.1082 34.125 52.5 33.7332 52.5 33.25V33.25ZM52.5 35.875C52.5 35.3918 52.1082 35 51.625 35V35C51.1418 35 50.75 35.3918 50.75 35.875V35.875C50.75 36.3582 51.1418 36.75 51.625 36.75V36.75C52.1082 36.75 52.5 36.3582 52.5 35.875V35.875ZM52.5 38.5C52.5 38.0168 52.1082 37.625 51.625 37.625V37.625C51.1418 37.625 50.75 38.0168 50.75 38.5V38.5C50.75 38.9832 51.1418 39.375 51.625 39.375V39.375C52.1082 39.375 52.5 38.9832 52.5 38.5V38.5ZM52.5 41.125C52.5 40.6418 52.1082 40.25 51.625 40.25V40.25C51.1418 40.25 50.75 40.6418 50.75 41.125V41.125C50.75 41.6082 51.1418 42 51.625 42V42C52.1082 42 52.5 41.6082 52.5 41.125V41.125ZM52.5 43.75C52.5 43.2668 52.1082 42.875 51.625 42.875V42.875C51.1418 42.875 50.75 43.2668 50.75 43.75V43.75C50.75 44.2332 51.1418 44.625 51.625 44.625V44.625C52.1082 44.625 52.5 44.2332 52.5 43.75V43.75ZM52.5 46.375C52.5 45.8918 52.1082 45.5 51.625 45.5V45.5C51.1418 45.5 50.75 45.8918 50.75 46.375V46.375C50.75 46.8582 51.1418 47.25 51.625 47.25V47.25C52.1082 47.25 52.5 46.8582 52.5 46.375V46.375ZM52.5 49C52.5 48.5168 52.1082 48.125 51.625 48.125V48.125C51.1418 48.125 50.75 48.5168 50.75 49V49C50.75 49.4832 51.1418 49.875 51.625 49.875V49.875C52.1082 49.875 52.5 49.4832 52.5 49V49ZM49 49.875C49.4832 49.875 49.875 49.4832 49.875 49V49C49.875 48.5168 49.4832 48.125 49 48.125V48.125C48.5168 48.125 48.125 48.5168 48.125 49V49C48.125 49.4832 48.5168 49.875 49 49.875V49.875ZM46.375 49.875C46.8582 49.875 47.25 49.4832 47.25 49V49C47.25 48.5168 46.8582 48.125 46.375 48.125V48.125C45.8918 48.125 45.5 48.5168 45.5 49V49C45.5 49.4832 45.8918 49.875 46.375 49.875V49.875ZM43.75 49.875C44.2332 49.875 44.625 49.4832 44.625 49V49C44.625 48.5168 44.2332 48.125 43.75 48.125V48.125C43.2668 48.125 42.875 48.5168 42.875 49V49C42.875 49.4832 43.2668 49.875 43.75 49.875V49.875ZM41.125 49.875C41.6082 49.875 42 49.4832 42 49V49C42 48.5168 41.6082 48.125 41.125 48.125V48.125C40.6418 48.125 40.25 48.5168 40.25 49V49C40.25 49.4832 40.6418 49.875 41.125 49.875V49.875ZM38.5 49.875C38.9832 49.875 39.375 49.4832 39.375 49V49C39.375 48.5168 38.9832 48.125 38.5 48.125V48.125C38.0168 48.125 37.625 48.5168 37.625 49V49C37.625 49.4832 38.0168 49.875 38.5 49.875V49.875ZM35.875 49.875C36.3582 49.875 36.75 49.4832 36.75 49V49C36.75 48.5168 36.3582 48.125 35.875 48.125V48.125C35.3918 48.125 35 48.5168 35 49V49C35 49.4832 35.3918 49.875 35.875 49.875V49.875ZM33.25 49.875C33.7332 49.875 34.125 49.4832 34.125 49V49C34.125 48.5168 33.7332 48.125 33.25 48.125V48.125C32.7668 48.125 32.375 48.5168 32.375 49V49C32.375 49.4832 32.7668 49.875 33.25 49.875V49.875ZM30.625 49.875C31.1082 49.875 31.5 49.4832 31.5 49V49C31.5 48.5168 31.1082 48.125 30.625 48.125V48.125C30.1418 48.125 29.75 48.5168 29.75 49V49C29.75 49.4832 30.1418 49.875 30.625 49.875V49.875ZM28 49.875C28.4832 49.875 28.875 49.4832 28.875 49V49C28.875 48.5168 28.4832 48.125 28 48.125V48.125C27.5168 48.125 27.125 48.5168 27.125 49V49C27.125 49.4832 27.5168 49.875 28 49.875V49.875ZM25.375 49.875C25.8582 49.875 26.25 49.4832 26.25 49V49C26.25 48.5168 25.8582 48.125 25.375 48.125V48.125C24.8918 48.125 24.5 48.5168 24.5 49V49C24.5 49.4832 24.8918 49.875 25.375 49.875V49.875ZM22.75 49.875C23.2332 49.875 23.625 49.4832 23.625 49V49C23.625 48.5168 23.2332 48.125 22.75 48.125V48.125C22.2668 48.125 21.875 48.5168 21.875 49V49C21.875 49.4832 22.2668 49.875 22.75 49.875V49.875ZM20.125 49.875C20.6082 49.875 21 49.4832 21 49V49C21 48.5168 20.6082 48.125 20.125 48.125V48.125C19.6418 48.125 19.25 48.5168 19.25 49V49C19.25 49.4832 19.6418 49.875 20.125 49.875V49.875ZM17.5 49.875C17.9832 49.875 18.375 49.4832 18.375 49V49C18.375 48.5168 17.9832 48.125 17.5 48.125V48.125C17.0168 48.125 16.625 48.5168 16.625 49V49C16.625 49.4832 17.0168 49.875 17.5 49.875V49.875ZM14.875 49.875C15.3582 49.875 15.75 49.4832 15.75 49V49C15.75 48.5168 15.3582 48.125 14.875 48.125V48.125C14.3918 48.125 14 48.5168 14 49V49C14 49.4832 14.3918 49.875 14.875 49.875V49.875ZM12.25 49.875C12.7332 49.875 13.125 49.4832 13.125 49V49C13.125 48.5168 12.7332 48.125 12.25 48.125V48.125C11.7668 48.125 11.375 48.5168 11.375 49V49C11.375 49.4832 11.7668 49.875 12.25 49.875V49.875ZM9.625 49.875C10.1082 49.875 10.5 49.4832 10.5 49V49C10.5 48.5168 10.1082 48.125 9.625 48.125V48.125C9.14175 48.125 8.75 48.5168 8.75 49V49C8.75 49.4832 9.14175 49.875 9.625 49.875V49.875ZM7 49.875C7.48325 49.875 7.875 49.4832 7.875 49V49C7.875 48.5168 7.48325 48.125 7 48.125V48.125C6.51675 48.125 6.125 48.5168 6.125 49V49C6.125 49.4832 6.51675 49.875 7 49.875V49.875ZM6.125 46.375C6.125 46.8582 6.51675 47.25 7 47.25V47.25C7.48325 47.25 7.875 46.8582 7.875 46.375V46.375C7.875 45.8918 7.48325 45.5 7 45.5V45.5C6.51675 45.5 6.125 45.8918 6.125 46.375V46.375ZM6.125 43.75C6.125 44.2332 6.51675 44.625 7 44.625V44.625C7.48325 44.625 7.875 44.2332 7.875 43.75V43.75C7.875 43.2668 7.48325 42.875 7 42.875V42.875C6.51675 42.875 6.125 43.2668 6.125 43.75V43.75ZM6.125 41.125C6.125 41.6082 6.51675 42 7 42V42C7.48325 42 7.875 41.6082 7.875 41.125V41.125C7.875 40.6418 7.48325 40.25 7 40.25V40.25C6.51675 40.25 6.125 40.6418 6.125 41.125V41.125ZM6.125 38.5C6.125 38.9832 6.51675 39.375 7 39.375V39.375C7.48325 39.375 7.875 38.9832 7.875 38.5V38.5C7.875 38.0168 7.48325 37.625 7 37.625V37.625C6.51675 37.625 6.125 38.0168 6.125 38.5V38.5ZM6.125 35.875C6.125 36.3582 6.51675 36.75 7 36.75V36.75C7.48325 36.75 7.875 36.3582 7.875 35.875V35.875C7.875 35.3918 7.48325 35 7 35V35C6.51675 35 6.125 35.3918 6.125 35.875V35.875ZM6.125 33.25C6.125 33.7332 6.51675 34.125 7 34.125V34.125C7.48325 34.125 7.875 33.7332 7.875 33.25V33.25C7.875 32.7668 7.48325 32.375 7 32.375V32.375C6.51675 32.375 6.125 32.7668 6.125 33.25V33.25ZM6.125 30.625C6.125 31.1082 6.51675 31.5 7 31.5V31.5C7.48325 31.5 7.875 31.1082 7.875 30.625V30.625C7.875 30.1418 7.48325 29.75 7 29.75V29.75C6.51675 29.75 6.125 30.1418 6.125 30.625V30.625ZM6.125 28C6.125 28.4832 6.51675 28.875 7 28.875V28.875C7.48325 28.875 7.875 28.4832 7.875 28V28C7.875 27.5168 7.48325 27.125 7 27.125V27.125C6.51675 27.125 6.125 27.5168 6.125 28V28ZM6.125 25.375C6.125 25.8582 6.51675 26.25 7 26.25V26.25C7.48325 26.25 7.875 25.8582 7.875 25.375V25.375C7.875 24.8918 7.48325 24.5 7 24.5V24.5C6.51675 24.5 6.125 24.8918 6.125 25.375V25.375ZM6.125 22.75C6.125 23.2332 6.51675 23.625 7 23.625V23.625C7.48325 23.625 7.875 23.2332 7.875 22.75V22.75C7.875 22.2668 7.48325 21.875 7 21.875V21.875C6.51675 21.875 6.125 22.2668 6.125 22.75V22.75ZM6.125 20.125C6.125 20.6082 6.51675 21 7 21V21C7.48325 21 7.875 20.6082 7.875 20.125V20.125C7.875 19.6418 7.48325 19.25 7 19.25V19.25C6.51675 19.25 6.125 19.6418 6.125 20.125V20.125ZM6.125 17.5C6.125 17.9832 6.51675 18.375 7 18.375V18.375C7.48325 18.375 7.875 17.9832 7.875 17.5V17.5C7.875 17.0168 7.48325 16.625 7 16.625V16.625C6.51675 16.625 6.125 17.0168 6.125 17.5V17.5ZM6.125 14.875C6.125 15.3582 6.51675 15.75 7 15.75V15.75C7.48325 15.75 7.875 15.3582 7.875 14.875V14.875C7.875 14.3918 7.48325 14 7 14V14C6.51675 14 6.125 14.3918 6.125 14.875V14.875ZM6.125 12.25C6.125 12.7332 6.51675 13.125 7 13.125V13.125C7.48325 13.125 7.875 12.7332 7.875 12.25V12.25C7.875 11.7668 7.48325 11.375 7 11.375V11.375C6.51675 11.375 6.125 11.7668 6.125 12.25V12.25ZM6.125 9.625C6.125 10.1082 6.51675 10.5 7 10.5V10.5C7.48325 10.5 7.875 10.1082 7.875 9.625V9.625C7.875 9.14175 7.48325 8.75 7 8.75V8.75C6.51675 8.75 6.125 9.14175 6.125 9.625V9.625ZM6.125 7C6.125 7.48325 6.51675 7.875 7 7.875V7.875C7.48325 7.875 7.875 7.48325 7.875 7V7C7.875 6.51675 7.48325 6.125 7 6.125V6.125C6.51675 6.125 6.125 6.51675 6.125 7V7ZM9.625 6.125C9.14175 6.125 8.75 6.51675 8.75 7V7C8.75 7.48325 9.14175 7.875 9.625 7.875V7.875C10.1082 7.875 10.5 7.48325 10.5 7V7C10.5 6.51675 10.1082 6.125 9.625 6.125V6.125ZM12.25 6.125C11.7668 6.125 11.375 6.51675 11.375 7V7C11.375 7.48325 11.7668 7.875 12.25 7.875V7.875C12.7332 7.875 13.125 7.48325 13.125 7V7C13.125 6.51675 12.7332 6.125 12.25 6.125V6.125ZM14.875 6.125C14.3918 6.125 14 6.51675 14 7V7C14 7.48325 14.3918 7.875 14.875 7.875V7.875C15.3582 7.875 15.75 7.48325 15.75 7V7C15.75 6.51675 15.3582 6.125 14.875 6.125V6.125ZM17.5 6.125C17.0168 6.125 16.625 6.51675 16.625 7V7C16.625 7.48325 17.0168 7.875 17.5 7.875V7.875C17.9832 7.875 18.375 7.48325 18.375 7V7C18.375 6.51675 17.9832 6.125 17.5 6.125V6.125ZM20.125 6.125C19.6418 6.125 19.25 6.51675 19.25 7V7C19.25 7.48325 19.6418 7.875 20.125 7.875V7.875C20.6082 7.875 21 7.48325 21 7V7C21 6.51675 20.6082 6.125 20.125 6.125V6.125ZM22.75 6.125C22.2668 6.125 21.875 6.51675 21.875 7V7C21.875 7.48325 22.2668 7.875 22.75 7.875V7.875C23.2332 7.875 23.625 7.48325 23.625 7V7C23.625 6.51675 23.2332 6.125 22.75 6.125V6.125ZM25.375 6.125C24.8918 6.125 24.5 6.51675 24.5 7V7C24.5 7.48325 24.8918 7.875 25.375 7.875V7.875C25.8582 7.875 26.25 7.48325 26.25 7V7C26.25 6.51675 25.8582 6.125 25.375 6.125V6.125ZM28 6.125C27.5168 6.125 27.125 6.51675 27.125 7V7C27.125 7.48325 27.5168 7.875 28 7.875V7.875C28.4832 7.875 28.875 7.48325 28.875 7V7C28.875 6.51675 28.4832 6.125 28 6.125V6.125ZM30.625 6.125C30.1418 6.125 29.75 6.51675 29.75 7V7C29.75 7.48325 30.1418 7.875 30.625 7.875V7.875C31.1082 7.875 31.5 7.48325 31.5 7V7C31.5 6.51675 31.1082 6.125 30.625 6.125V6.125ZM33.25 6.125C32.7668 6.125 32.375 6.51675 32.375 7V7C32.375 7.48325 32.7668 7.875 33.25 7.875V7.875C33.7332 7.875 34.125 7.48325 34.125 7V7C34.125 6.51675 33.7332 6.125 33.25 6.125V6.125ZM35.875 6.125C35.3918 6.125 35 6.51675 35 7V7C35 7.48325 35.3918 7.875 35.875 7.875V7.875C36.3582 7.875 36.75 7.48325 36.75 7V7C36.75 6.51675 36.3582 6.125 35.875 6.125V6.125ZM38.5 6.125C38.0168 6.125 37.625 6.51675 37.625 7V7C37.625 7.48325 38.0168 7.875 38.5 7.875V7.875C38.9832 7.875 39.375 7.48325 39.375 7V7C39.375 6.51675 38.9832 6.125 38.5 6.125V6.125ZM41.125 6.125C40.6418 6.125 40.25 6.51675 40.25 7V7C40.25 7.48325 40.6418 7.875 41.125 7.875V7.875C41.6082 7.875 42 7.48325 42 7V7C42 6.51675 41.6082 6.125 41.125 6.125V6.125ZM43.75 6.125C43.2668 6.125 42.875 6.51675 42.875 7V7C42.875 7.48325 43.2668 7.875 43.75 7.875V7.875C44.2332 7.875 44.625 7.48325 44.625 7V7C44.625 6.51675 44.2332 6.125 43.75 6.125V6.125ZM46.375 6.125C45.8918 6.125 45.5 6.51675 45.5 7V7C45.5 7.48325 45.8918 7.875 46.375 7.875V7.875C46.8582 7.875 47.25 7.48325 47.25 7V7C47.25 6.51675 46.8582 6.125 46.375 6.125V6.125ZM49 6.125C48.5168 6.125 48.125 6.51675 48.125 7V7C48.125 7.48325 48.5168 7.875 49 7.875V7.875C49.4832 7.875 49.875 7.48325 49.875 7V7C49.875 6.51675 49.4832 6.125 49 6.125V6.125ZM49.875 9.625C49.875 9.14175 49.4832 8.75 49 8.75V8.75C48.5168 8.75 48.125 9.14175 48.125 9.625V9.625C48.125 10.1082 48.5168 10.5 49 10.5V10.5C49.4832 10.5 49.875 10.1082 49.875 9.625V9.625ZM49.875 12.25C49.875 11.7668 49.4832 11.375 49 11.375V11.375C48.5168 11.375 48.125 11.7668 48.125 12.25V12.25C48.125 12.7332 48.5168 13.125 49 13.125V13.125C49.4832 13.125 49.875 12.7332 49.875 12.25V12.25ZM49.875 14.875C49.875 14.3918 49.4832 14 49 14V14C48.5168 14 48.125 14.3918 48.125 14.875V14.875C48.125 15.3582 48.5168 15.75 49 15.75V15.75C49.4832 15.75 49.875 15.3582 49.875 14.875V14.875ZM49.875 17.5C49.875 17.0168 49.4832 16.625 49 16.625V16.625C48.5168 16.625 48.125 17.0168 48.125 17.5V17.5C48.125 17.9832 48.5168 18.375 49 18.375V18.375C49.4832 18.375 49.875 17.9832 49.875 17.5V17.5ZM49.875 20.125C49.875 19.6418 49.4832 19.25 49 19.25V19.25C48.5168 19.25 48.125 19.6418 48.125 20.125V20.125C48.125 20.6082 48.5168 21 49 21V21C49.4832 21 49.875 20.6082 49.875 20.125V20.125ZM49.875 22.75C49.875 22.2668 49.4832 21.875 49 21.875V21.875C48.5168 21.875 48.125 22.2668 48.125 22.75V22.75C48.125 23.2332 48.5168 23.625 49 23.625V23.625C49.4832 23.625 49.875 23.2332 49.875 22.75V22.75ZM49.875 25.375C49.875 24.8918 49.4832 24.5 49 24.5V24.5C48.5168 24.5 48.125 24.8918 48.125 25.375V25.375C48.125 25.8582 48.5168 26.25 49 26.25V26.25C49.4832 26.25 49.875 25.8582 49.875 25.375V25.375ZM49.875 28C49.875 27.5168 49.4832 27.125 49 27.125V27.125C48.5168 27.125 48.125 27.5168 48.125 28V28C48.125 28.4832 48.5168 28.875 49 28.875V28.875C49.4832 28.875 49.875 28.4832 49.875 28V28ZM49.875 30.625C49.875 30.1418 49.4832 29.75 49 29.75V29.75C48.5168 29.75 48.125 30.1418 48.125 30.625V30.625C48.125 31.1082 48.5168 31.5 49 31.5V31.5C49.4832 31.5 49.875 31.1082 49.875 30.625V30.625ZM49.875 33.25C49.875 32.7668 49.4832 32.375 49 32.375V32.375C48.5168 32.375 48.125 32.7668 48.125 33.25V33.25C48.125 33.7332 48.5168 34.125 49 34.125V34.125C49.4832 34.125 49.875 33.7332 49.875 33.25V33.25ZM49.875 35.875C49.875 35.3918 49.4832 35 49 35V35C48.5168 35 48.125 35.3918 48.125 35.875V35.875C48.125 36.3582 48.5168 36.75 49 36.75V36.75C49.4832 36.75 49.875 36.3582 49.875 35.875V35.875ZM49.875 38.5C49.875 38.0168 49.4832 37.625 49 37.625V37.625C48.5168 37.625 48.125 38.0168 48.125 38.5V38.5C48.125 38.9832 48.5168 39.375 49 39.375V39.375C49.4832 39.375 49.875 38.9832 49.875 38.5V38.5ZM49.875 41.125C49.875 40.6418 49.4832 40.25 49 40.25V40.25C48.5168 40.25 48.125 40.6418 48.125 41.125V41.125C48.125 41.6082 48.5168 42 49 42V42C49.4832 42 49.875 41.6082 49.875 41.125V41.125ZM49.875 43.75C49.875 43.2668 49.4832 42.875 49 42.875V42.875C48.5168 42.875 48.125 43.2668 48.125 43.75V43.75C48.125 44.2332 48.5168 44.625 49 44.625V44.625C49.4832 44.625 49.875 44.2332 49.875 43.75V43.75ZM49.875 46.375C49.875 45.8918 49.4832 45.5 49 45.5V45.5C48.5168 45.5 48.125 45.8918 48.125 46.375V46.375C48.125 46.8582 48.5168 47.25 49 47.25V47.25C49.4832 47.25 49.875 46.8582 49.875 46.375V46.375ZM46.375 47.25C46.8582 47.25 47.25 46.8582 47.25 46.375V46.375C47.25 45.8918 46.8582 45.5 46.375 45.5V45.5C45.8918 45.5 45.5 45.8918 45.5 46.375V46.375C45.5 46.8582 45.8918 47.25 46.375 47.25V47.25ZM43.75 47.25C44.2332 47.25 44.625 46.8582 44.625 46.375V46.375C44.625 45.8918 44.2332 45.5 43.75 45.5V45.5C43.2668 45.5 42.875 45.8918 42.875 46.375V46.375C42.875 46.8582 43.2668 47.25 43.75 47.25V47.25ZM41.125 47.25C41.6082 47.25 42 46.8582 42 46.375V46.375C42 45.8918 41.6082 45.5 41.125 45.5V45.5C40.6418 45.5 40.25 45.8918 40.25 46.375V46.375C40.25 46.8582 40.6418 47.25 41.125 47.25V47.25ZM38.5 47.25C38.9832 47.25 39.375 46.8582 39.375 46.375V46.375C39.375 45.8918 38.9832 45.5 38.5 45.5V45.5C38.0168 45.5 37.625 45.8918 37.625 46.375V46.375C37.625 46.8582 38.0168 47.25 38.5 47.25V47.25ZM35.875 47.25C36.3582 47.25 36.75 46.8582 36.75 46.375V46.375C36.75 45.8918 36.3582 45.5 35.875 45.5V45.5C35.3918 45.5 35 45.8918 35 46.375V46.375C35 46.8582 35.3918 47.25 35.875 47.25V47.25ZM33.25 47.25C33.7332 47.25 34.125 46.8582 34.125 46.375V46.375C34.125 45.8918 33.7332 45.5 33.25 45.5V45.5C32.7668 45.5 32.375 45.8918 32.375 46.375V46.375C32.375 46.8582 32.7668 47.25 33.25 47.25V47.25ZM30.625 47.25C31.1082 47.25 31.5 46.8582 31.5 46.375V46.375C31.5 45.8918 31.1082 45.5 30.625 45.5V45.5C30.1418 45.5 29.75 45.8918 29.75 46.375V46.375C29.75 46.8582 30.1418 47.25 30.625 47.25V47.25ZM28 47.25C28.4832 47.25 28.875 46.8582 28.875 46.375V46.375C28.875 45.8918 28.4832 45.5 28 45.5V45.5C27.5168 45.5 27.125 45.8918 27.125 46.375V46.375C27.125 46.8582 27.5168 47.25 28 47.25V47.25ZM25.375 47.25C25.8582 47.25 26.25 46.8582 26.25 46.375V46.375C26.25 45.8918 25.8582 45.5 25.375 45.5V45.5C24.8918 45.5 24.5 45.8918 24.5 46.375V46.375C24.5 46.8582 24.8918 47.25 25.375 47.25V47.25ZM22.75 47.25C23.2332 47.25 23.625 46.8582 23.625 46.375V46.375C23.625 45.8918 23.2332 45.5 22.75 45.5V45.5C22.2668 45.5 21.875 45.8918 21.875 46.375V46.375C21.875 46.8582 22.2668 47.25 22.75 47.25V47.25ZM20.125 47.25C20.6082 47.25 21 46.8582 21 46.375V46.375C21 45.8918 20.6082 45.5 20.125 45.5V45.5C19.6418 45.5 19.25 45.8918 19.25 46.375V46.375C19.25 46.8582 19.6418 47.25 20.125 47.25V47.25ZM17.5 47.25C17.9832 47.25 18.375 46.8582 18.375 46.375V46.375C18.375 45.8918 17.9832 45.5 17.5 45.5V45.5C17.0168 45.5 16.625 45.8918 16.625 46.375V46.375C16.625 46.8582 17.0168 47.25 17.5 47.25V47.25ZM14.875 47.25C15.3582 47.25 15.75 46.8582 15.75 46.375V46.375C15.75 45.8918 15.3582 45.5 14.875 45.5V45.5C14.3918 45.5 14 45.8918 14 46.375V46.375C14 46.8582 14.3918 47.25 14.875 47.25V47.25ZM12.25 47.25C12.7332 47.25 13.125 46.8582 13.125 46.375V46.375C13.125 45.8918 12.7332 45.5 12.25 45.5V45.5C11.7668 45.5 11.375 45.8918 11.375 46.375V46.375C11.375 46.8582 11.7668 47.25 12.25 47.25V47.25ZM9.625 47.25C10.1082 47.25 10.5 46.8582 10.5 46.375V46.375C10.5 45.8918 10.1082 45.5 9.625 45.5V45.5C9.14175 45.5 8.75 45.8918 8.75 46.375V46.375C8.75 46.8582 9.14175 47.25 9.625 47.25V47.25ZM8.75 43.75C8.75 44.2332 9.14175 44.625 9.625 44.625V44.625C10.1082 44.625 10.5 44.2332 10.5 43.75V43.75C10.5 43.2668 10.1082 42.875 9.625 42.875V42.875C9.14175 42.875 8.75 43.2668 8.75 43.75V43.75ZM8.75 41.125C8.75 41.6082 9.14175 42 9.625 42V42C10.1082 42 10.5 41.6082 10.5 41.125V41.125C10.5 40.6418 10.1082 40.25 9.625 40.25V40.25C9.14175 40.25 8.75 40.6418 8.75 41.125V41.125ZM8.75 38.5C8.75 38.9832 9.14175 39.375 9.625 39.375V39.375C10.1082 39.375 10.5 38.9832 10.5 38.5V38.5C10.5 38.0168 10.1082 37.625 9.625 37.625V37.625C9.14175 37.625 8.75 38.0168 8.75 38.5V38.5ZM8.75 35.875C8.75 36.3582 9.14175 36.75 9.625 36.75V36.75C10.1082 36.75 10.5 36.3582 10.5 35.875V35.875C10.5 35.3918 10.1082 35 9.625 35V35C9.14175 35 8.75 35.3918 8.75 35.875V35.875ZM8.75 33.25C8.75 33.7332 9.14175 34.125 9.625 34.125V34.125C10.1082 34.125 10.5 33.7332 10.5 33.25V33.25C10.5 32.7668 10.1082 32.375 9.625 32.375V32.375C9.14175 32.375 8.75 32.7668 8.75 33.25V33.25ZM8.75 30.625C8.75 31.1082 9.14175 31.5 9.625 31.5V31.5C10.1082 31.5 10.5 31.1082 10.5 30.625V30.625C10.5 30.1418 10.1082 29.75 9.625 29.75V29.75C9.14175 29.75 8.75 30.1418 8.75 30.625V30.625ZM8.75 28C8.75 28.4832 9.14175 28.875 9.625 28.875V28.875C10.1082 28.875 10.5 28.4832 10.5 28V28C10.5 27.5168 10.1082 27.125 9.625 27.125V27.125C9.14175 27.125 8.75 27.5168 8.75 28V28ZM8.75 25.375C8.75 25.8582 9.14175 26.25 9.625 26.25V26.25C10.1082 26.25 10.5 25.8582 10.5 25.375V25.375C10.5 24.8918 10.1082 24.5 9.625 24.5V24.5C9.14175 24.5 8.75 24.8918 8.75 25.375V25.375ZM8.75 22.75C8.75 23.2332 9.14175 23.625 9.625 23.625V23.625C10.1082 23.625 10.5 23.2332 10.5 22.75V22.75C10.5 22.2668 10.1082 21.875 9.625 21.875V21.875C9.14175 21.875 8.75 22.2668 8.75 22.75V22.75ZM8.75 20.125C8.75 20.6082 9.14175 21 9.625 21V21C10.1082 21 10.5 20.6082 10.5 20.125V20.125C10.5 19.6418 10.1082 19.25 9.625 19.25V19.25C9.14175 19.25 8.75 19.6418 8.75 20.125V20.125ZM8.75 17.5C8.75 17.9832 9.14175 18.375 9.625 18.375V18.375C10.1082 18.375 10.5 17.9832 10.5 17.5V17.5C10.5 17.0168 10.1082 16.625 9.625 16.625V16.625C9.14175 16.625 8.75 17.0168 8.75 17.5V17.5ZM8.75 14.875C8.75 15.3582 9.14175 15.75 9.625 15.75V15.75C10.1082 15.75 10.5 15.3582 10.5 14.875V14.875C10.5 14.3918 10.1082 14 9.625 14V14C9.14175 14 8.75 14.3918 8.75 14.875V14.875ZM8.75 12.25C8.75 12.7332 9.14175 13.125 9.625 13.125V13.125C10.1082 13.125 10.5 12.7332 10.5 12.25V12.25C10.5 11.7668 10.1082 11.375 9.625 11.375V11.375C9.14175 11.375 8.75 11.7668 8.75 12.25V12.25ZM8.75 9.625C8.75 10.1082 9.14175 10.5 9.625 10.5V10.5C10.1082 10.5 10.5 10.1082 10.5 9.625V9.625C10.5 9.14175 10.1082 8.75 9.625 8.75V8.75C9.14175 8.75 8.75 9.14175 8.75 9.625V9.625ZM12.25 8.75C11.7668 8.75 11.375 9.14175 11.375 9.625V9.625C11.375 10.1082 11.7668 10.5 12.25 10.5V10.5C12.7332 10.5 13.125 10.1082 13.125 9.625V9.625C13.125 9.14175 12.7332 8.75 12.25 8.75V8.75ZM14.875 8.75C14.3918 8.75 14 9.14175 14 9.625V9.625C14 10.1082 14.3918 10.5 14.875 10.5V10.5C15.3582 10.5 15.75 10.1082 15.75 9.625V9.625C15.75 9.14175 15.3582 8.75 14.875 8.75V8.75ZM17.5 8.75C17.0168 8.75 16.625 9.14175 16.625 9.625V9.625C16.625 10.1082 17.0168 10.5 17.5 10.5V10.5C17.9832 10.5 18.375 10.1082 18.375 9.625V9.625C18.375 9.14175 17.9832 8.75 17.5 8.75V8.75ZM20.125 8.75C19.6418 8.75 19.25 9.14175 19.25 9.625V9.625C19.25 10.1082 19.6418 10.5 20.125 10.5V10.5C20.6082 10.5 21 10.1082 21 9.625V9.625C21 9.14175 20.6082 8.75 20.125 8.75V8.75ZM22.75 8.75C22.2668 8.75 21.875 9.14175 21.875 9.625V9.625C21.875 10.1082 22.2668 10.5 22.75 10.5V10.5C23.2332 10.5 23.625 10.1082 23.625 9.625V9.625C23.625 9.14175 23.2332 8.75 22.75 8.75V8.75ZM25.375 8.75C24.8918 8.75 24.5 9.14175 24.5 9.625V9.625C24.5 10.1082 24.8918 10.5 25.375 10.5V10.5C25.8582 10.5 26.25 10.1082 26.25 9.625V9.625C26.25 9.14175 25.8582 8.75 25.375 8.75V8.75ZM28 8.75C27.5168 8.75 27.125 9.14175 27.125 9.625V9.625C27.125 10.1082 27.5168 10.5 28 10.5V10.5C28.4832 10.5 28.875 10.1082 28.875 9.625V9.625C28.875 9.14175 28.4832 8.75 28 8.75V8.75ZM30.625 8.75C30.1418 8.75 29.75 9.14175 29.75 9.625V9.625C29.75 10.1082 30.1418 10.5 30.625 10.5V10.5C31.1082 10.5 31.5 10.1082 31.5 9.625V9.625C31.5 9.14175 31.1082 8.75 30.625 8.75V8.75ZM33.25 8.75C32.7668 8.75 32.375 9.14175 32.375 9.625V9.625C32.375 10.1082 32.7668 10.5 33.25 10.5V10.5C33.7332 10.5 34.125 10.1082 34.125 9.625V9.625C34.125 9.14175 33.7332 8.75 33.25 8.75V8.75ZM35.875 8.75C35.3918 8.75 35 9.14175 35 9.625V9.625C35 10.1082 35.3918 10.5 35.875 10.5V10.5C36.3582 10.5 36.75 10.1082 36.75 9.625V9.625C36.75 9.14175 36.3582 8.75 35.875 8.75V8.75ZM38.5 8.75C38.0168 8.75 37.625 9.14175 37.625 9.625V9.625C37.625 10.1082 38.0168 10.5 38.5 10.5V10.5C38.9832 10.5 39.375 10.1082 39.375 9.625V9.625C39.375 9.14175 38.9832 8.75 38.5 8.75V8.75ZM41.125 8.75C40.6418 8.75 40.25 9.14175 40.25 9.625V9.625C40.25 10.1082 40.6418 10.5 41.125 10.5V10.5C41.6082 10.5 42 10.1082 42 9.625V9.625C42 9.14175 41.6082 8.75 41.125 8.75V8.75ZM43.75 8.75C43.2668 8.75 42.875 9.14175 42.875 9.625V9.625C42.875 10.1082 43.2668 10.5 43.75 10.5V10.5C44.2332 10.5 44.625 10.1082 44.625 9.625V9.625C44.625 9.14175 44.2332 8.75 43.75 8.75V8.75ZM46.375 8.75C45.8918 8.75 45.5 9.14175 45.5 9.625V9.625C45.5 10.1082 45.8918 10.5 46.375 10.5V10.5C46.8582 10.5 47.25 10.1082 47.25 9.625V9.625C47.25 9.14175 46.8582 8.75 46.375 8.75V8.75ZM47.25 12.25C47.25 11.7668 46.8582 11.375 46.375 11.375V11.375C45.8918 11.375 45.5 11.7668 45.5 12.25V12.25C45.5 12.7332 45.8918 13.125 46.375 13.125V13.125C46.8582 13.125 47.25 12.7332 47.25 12.25V12.25ZM47.25 14.875C47.25 14.3918 46.8582 14 46.375 14V14C45.8918 14 45.5 14.3918 45.5 14.875V14.875C45.5 15.3582 45.8918 15.75 46.375 15.75V15.75C46.8582 15.75 47.25 15.3582 47.25 14.875V14.875ZM47.25 17.5C47.25 17.0168 46.8582 16.625 46.375 16.625V16.625C45.8918 16.625 45.5 17.0168 45.5 17.5V17.5C45.5 17.9832 45.8918 18.375 46.375 18.375V18.375C46.8582 18.375 47.25 17.9832 47.25 17.5V17.5ZM47.25 20.125C47.25 19.6418 46.8582 19.25 46.375 19.25V19.25C45.8918 19.25 45.5 19.6418 45.5 20.125V20.125C45.5 20.6082 45.8918 21 46.375 21V21C46.8582 21 47.25 20.6082 47.25 20.125V20.125ZM47.25 22.75C47.25 22.2668 46.8582 21.875 46.375 21.875V21.875C45.8918 21.875 45.5 22.2668 45.5 22.75V22.75C45.5 23.2332 45.8918 23.625 46.375 23.625V23.625C46.8582 23.625 47.25 23.2332 47.25 22.75V22.75ZM47.25 25.375C47.25 24.8918 46.8582 24.5 46.375 24.5V24.5C45.8918 24.5 45.5 24.8918 45.5 25.375V25.375C45.5 25.8582 45.8918 26.25 46.375 26.25V26.25C46.8582 26.25 47.25 25.8582 47.25 25.375V25.375ZM47.25 28C47.25 27.5168 46.8582 27.125 46.375 27.125V27.125C45.8918 27.125 45.5 27.5168 45.5 28V28C45.5 28.4832 45.8918 28.875 46.375 28.875V28.875C46.8582 28.875 47.25 28.4832 47.25 28V28ZM47.25 30.625C47.25 30.1418 46.8582 29.75 46.375 29.75V29.75C45.8918 29.75 45.5 30.1418 45.5 30.625V30.625C45.5 31.1082 45.8918 31.5 46.375 31.5V31.5C46.8582 31.5 47.25 31.1082 47.25 30.625V30.625ZM47.25 33.25C47.25 32.7668 46.8582 32.375 46.375 32.375V32.375C45.8918 32.375 45.5 32.7668 45.5 33.25V33.25C45.5 33.7332 45.8918 34.125 46.375 34.125V34.125C46.8582 34.125 47.25 33.7332 47.25 33.25V33.25ZM47.25 35.875C47.25 35.3918 46.8582 35 46.375 35V35C45.8918 35 45.5 35.3918 45.5 35.875V35.875C45.5 36.3582 45.8918 36.75 46.375 36.75V36.75C46.8582 36.75 47.25 36.3582 47.25 35.875V35.875ZM47.25 38.5C47.25 38.0168 46.8582 37.625 46.375 37.625V37.625C45.8918 37.625 45.5 38.0168 45.5 38.5V38.5C45.5 38.9832 45.8918 39.375 46.375 39.375V39.375C46.8582 39.375 47.25 38.9832 47.25 38.5V38.5ZM47.25 41.125C47.25 40.6418 46.8582 40.25 46.375 40.25V40.25C45.8918 40.25 45.5 40.6418 45.5 41.125V41.125C45.5 41.6082 45.8918 42 46.375 42V42C46.8582 42 47.25 41.6082 47.25 41.125V41.125ZM47.25 43.75C47.25 43.2668 46.8582 42.875 46.375 42.875V42.875C45.8918 42.875 45.5 43.2668 45.5 43.75V43.75C45.5 44.2332 45.8918 44.625 46.375 44.625V44.625C46.8582 44.625 47.25 44.2332 47.25 43.75V43.75ZM43.75 44.625C44.2332 44.625 44.625 44.2332 44.625 43.75V43.75C44.625 43.2668 44.2332 42.875 43.75 42.875V42.875C43.2668 42.875 42.875 43.2668 42.875 43.75V43.75C42.875 44.2332 43.2668 44.625 43.75 44.625V44.625ZM41.125 44.625C41.6082 44.625 42 44.2332 42 43.75V43.75C42 43.2668 41.6082 42.875 41.125 42.875V42.875C40.6418 42.875 40.25 43.2668 40.25 43.75V43.75C40.25 44.2332 40.6418 44.625 41.125 44.625V44.625ZM38.5 44.625C38.9832 44.625 39.375 44.2332 39.375 43.75V43.75C39.375 43.2668 38.9832 42.875 38.5 42.875V42.875C38.0168 42.875 37.625 43.2668 37.625 43.75V43.75C37.625 44.2332 38.0168 44.625 38.5 44.625V44.625ZM35.875 44.625C36.3582 44.625 36.75 44.2332 36.75 43.75V43.75C36.75 43.2668 36.3582 42.875 35.875 42.875V42.875C35.3918 42.875 35 43.2668 35 43.75V43.75C35 44.2332 35.3918 44.625 35.875 44.625V44.625ZM33.25 44.625C33.7332 44.625 34.125 44.2332 34.125 43.75V43.75C34.125 43.2668 33.7332 42.875 33.25 42.875V42.875C32.7668 42.875 32.375 43.2668 32.375 43.75V43.75C32.375 44.2332 32.7668 44.625 33.25 44.625V44.625ZM30.625 44.625C31.1082 44.625 31.5 44.2332 31.5 43.75V43.75C31.5 43.2668 31.1082 42.875 30.625 42.875V42.875C30.1418 42.875 29.75 43.2668 29.75 43.75V43.75C29.75 44.2332 30.1418 44.625 30.625 44.625V44.625ZM28 44.625C28.4832 44.625 28.875 44.2332 28.875 43.75V43.75C28.875 43.2668 28.4832 42.875 28 42.875V42.875C27.5168 42.875 27.125 43.2668 27.125 43.75V43.75C27.125 44.2332 27.5168 44.625 28 44.625V44.625ZM25.375 44.625C25.8582 44.625 26.25 44.2332 26.25 43.75V43.75C26.25 43.2668 25.8582 42.875 25.375 42.875V42.875C24.8918 42.875 24.5 43.2668 24.5 43.75V43.75C24.5 44.2332 24.8918 44.625 25.375 44.625V44.625ZM22.75 44.625C23.2332 44.625 23.625 44.2332 23.625 43.75V43.75C23.625 43.2668 23.2332 42.875 22.75 42.875V42.875C22.2668 42.875 21.875 43.2668 21.875 43.75V43.75C21.875 44.2332 22.2668 44.625 22.75 44.625V44.625ZM20.125 44.625C20.6082 44.625 21 44.2332 21 43.75V43.75C21 43.2668 20.6082 42.875 20.125 42.875V42.875C19.6418 42.875 19.25 43.2668 19.25 43.75V43.75C19.25 44.2332 19.6418 44.625 20.125 44.625V44.625ZM17.5 44.625C17.9832 44.625 18.375 44.2332 18.375 43.75V43.75C18.375 43.2668 17.9832 42.875 17.5 42.875V42.875C17.0168 42.875 16.625 43.2668 16.625 43.75V43.75C16.625 44.2332 17.0168 44.625 17.5 44.625V44.625ZM14.875 44.625C15.3582 44.625 15.75 44.2332 15.75 43.75V43.75C15.75 43.2668 15.3582 42.875 14.875 42.875V42.875C14.3918 42.875 14 43.2668 14 43.75V43.75C14 44.2332 14.3918 44.625 14.875 44.625V44.625ZM12.25 44.625C12.7332 44.625 13.125 44.2332 13.125 43.75V43.75C13.125 43.2668 12.7332 42.875 12.25 42.875V42.875C11.7668 42.875 11.375 43.2668 11.375 43.75V43.75C11.375 44.2332 11.7668 44.625 12.25 44.625V44.625ZM11.375 41.125C11.375 41.6082 11.7668 42 12.25 42V42C12.7332 42 13.125 41.6082 13.125 41.125V41.125C13.125 40.6418 12.7332 40.25 12.25 40.25V40.25C11.7668 40.25 11.375 40.6418 11.375 41.125V41.125ZM11.375 38.5C11.375 38.9832 11.7668 39.375 12.25 39.375V39.375C12.7332 39.375 13.125 38.9832 13.125 38.5V38.5C13.125 38.0168 12.7332 37.625 12.25 37.625V37.625C11.7668 37.625 11.375 38.0168 11.375 38.5V38.5ZM11.375 35.875C11.375 36.3582 11.7668 36.75 12.25 36.75V36.75C12.7332 36.75 13.125 36.3582 13.125 35.875V35.875C13.125 35.3918 12.7332 35 12.25 35V35C11.7668 35 11.375 35.3918 11.375 35.875V35.875ZM11.375 33.25C11.375 33.7332 11.7668 34.125 12.25 34.125V34.125C12.7332 34.125 13.125 33.7332 13.125 33.25V33.25C13.125 32.7668 12.7332 32.375 12.25 32.375V32.375C11.7668 32.375 11.375 32.7668 11.375 33.25V33.25ZM11.375 30.625C11.375 31.1082 11.7668 31.5 12.25 31.5V31.5C12.7332 31.5 13.125 31.1082 13.125 30.625V30.625C13.125 30.1418 12.7332 29.75 12.25 29.75V29.75C11.7668 29.75 11.375 30.1418 11.375 30.625V30.625ZM11.375 28C11.375 28.4832 11.7668 28.875 12.25 28.875V28.875C12.7332 28.875 13.125 28.4832 13.125 28V28C13.125 27.5168 12.7332 27.125 12.25 27.125V27.125C11.7668 27.125 11.375 27.5168 11.375 28V28ZM11.375 25.375C11.375 25.8582 11.7668 26.25 12.25 26.25V26.25C12.7332 26.25 13.125 25.8582 13.125 25.375V25.375C13.125 24.8918 12.7332 24.5 12.25 24.5V24.5C11.7668 24.5 11.375 24.8918 11.375 25.375V25.375ZM11.375 22.75C11.375 23.2332 11.7668 23.625 12.25 23.625V23.625C12.7332 23.625 13.125 23.2332 13.125 22.75V22.75C13.125 22.2668 12.7332 21.875 12.25 21.875V21.875C11.7668 21.875 11.375 22.2668 11.375 22.75V22.75ZM11.375 20.125C11.375 20.6082 11.7668 21 12.25 21V21C12.7332 21 13.125 20.6082 13.125 20.125V20.125C13.125 19.6418 12.7332 19.25 12.25 19.25V19.25C11.7668 19.25 11.375 19.6418 11.375 20.125V20.125ZM11.375 17.5C11.375 17.9832 11.7668 18.375 12.25 18.375V18.375C12.7332 18.375 13.125 17.9832 13.125 17.5V17.5C13.125 17.0168 12.7332 16.625 12.25 16.625V16.625C11.7668 16.625 11.375 17.0168 11.375 17.5V17.5ZM11.375 14.875C11.375 15.3582 11.7668 15.75 12.25 15.75V15.75C12.7332 15.75 13.125 15.3582 13.125 14.875V14.875C13.125 14.3918 12.7332 14 12.25 14V14C11.7668 14 11.375 14.3918 11.375 14.875V14.875ZM11.375 12.25C11.375 12.7332 11.7668 13.125 12.25 13.125V13.125C12.7332 13.125 13.125 12.7332 13.125 12.25V12.25C13.125 11.7668 12.7332 11.375 12.25 11.375V11.375C11.7668 11.375 11.375 11.7668 11.375 12.25V12.25ZM14.875 11.375C14.3918 11.375 14 11.7668 14 12.25V12.25C14 12.7332 14.3918 13.125 14.875 13.125V13.125C15.3582 13.125 15.75 12.7332 15.75 12.25V12.25C15.75 11.7668 15.3582 11.375 14.875 11.375V11.375ZM17.5 11.375C17.0168 11.375 16.625 11.7668 16.625 12.25V12.25C16.625 12.7332 17.0168 13.125 17.5 13.125V13.125C17.9832 13.125 18.375 12.7332 18.375 12.25V12.25C18.375 11.7668 17.9832 11.375 17.5 11.375V11.375ZM20.125 11.375C19.6418 11.375 19.25 11.7668 19.25 12.25V12.25C19.25 12.7332 19.6418 13.125 20.125 13.125V13.125C20.6082 13.125 21 12.7332 21 12.25V12.25C21 11.7668 20.6082 11.375 20.125 11.375V11.375ZM22.75 11.375C22.2668 11.375 21.875 11.7668 21.875 12.25V12.25C21.875 12.7332 22.2668 13.125 22.75 13.125V13.125C23.2332 13.125 23.625 12.7332 23.625 12.25V12.25C23.625 11.7668 23.2332 11.375 22.75 11.375V11.375ZM25.375 11.375C24.8918 11.375 24.5 11.7668 24.5 12.25V12.25C24.5 12.7332 24.8918 13.125 25.375 13.125V13.125C25.8582 13.125 26.25 12.7332 26.25 12.25V12.25C26.25 11.7668 25.8582 11.375 25.375 11.375V11.375ZM28 11.375C27.5168 11.375 27.125 11.7668 27.125 12.25V12.25C27.125 12.7332 27.5168 13.125 28 13.125V13.125C28.4832 13.125 28.875 12.7332 28.875 12.25V12.25C28.875 11.7668 28.4832 11.375 28 11.375V11.375ZM30.625 11.375C30.1418 11.375 29.75 11.7668 29.75 12.25V12.25C29.75 12.7332 30.1418 13.125 30.625 13.125V13.125C31.1082 13.125 31.5 12.7332 31.5 12.25V12.25C31.5 11.7668 31.1082 11.375 30.625 11.375V11.375ZM33.25 11.375C32.7668 11.375 32.375 11.7668 32.375 12.25V12.25C32.375 12.7332 32.7668 13.125 33.25 13.125V13.125C33.7332 13.125 34.125 12.7332 34.125 12.25V12.25C34.125 11.7668 33.7332 11.375 33.25 11.375V11.375ZM35.875 11.375C35.3918 11.375 35 11.7668 35 12.25V12.25C35 12.7332 35.3918 13.125 35.875 13.125V13.125C36.3582 13.125 36.75 12.7332 36.75 12.25V12.25C36.75 11.7668 36.3582 11.375 35.875 11.375V11.375ZM38.5 11.375C38.0168 11.375 37.625 11.7668 37.625 12.25V12.25C37.625 12.7332 38.0168 13.125 38.5 13.125V13.125C38.9832 13.125 39.375 12.7332 39.375 12.25V12.25C39.375 11.7668 38.9832 11.375 38.5 11.375V11.375ZM41.125 11.375C40.6418 11.375 40.25 11.7668 40.25 12.25V12.25C40.25 12.7332 40.6418 13.125 41.125 13.125V13.125C41.6082 13.125 42 12.7332 42 12.25V12.25C42 11.7668 41.6082 11.375 41.125 11.375V11.375ZM43.75 11.375C43.2668 11.375 42.875 11.7668 42.875 12.25V12.25C42.875 12.7332 43.2668 13.125 43.75 13.125V13.125C44.2332 13.125 44.625 12.7332 44.625 12.25V12.25C44.625 11.7668 44.2332 11.375 43.75 11.375V11.375ZM44.625 14.875C44.625 14.3918 44.2332 14 43.75 14V14C43.2668 14 42.875 14.3918 42.875 14.875V14.875C42.875 15.3582 43.2668 15.75 43.75 15.75V15.75C44.2332 15.75 44.625 15.3582 44.625 14.875V14.875ZM44.625 17.5C44.625 17.0168 44.2332 16.625 43.75 16.625V16.625C43.2668 16.625 42.875 17.0168 42.875 17.5V17.5C42.875 17.9832 43.2668 18.375 43.75 18.375V18.375C44.2332 18.375 44.625 17.9832 44.625 17.5V17.5ZM44.625 20.125C44.625 19.6418 44.2332 19.25 43.75 19.25V19.25C43.2668 19.25 42.875 19.6418 42.875 20.125V20.125C42.875 20.6082 43.2668 21 43.75 21V21C44.2332 21 44.625 20.6082 44.625 20.125V20.125ZM44.625 22.75C44.625 22.2668 44.2332 21.875 43.75 21.875V21.875C43.2668 21.875 42.875 22.2668 42.875 22.75V22.75C42.875 23.2332 43.2668 23.625 43.75 23.625V23.625C44.2332 23.625 44.625 23.2332 44.625 22.75V22.75ZM44.625 25.375C44.625 24.8918 44.2332 24.5 43.75 24.5V24.5C43.2668 24.5 42.875 24.8918 42.875 25.375V25.375C42.875 25.8582 43.2668 26.25 43.75 26.25V26.25C44.2332 26.25 44.625 25.8582 44.625 25.375V25.375ZM44.625 28C44.625 27.5168 44.2332 27.125 43.75 27.125V27.125C43.2668 27.125 42.875 27.5168 42.875 28V28C42.875 28.4832 43.2668 28.875 43.75 28.875V28.875C44.2332 28.875 44.625 28.4832 44.625 28V28ZM44.625 30.625C44.625 30.1418 44.2332 29.75 43.75 29.75V29.75C43.2668 29.75 42.875 30.1418 42.875 30.625V30.625C42.875 31.1082 43.2668 31.5 43.75 31.5V31.5C44.2332 31.5 44.625 31.1082 44.625 30.625V30.625ZM44.625 33.25C44.625 32.7668 44.2332 32.375 43.75 32.375V32.375C43.2668 32.375 42.875 32.7668 42.875 33.25V33.25C42.875 33.7332 43.2668 34.125 43.75 34.125V34.125C44.2332 34.125 44.625 33.7332 44.625 33.25V33.25ZM44.625 35.875C44.625 35.3918 44.2332 35 43.75 35V35C43.2668 35 42.875 35.3918 42.875 35.875V35.875C42.875 36.3582 43.2668 36.75 43.75 36.75V36.75C44.2332 36.75 44.625 36.3582 44.625 35.875V35.875ZM44.625 38.5C44.625 38.0168 44.2332 37.625 43.75 37.625V37.625C43.2668 37.625 42.875 38.0168 42.875 38.5V38.5C42.875 38.9832 43.2668 39.375 43.75 39.375V39.375C44.2332 39.375 44.625 38.9832 44.625 38.5V38.5ZM44.625 41.125C44.625 40.6418 44.2332 40.25 43.75 40.25V40.25C43.2668 40.25 42.875 40.6418 42.875 41.125V41.125C42.875 41.6082 43.2668 42 43.75 42V42C44.2332 42 44.625 41.6082 44.625 41.125V41.125ZM41.125 42C41.6082 42 42 41.6082 42 41.125V41.125C42 40.6418 41.6082 40.25 41.125 40.25V40.25C40.6418 40.25 40.25 40.6418 40.25 41.125V41.125C40.25 41.6082 40.6418 42 41.125 42V42ZM38.5 42C38.9832 42 39.375 41.6082 39.375 41.125V41.125C39.375 40.6418 38.9832 40.25 38.5 40.25V40.25C38.0168 40.25 37.625 40.6418 37.625 41.125V41.125C37.625 41.6082 38.0168 42 38.5 42V42ZM35.875 42C36.3582 42 36.75 41.6082 36.75 41.125V41.125C36.75 40.6418 36.3582 40.25 35.875 40.25V40.25C35.3918 40.25 35 40.6418 35 41.125V41.125C35 41.6082 35.3918 42 35.875 42V42ZM33.25 42C33.7332 42 34.125 41.6082 34.125 41.125V41.125C34.125 40.6418 33.7332 40.25 33.25 40.25V40.25C32.7668 40.25 32.375 40.6418 32.375 41.125V41.125C32.375 41.6082 32.7668 42 33.25 42V42ZM30.625 42C31.1082 42 31.5 41.6082 31.5 41.125V41.125C31.5 40.6418 31.1082 40.25 30.625 40.25V40.25C30.1418 40.25 29.75 40.6418 29.75 41.125V41.125C29.75 41.6082 30.1418 42 30.625 42V42ZM28 42C28.4832 42 28.875 41.6082 28.875 41.125V41.125C28.875 40.6418 28.4832 40.25 28 40.25V40.25C27.5168 40.25 27.125 40.6418 27.125 41.125V41.125C27.125 41.6082 27.5168 42 28 42V42ZM25.375 42C25.8582 42 26.25 41.6082 26.25 41.125V41.125C26.25 40.6418 25.8582 40.25 25.375 40.25V40.25C24.8918 40.25 24.5 40.6418 24.5 41.125V41.125C24.5 41.6082 24.8918 42 25.375 42V42ZM22.75 42C23.2332 42 23.625 41.6082 23.625 41.125V41.125C23.625 40.6418 23.2332 40.25 22.75 40.25V40.25C22.2668 40.25 21.875 40.6418 21.875 41.125V41.125C21.875 41.6082 22.2668 42 22.75 42V42ZM20.125 42C20.6082 42 21 41.6082 21 41.125V41.125C21 40.6418 20.6082 40.25 20.125 40.25V40.25C19.6418 40.25 19.25 40.6418 19.25 41.125V41.125C19.25 41.6082 19.6418 42 20.125 42V42ZM17.5 42C17.9832 42 18.375 41.6082 18.375 41.125V41.125C18.375 40.6418 17.9832 40.25 17.5 40.25V40.25C17.0168 40.25 16.625 40.6418 16.625 41.125V41.125C16.625 41.6082 17.0168 42 17.5 42V42ZM14.875 42C15.3582 42 15.75 41.6082 15.75 41.125V41.125C15.75 40.6418 15.3582 40.25 14.875 40.25V40.25C14.3918 40.25 14 40.6418 14 41.125V41.125C14 41.6082 14.3918 42 14.875 42V42ZM14 38.5C14 38.9832 14.3918 39.375 14.875 39.375V39.375C15.3582 39.375 15.75 38.9832 15.75 38.5V38.5C15.75 38.0168 15.3582 37.625 14.875 37.625V37.625C14.3918 37.625 14 38.0168 14 38.5V38.5ZM14 35.875C14 36.3582 14.3918 36.75 14.875 36.75V36.75C15.3582 36.75 15.75 36.3582 15.75 35.875V35.875C15.75 35.3918 15.3582 35 14.875 35V35C14.3918 35 14 35.3918 14 35.875V35.875ZM14 33.25C14 33.7332 14.3918 34.125 14.875 34.125V34.125C15.3582 34.125 15.75 33.7332 15.75 33.25V33.25C15.75 32.7668 15.3582 32.375 14.875 32.375V32.375C14.3918 32.375 14 32.7668 14 33.25V33.25ZM14 30.625C14 31.1082 14.3918 31.5 14.875 31.5V31.5C15.3582 31.5 15.75 31.1082 15.75 30.625V30.625C15.75 30.1418 15.3582 29.75 14.875 29.75V29.75C14.3918 29.75 14 30.1418 14 30.625V30.625ZM14 28C14 28.4832 14.3918 28.875 14.875 28.875V28.875C15.3582 28.875 15.75 28.4832 15.75 28V28C15.75 27.5168 15.3582 27.125 14.875 27.125V27.125C14.3918 27.125 14 27.5168 14 28V28ZM14 25.375C14 25.8582 14.3918 26.25 14.875 26.25V26.25C15.3582 26.25 15.75 25.8582 15.75 25.375V25.375C15.75 24.8918 15.3582 24.5 14.875 24.5V24.5C14.3918 24.5 14 24.8918 14 25.375V25.375ZM14 22.75C14 23.2332 14.3918 23.625 14.875 23.625V23.625C15.3582 23.625 15.75 23.2332 15.75 22.75V22.75C15.75 22.2668 15.3582 21.875 14.875 21.875V21.875C14.3918 21.875 14 22.2668 14 22.75V22.75ZM14 20.125C14 20.6082 14.3918 21 14.875 21V21C15.3582 21 15.75 20.6082 15.75 20.125V20.125C15.75 19.6418 15.3582 19.25 14.875 19.25V19.25C14.3918 19.25 14 19.6418 14 20.125V20.125ZM14 17.5C14 17.9832 14.3918 18.375 14.875 18.375V18.375C15.3582 18.375 15.75 17.9832 15.75 17.5V17.5C15.75 17.0168 15.3582 16.625 14.875 16.625V16.625C14.3918 16.625 14 17.0168 14 17.5V17.5ZM14 14.875C14 15.3582 14.3918 15.75 14.875 15.75V15.75C15.3582 15.75 15.75 15.3582 15.75 14.875V14.875C15.75 14.3918 15.3582 14 14.875 14V14C14.3918 14 14 14.3918 14 14.875V14.875ZM17.5 14C17.0168 14 16.625 14.3918 16.625 14.875V14.875C16.625 15.3582 17.0168 15.75 17.5 15.75V15.75C17.9832 15.75 18.375 15.3582 18.375 14.875V14.875C18.375 14.3918 17.9832 14 17.5 14V14ZM20.125 14C19.6418 14 19.25 14.3918 19.25 14.875V14.875C19.25 15.3582 19.6418 15.75 20.125 15.75V15.75C20.6082 15.75 21 15.3582 21 14.875V14.875C21 14.3918 20.6082 14 20.125 14V14ZM22.75 14C22.2668 14 21.875 14.3918 21.875 14.875V14.875C21.875 15.3582 22.2668 15.75 22.75 15.75V15.75C23.2332 15.75 23.625 15.3582 23.625 14.875V14.875C23.625 14.3918 23.2332 14 22.75 14V14ZM25.375 14C24.8918 14 24.5 14.3918 24.5 14.875V14.875C24.5 15.3582 24.8918 15.75 25.375 15.75V15.75C25.8582 15.75 26.25 15.3582 26.25 14.875V14.875C26.25 14.3918 25.8582 14 25.375 14V14ZM28 14C27.5168 14 27.125 14.3918 27.125 14.875V14.875C27.125 15.3582 27.5168 15.75 28 15.75V15.75C28.4832 15.75 28.875 15.3582 28.875 14.875V14.875C28.875 14.3918 28.4832 14 28 14V14ZM30.625 14C30.1418 14 29.75 14.3918 29.75 14.875V14.875C29.75 15.3582 30.1418 15.75 30.625 15.75V15.75C31.1082 15.75 31.5 15.3582 31.5 14.875V14.875C31.5 14.3918 31.1082 14 30.625 14V14ZM33.25 14C32.7668 14 32.375 14.3918 32.375 14.875V14.875C32.375 15.3582 32.7668 15.75 33.25 15.75V15.75C33.7332 15.75 34.125 15.3582 34.125 14.875V14.875C34.125 14.3918 33.7332 14 33.25 14V14ZM35.875 14C35.3918 14 35 14.3918 35 14.875V14.875C35 15.3582 35.3918 15.75 35.875 15.75V15.75C36.3582 15.75 36.75 15.3582 36.75 14.875V14.875C36.75 14.3918 36.3582 14 35.875 14V14ZM38.5 14C38.0168 14 37.625 14.3918 37.625 14.875V14.875C37.625 15.3582 38.0168 15.75 38.5 15.75V15.75C38.9832 15.75 39.375 15.3582 39.375 14.875V14.875C39.375 14.3918 38.9832 14 38.5 14V14ZM41.125 14C40.6418 14 40.25 14.3918 40.25 14.875V14.875C40.25 15.3582 40.6418 15.75 41.125 15.75V15.75C41.6082 15.75 42 15.3582 42 14.875V14.875C42 14.3918 41.6082 14 41.125 14V14ZM42 17.5C42 17.0168 41.6082 16.625 41.125 16.625V16.625C40.6418 16.625 40.25 17.0168 40.25 17.5V17.5C40.25 17.9832 40.6418 18.375 41.125 18.375V18.375C41.6082 18.375 42 17.9832 42 17.5V17.5ZM42 20.125C42 19.6418 41.6082 19.25 41.125 19.25V19.25C40.6418 19.25 40.25 19.6418 40.25 20.125V20.125C40.25 20.6082 40.6418 21 41.125 21V21C41.6082 21 42 20.6082 42 20.125V20.125ZM42 22.75C42 22.2668 41.6082 21.875 41.125 21.875V21.875C40.6418 21.875 40.25 22.2668 40.25 22.75V22.75C40.25 23.2332 40.6418 23.625 41.125 23.625V23.625C41.6082 23.625 42 23.2332 42 22.75V22.75ZM42 25.375C42 24.8918 41.6082 24.5 41.125 24.5V24.5C40.6418 24.5 40.25 24.8918 40.25 25.375V25.375C40.25 25.8582 40.6418 26.25 41.125 26.25V26.25C41.6082 26.25 42 25.8582 42 25.375V25.375ZM42 28C42 27.5168 41.6082 27.125 41.125 27.125V27.125C40.6418 27.125 40.25 27.5168 40.25 28V28C40.25 28.4832 40.6418 28.875 41.125 28.875V28.875C41.6082 28.875 42 28.4832 42 28V28ZM42 30.625C42 30.1418 41.6082 29.75 41.125 29.75V29.75C40.6418 29.75 40.25 30.1418 40.25 30.625V30.625C40.25 31.1082 40.6418 31.5 41.125 31.5V31.5C41.6082 31.5 42 31.1082 42 30.625V30.625ZM42 33.25C42 32.7668 41.6082 32.375 41.125 32.375V32.375C40.6418 32.375 40.25 32.7668 40.25 33.25V33.25C40.25 33.7332 40.6418 34.125 41.125 34.125V34.125C41.6082 34.125 42 33.7332 42 33.25V33.25ZM42 35.875C42 35.3918 41.6082 35 41.125 35V35C40.6418 35 40.25 35.3918 40.25 35.875V35.875C40.25 36.3582 40.6418 36.75 41.125 36.75V36.75C41.6082 36.75 42 36.3582 42 35.875V35.875ZM42 38.5C42 38.0168 41.6082 37.625 41.125 37.625V37.625C40.6418 37.625 40.25 38.0168 40.25 38.5V38.5C40.25 38.9832 40.6418 39.375 41.125 39.375V39.375C41.6082 39.375 42 38.9832 42 38.5V38.5ZM38.5 39.375C38.9832 39.375 39.375 38.9832 39.375 38.5V38.5C39.375 38.0168 38.9832 37.625 38.5 37.625V37.625C38.0168 37.625 37.625 38.0168 37.625 38.5V38.5C37.625 38.9832 38.0168 39.375 38.5 39.375V39.375ZM35.875 39.375C36.3582 39.375 36.75 38.9832 36.75 38.5V38.5C36.75 38.0168 36.3582 37.625 35.875 37.625V37.625C35.3918 37.625 35 38.0168 35 38.5V38.5C35 38.9832 35.3918 39.375 35.875 39.375V39.375ZM33.25 39.375C33.7332 39.375 34.125 38.9832 34.125 38.5V38.5C34.125 38.0168 33.7332 37.625 33.25 37.625V37.625C32.7668 37.625 32.375 38.0168 32.375 38.5V38.5C32.375 38.9832 32.7668 39.375 33.25 39.375V39.375ZM30.625 39.375C31.1082 39.375 31.5 38.9832 31.5 38.5V38.5C31.5 38.0168 31.1082 37.625 30.625 37.625V37.625C30.1418 37.625 29.75 38.0168 29.75 38.5V38.5C29.75 38.9832 30.1418 39.375 30.625 39.375V39.375ZM28 39.375C28.4832 39.375 28.875 38.9832 28.875 38.5V38.5C28.875 38.0168 28.4832 37.625 28 37.625V37.625C27.5168 37.625 27.125 38.0168 27.125 38.5V38.5C27.125 38.9832 27.5168 39.375 28 39.375V39.375ZM25.375 39.375C25.8582 39.375 26.25 38.9832 26.25 38.5V38.5C26.25 38.0168 25.8582 37.625 25.375 37.625V37.625C24.8918 37.625 24.5 38.0168 24.5 38.5V38.5C24.5 38.9832 24.8918 39.375 25.375 39.375V39.375ZM22.75 39.375C23.2332 39.375 23.625 38.9832 23.625 38.5V38.5C23.625 38.0168 23.2332 37.625 22.75 37.625V37.625C22.2668 37.625 21.875 38.0168 21.875 38.5V38.5C21.875 38.9832 22.2668 39.375 22.75 39.375V39.375ZM20.125 39.375C20.6082 39.375 21 38.9832 21 38.5V38.5C21 38.0168 20.6082 37.625 20.125 37.625V37.625C19.6418 37.625 19.25 38.0168 19.25 38.5V38.5C19.25 38.9832 19.6418 39.375 20.125 39.375V39.375ZM17.5 39.375C17.9832 39.375 18.375 38.9832 18.375 38.5V38.5C18.375 38.0168 17.9832 37.625 17.5 37.625V37.625C17.0168 37.625 16.625 38.0168 16.625 38.5V38.5C16.625 38.9832 17.0168 39.375 17.5 39.375V39.375ZM16.625 35.875C16.625 36.3582 17.0168 36.75 17.5 36.75V36.75C17.9832 36.75 18.375 36.3582 18.375 35.875V35.875C18.375 35.3918 17.9832 35 17.5 35V35C17.0168 35 16.625 35.3918 16.625 35.875V35.875ZM16.625 33.25C16.625 33.7332 17.0168 34.125 17.5 34.125V34.125C17.9832 34.125 18.375 33.7332 18.375 33.25V33.25C18.375 32.7668 17.9832 32.375 17.5 32.375V32.375C17.0168 32.375 16.625 32.7668 16.625 33.25V33.25ZM16.625 30.625C16.625 31.1082 17.0168 31.5 17.5 31.5V31.5C17.9832 31.5 18.375 31.1082 18.375 30.625V30.625C18.375 30.1418 17.9832 29.75 17.5 29.75V29.75C17.0168 29.75 16.625 30.1418 16.625 30.625V30.625ZM16.625 28C16.625 28.4832 17.0168 28.875 17.5 28.875V28.875C17.9832 28.875 18.375 28.4832 18.375 28V28C18.375 27.5168 17.9832 27.125 17.5 27.125V27.125C17.0168 27.125 16.625 27.5168 16.625 28V28ZM16.625 25.375C16.625 25.8582 17.0168 26.25 17.5 26.25V26.25C17.9832 26.25 18.375 25.8582 18.375 25.375V25.375C18.375 24.8918 17.9832 24.5 17.5 24.5V24.5C17.0168 24.5 16.625 24.8918 16.625 25.375V25.375ZM16.625 22.75C16.625 23.2332 17.0168 23.625 17.5 23.625V23.625C17.9832 23.625 18.375 23.2332 18.375 22.75V22.75C18.375 22.2668 17.9832 21.875 17.5 21.875V21.875C17.0168 21.875 16.625 22.2668 16.625 22.75V22.75ZM16.625 20.125C16.625 20.6082 17.0168 21 17.5 21V21C17.9832 21 18.375 20.6082 18.375 20.125V20.125C18.375 19.6418 17.9832 19.25 17.5 19.25V19.25C17.0168 19.25 16.625 19.6418 16.625 20.125V20.125ZM16.625 17.5C16.625 17.9832 17.0168 18.375 17.5 18.375V18.375C17.9832 18.375 18.375 17.9832 18.375 17.5V17.5C18.375 17.0168 17.9832 16.625 17.5 16.625V16.625C17.0168 16.625 16.625 17.0168 16.625 17.5V17.5ZM20.125 16.625C19.6418 16.625 19.25 17.0168 19.25 17.5V17.5C19.25 17.9832 19.6418 18.375 20.125 18.375V18.375C20.6082 18.375 21 17.9832 21 17.5V17.5C21 17.0168 20.6082 16.625 20.125 16.625V16.625ZM22.75 16.625C22.2668 16.625 21.875 17.0168 21.875 17.5V17.5C21.875 17.9832 22.2668 18.375 22.75 18.375V18.375C23.2332 18.375 23.625 17.9832 23.625 17.5V17.5C23.625 17.0168 23.2332 16.625 22.75 16.625V16.625ZM25.375 16.625C24.8918 16.625 24.5 17.0168 24.5 17.5V17.5C24.5 17.9832 24.8918 18.375 25.375 18.375V18.375C25.8582 18.375 26.25 17.9832 26.25 17.5V17.5C26.25 17.0168 25.8582 16.625 25.375 16.625V16.625ZM28 16.625C27.5168 16.625 27.125 17.0168 27.125 17.5V17.5C27.125 17.9832 27.5168 18.375 28 18.375V18.375C28.4832 18.375 28.875 17.9832 28.875 17.5V17.5C28.875 17.0168 28.4832 16.625 28 16.625V16.625ZM30.625 16.625C30.1418 16.625 29.75 17.0168 29.75 17.5V17.5C29.75 17.9832 30.1418 18.375 30.625 18.375V18.375C31.1082 18.375 31.5 17.9832 31.5 17.5V17.5C31.5 17.0168 31.1082 16.625 30.625 16.625V16.625ZM33.25 16.625C32.7668 16.625 32.375 17.0168 32.375 17.5V17.5C32.375 17.9832 32.7668 18.375 33.25 18.375V18.375C33.7332 18.375 34.125 17.9832 34.125 17.5V17.5C34.125 17.0168 33.7332 16.625 33.25 16.625V16.625ZM35.875 16.625C35.3918 16.625 35 17.0168 35 17.5V17.5C35 17.9832 35.3918 18.375 35.875 18.375V18.375C36.3582 18.375 36.75 17.9832 36.75 17.5V17.5C36.75 17.0168 36.3582 16.625 35.875 16.625V16.625ZM38.5 16.625C38.0168 16.625 37.625 17.0168 37.625 17.5V17.5C37.625 17.9832 38.0168 18.375 38.5 18.375V18.375C38.9832 18.375 39.375 17.9832 39.375 17.5V17.5C39.375 17.0168 38.9832 16.625 38.5 16.625V16.625ZM39.375 20.125C39.375 19.6418 38.9832 19.25 38.5 19.25V19.25C38.0168 19.25 37.625 19.6418 37.625 20.125V20.125C37.625 20.6082 38.0168 21 38.5 21V21C38.9832 21 39.375 20.6082 39.375 20.125V20.125ZM39.375 22.75C39.375 22.2668 38.9832 21.875 38.5 21.875V21.875C38.0168 21.875 37.625 22.2668 37.625 22.75V22.75C37.625 23.2332 38.0168 23.625 38.5 23.625V23.625C38.9832 23.625 39.375 23.2332 39.375 22.75V22.75ZM39.375 25.375C39.375 24.8918 38.9832 24.5 38.5 24.5V24.5C38.0168 24.5 37.625 24.8918 37.625 25.375V25.375C37.625 25.8582 38.0168 26.25 38.5 26.25V26.25C38.9832 26.25 39.375 25.8582 39.375 25.375V25.375ZM39.375 28C39.375 27.5168 38.9832 27.125 38.5 27.125V27.125C38.0168 27.125 37.625 27.5168 37.625 28V28C37.625 28.4832 38.0168 28.875 38.5 28.875V28.875C38.9832 28.875 39.375 28.4832 39.375 28V28ZM39.375 30.625C39.375 30.1418 38.9832 29.75 38.5 29.75V29.75C38.0168 29.75 37.625 30.1418 37.625 30.625V30.625C37.625 31.1082 38.0168 31.5 38.5 31.5V31.5C38.9832 31.5 39.375 31.1082 39.375 30.625V30.625ZM39.375 33.25C39.375 32.7668 38.9832 32.375 38.5 32.375V32.375C38.0168 32.375 37.625 32.7668 37.625 33.25V33.25C37.625 33.7332 38.0168 34.125 38.5 34.125V34.125C38.9832 34.125 39.375 33.7332 39.375 33.25V33.25ZM39.375 35.875C39.375 35.3918 38.9832 35 38.5 35V35C38.0168 35 37.625 35.3918 37.625 35.875V35.875C37.625 36.3582 38.0168 36.75 38.5 36.75V36.75C38.9832 36.75 39.375 36.3582 39.375 35.875V35.875ZM35.875 36.75C36.3582 36.75 36.75 36.3582 36.75 35.875V35.875C36.75 35.3918 36.3582 35 35.875 35V35C35.3918 35 35 35.3918 35 35.875V35.875C35 36.3582 35.3918 36.75 35.875 36.75V36.75ZM33.25 36.75C33.7332 36.75 34.125 36.3582 34.125 35.875V35.875C34.125 35.3918 33.7332 35 33.25 35V35C32.7668 35 32.375 35.3918 32.375 35.875V35.875C32.375 36.3582 32.7668 36.75 33.25 36.75V36.75ZM30.625 36.75C31.1082 36.75 31.5 36.3582 31.5 35.875V35.875C31.5 35.3918 31.1082 35 30.625 35V35C30.1418 35 29.75 35.3918 29.75 35.875V35.875C29.75 36.3582 30.1418 36.75 30.625 36.75V36.75ZM28 36.75C28.4832 36.75 28.875 36.3582 28.875 35.875V35.875C28.875 35.3918 28.4832 35 28 35V35C27.5168 35 27.125 35.3918 27.125 35.875V35.875C27.125 36.3582 27.5168 36.75 28 36.75V36.75ZM25.375 36.75C25.8582 36.75 26.25 36.3582 26.25 35.875V35.875C26.25 35.3918 25.8582 35 25.375 35V35C24.8918 35 24.5 35.3918 24.5 35.875V35.875C24.5 36.3582 24.8918 36.75 25.375 36.75V36.75ZM22.75 36.75C23.2332 36.75 23.625 36.3582 23.625 35.875V35.875C23.625 35.3918 23.2332 35 22.75 35V35C22.2668 35 21.875 35.3918 21.875 35.875V35.875C21.875 36.3582 22.2668 36.75 22.75 36.75V36.75ZM20.125 36.75C20.6082 36.75 21 36.3582 21 35.875V35.875C21 35.3918 20.6082 35 20.125 35V35C19.6418 35 19.25 35.3918 19.25 35.875V35.875C19.25 36.3582 19.6418 36.75 20.125 36.75V36.75ZM19.25 33.25C19.25 33.7332 19.6418 34.125 20.125 34.125V34.125C20.6082 34.125 21 33.7332 21 33.25V33.25C21 32.7668 20.6082 32.375 20.125 32.375V32.375C19.6418 32.375 19.25 32.7668 19.25 33.25V33.25ZM19.25 30.625C19.25 31.1082 19.6418 31.5 20.125 31.5V31.5C20.6082 31.5 21 31.1082 21 30.625V30.625C21 30.1418 20.6082 29.75 20.125 29.75V29.75C19.6418 29.75 19.25 30.1418 19.25 30.625V30.625ZM19.25 28C19.25 28.4832 19.6418 28.875 20.125 28.875V28.875C20.6082 28.875 21 28.4832 21 28V28C21 27.5168 20.6082 27.125 20.125 27.125V27.125C19.6418 27.125 19.25 27.5168 19.25 28V28ZM19.25 25.375C19.25 25.8582 19.6418 26.25 20.125 26.25V26.25C20.6082 26.25 21 25.8582 21 25.375V25.375C21 24.8918 20.6082 24.5 20.125 24.5V24.5C19.6418 24.5 19.25 24.8918 19.25 25.375V25.375ZM19.25 22.75C19.25 23.2332 19.6418 23.625 20.125 23.625V23.625C20.6082 23.625 21 23.2332 21 22.75V22.75C21 22.2668 20.6082 21.875 20.125 21.875V21.875C19.6418 21.875 19.25 22.2668 19.25 22.75V22.75ZM19.25 20.125C19.25 20.6082 19.6418 21 20.125 21V21C20.6082 21 21 20.6082 21 20.125V20.125C21 19.6418 20.6082 19.25 20.125 19.25V19.25C19.6418 19.25 19.25 19.6418 19.25 20.125V20.125ZM22.75 19.25C22.2668 19.25 21.875 19.6418 21.875 20.125V20.125C21.875 20.6082 22.2668 21 22.75 21V21C23.2332 21 23.625 20.6082 23.625 20.125V20.125C23.625 19.6418 23.2332 19.25 22.75 19.25V19.25ZM25.375 19.25C24.8918 19.25 24.5 19.6418 24.5 20.125V20.125C24.5 20.6082 24.8918 21 25.375 21V21C25.8582 21 26.25 20.6082 26.25 20.125V20.125C26.25 19.6418 25.8582 19.25 25.375 19.25V19.25ZM28 19.25C27.5168 19.25 27.125 19.6418 27.125 20.125V20.125C27.125 20.6082 27.5168 21 28 21V21C28.4832 21 28.875 20.6082 28.875 20.125V20.125C28.875 19.6418 28.4832 19.25 28 19.25V19.25ZM30.625 19.25C30.1418 19.25 29.75 19.6418 29.75 20.125V20.125C29.75 20.6082 30.1418 21 30.625 21V21C31.1082 21 31.5 20.6082 31.5 20.125V20.125C31.5 19.6418 31.1082 19.25 30.625 19.25V19.25ZM33.25 19.25C32.7668 19.25 32.375 19.6418 32.375 20.125V20.125C32.375 20.6082 32.7668 21 33.25 21V21C33.7332 21 34.125 20.6082 34.125 20.125V20.125C34.125 19.6418 33.7332 19.25 33.25 19.25V19.25ZM35.875 19.25C35.3918 19.25 35 19.6418 35 20.125V20.125C35 20.6082 35.3918 21 35.875 21V21C36.3582 21 36.75 20.6082 36.75 20.125V20.125C36.75 19.6418 36.3582 19.25 35.875 19.25V19.25ZM36.75 22.75C36.75 22.2668 36.3582 21.875 35.875 21.875V21.875C35.3918 21.875 35 22.2668 35 22.75V22.75C35 23.2332 35.3918 23.625 35.875 23.625V23.625C36.3582 23.625 36.75 23.2332 36.75 22.75V22.75ZM36.75 25.375C36.75 24.8918 36.3582 24.5 35.875 24.5V24.5C35.3918 24.5 35 24.8918 35 25.375V25.375C35 25.8582 35.3918 26.25 35.875 26.25V26.25C36.3582 26.25 36.75 25.8582 36.75 25.375V25.375ZM36.75 28C36.75 27.5168 36.3582 27.125 35.875 27.125V27.125C35.3918 27.125 35 27.5168 35 28V28C35 28.4832 35.3918 28.875 35.875 28.875V28.875C36.3582 28.875 36.75 28.4832 36.75 28V28ZM36.75 30.625C36.75 30.1418 36.3582 29.75 35.875 29.75V29.75C35.3918 29.75 35 30.1418 35 30.625V30.625C35 31.1082 35.3918 31.5 35.875 31.5V31.5C36.3582 31.5 36.75 31.1082 36.75 30.625V30.625ZM36.75 33.25C36.75 32.7668 36.3582 32.375 35.875 32.375V32.375C35.3918 32.375 35 32.7668 35 33.25V33.25C35 33.7332 35.3918 34.125 35.875 34.125V34.125C36.3582 34.125 36.75 33.7332 36.75 33.25V33.25ZM33.25 34.125C33.7332 34.125 34.125 33.7332 34.125 33.25V33.25C34.125 32.7668 33.7332 32.375 33.25 32.375V32.375C32.7668 32.375 32.375 32.7668 32.375 33.25V33.25C32.375 33.7332 32.7668 34.125 33.25 34.125V34.125ZM30.625 34.125C31.1082 34.125 31.5 33.7332 31.5 33.25V33.25C31.5 32.7668 31.1082 32.375 30.625 32.375V32.375C30.1418 32.375 29.75 32.7668 29.75 33.25V33.25C29.75 33.7332 30.1418 34.125 30.625 34.125V34.125ZM28 34.125C28.4832 34.125 28.875 33.7332 28.875 33.25V33.25C28.875 32.7668 28.4832 32.375 28 32.375V32.375C27.5168 32.375 27.125 32.7668 27.125 33.25V33.25C27.125 33.7332 27.5168 34.125 28 34.125V34.125ZM25.375 34.125C25.8582 34.125 26.25 33.7332 26.25 33.25V33.25C26.25 32.7668 25.8582 32.375 25.375 32.375V32.375C24.8918 32.375 24.5 32.7668 24.5 33.25V33.25C24.5 33.7332 24.8918 34.125 25.375 34.125V34.125ZM22.75 34.125C23.2332 34.125 23.625 33.7332 23.625 33.25V33.25C23.625 32.7668 23.2332 32.375 22.75 32.375V32.375C22.2668 32.375 21.875 32.7668 21.875 33.25V33.25C21.875 33.7332 22.2668 34.125 22.75 34.125V34.125ZM21.875 30.625C21.875 31.1082 22.2668 31.5 22.75 31.5V31.5C23.2332 31.5 23.625 31.1082 23.625 30.625V30.625C23.625 30.1418 23.2332 29.75 22.75 29.75V29.75C22.2668 29.75 21.875 30.1418 21.875 30.625V30.625ZM21.875 28C21.875 28.4832 22.2668 28.875 22.75 28.875V28.875C23.2332 28.875 23.625 28.4832 23.625 28V28C23.625 27.5168 23.2332 27.125 22.75 27.125V27.125C22.2668 27.125 21.875 27.5168 21.875 28V28ZM21.875 25.375C21.875 25.8582 22.2668 26.25 22.75 26.25V26.25C23.2332 26.25 23.625 25.8582 23.625 25.375V25.375C23.625 24.8918 23.2332 24.5 22.75 24.5V24.5C22.2668 24.5 21.875 24.8918 21.875 25.375V25.375ZM21.875 22.75C21.875 23.2332 22.2668 23.625 22.75 23.625V23.625C23.2332 23.625 23.625 23.2332 23.625 22.75V22.75C23.625 22.2668 23.2332 21.875 22.75 21.875V21.875C22.2668 21.875 21.875 22.2668 21.875 22.75V22.75ZM25.375 21.875C24.8918 21.875 24.5 22.2668 24.5 22.75V22.75C24.5 23.2332 24.8918 23.625 25.375 23.625V23.625C25.8582 23.625 26.25 23.2332 26.25 22.75V22.75C26.25 22.2668 25.8582 21.875 25.375 21.875V21.875ZM28 21.875C27.5168 21.875 27.125 22.2668 27.125 22.75V22.75C27.125 23.2332 27.5168 23.625 28 23.625V23.625C28.4832 23.625 28.875 23.2332 28.875 22.75V22.75C28.875 22.2668 28.4832 21.875 28 21.875V21.875ZM30.625 21.875C30.1418 21.875 29.75 22.2668 29.75 22.75V22.75C29.75 23.2332 30.1418 23.625 30.625 23.625V23.625C31.1082 23.625 31.5 23.2332 31.5 22.75V22.75C31.5 22.2668 31.1082 21.875 30.625 21.875V21.875ZM33.25 21.875C32.7668 21.875 32.375 22.2668 32.375 22.75V22.75C32.375 23.2332 32.7668 23.625 33.25 23.625V23.625C33.7332 23.625 34.125 23.2332 34.125 22.75V22.75C34.125 22.2668 33.7332 21.875 33.25 21.875V21.875ZM34.125 25.375C34.125 24.8918 33.7332 24.5 33.25 24.5V24.5C32.7668 24.5 32.375 24.8918 32.375 25.375V25.375C32.375 25.8582 32.7668 26.25 33.25 26.25V26.25C33.7332 26.25 34.125 25.8582 34.125 25.375V25.375ZM34.125 28C34.125 27.5168 33.7332 27.125 33.25 27.125V27.125C32.7668 27.125 32.375 27.5168 32.375 28V28C32.375 28.4832 32.7668 28.875 33.25 28.875V28.875C33.7332 28.875 34.125 28.4832 34.125 28V28ZM34.125 30.625C34.125 30.1418 33.7332 29.75 33.25 29.75V29.75C32.7668 29.75 32.375 30.1418 32.375 30.625V30.625C32.375 31.1082 32.7668 31.5 33.25 31.5V31.5C33.7332 31.5 34.125 31.1082 34.125 30.625V30.625ZM30.625 31.5C31.1082 31.5 31.5 31.1082 31.5 30.625V30.625C31.5 30.1418 31.1082 29.75 30.625 29.75V29.75C30.1418 29.75 29.75 30.1418 29.75 30.625V30.625C29.75 31.1082 30.1418 31.5 30.625 31.5V31.5ZM28 31.5C28.4832 31.5 28.875 31.1082 28.875 30.625V30.625C28.875 30.1418 28.4832 29.75 28 29.75V29.75C27.5168 29.75 27.125 30.1418 27.125 30.625V30.625C27.125 31.1082 27.5168 31.5 28 31.5V31.5ZM25.375 31.5C25.8582 31.5 26.25 31.1082 26.25 30.625V30.625C26.25 30.1418 25.8582 29.75 25.375 29.75V29.75C24.8918 29.75 24.5 30.1418 24.5 30.625V30.625C24.5 31.1082 24.8918 31.5 25.375 31.5V31.5ZM24.5 28C24.5 28.4832 24.8918 28.875 25.375 28.875V28.875C25.8582 28.875 26.25 28.4832 26.25 28V28C26.25 27.5168 25.8582 27.125 25.375 27.125V27.125C24.8918 27.125 24.5 27.5168 24.5 28V28ZM24.5 25.375C24.5 25.8582 24.8918 26.25 25.375 26.25V26.25C25.8582 26.25 26.25 25.8582 26.25 25.375V25.375C26.25 24.8918 25.8582 24.5 25.375 24.5V24.5C24.8918 24.5 24.5 24.8918 24.5 25.375V25.375ZM28 24.5C27.5168 24.5 27.125 24.8918 27.125 25.375V25.375C27.125 25.8582 27.5168 26.25 28 26.25V26.25C28.4832 26.25 28.875 25.8582 28.875 25.375V25.375C28.875 24.8918 28.4832 24.5 28 24.5V24.5ZM30.625 24.5C30.1418 24.5 29.75 24.8918 29.75 25.375V25.375C29.75 25.8582 30.1418 26.25 30.625 26.25V26.25C31.1082 26.25 31.5 25.8582 31.5 25.375V25.375C31.5 24.8918 31.1082 24.5 30.625 24.5V24.5ZM31.5 28C31.5 27.5168 31.1082 27.125 30.625 27.125V27.125C30.1418 27.125 29.75 27.5168 29.75 28V28C29.75 28.4832 30.1418 28.875 30.625 28.875V28.875C31.1082 28.875 31.5 28.4832 31.5 28V28ZM28 28.875C28.4832 28.875 28.875 28.4832 28.875 28V28C28.875 27.5168 28.4832 27.125 28 27.125V27.125C27.5168 27.125 27.125 27.5168 27.125 28V28C27.125 28.4832 27.5168 28.875 28 28.875V28.875Z" fill="#BAC8D3"/>
</g>
<path d="M10.5 48.125H23.59V37.3229H31.9982C42.0831 37.3229 49 31.7341 49 20.7066C49 14.2029 45.0245 5.25 33.1097 5.25H10.5V48.125ZM23.59 15.8846H34.1385V27.0043H23.59V15.8846Z" fill="#003553"/>
</svg>
