<svg width="56" height="56" viewBox="0 0 56 56" fill="none" xmlns="http://www.w3.org/2000/svg">
<mask id="mask0" mask-type="alpha" maskUnits="userSpaceOnUse" x="0" y="0" width="56" height="56">
<rect width="56" height="56" rx="20" fill="#C4C4C4"/>
</mask>
<g mask="url(#mask0)">
<path fill-rule="evenodd" clip-rule="evenodd" d="M53.375 55.125H55.125V53.375H53.375V55.125ZM52.5 55.125V53.375H50.75V55.125H52.5ZM49.875 55.125V53.375H48.125V55.125H49.875ZM47.25 55.125V53.375H45.5V55.125H47.25ZM44.625 55.125V53.375H42.875V55.125H44.625ZM42 55.125V53.375H40.25V55.125H42ZM39.375 55.125V53.375H37.625V55.125H39.375ZM36.75 55.125V53.375H35V55.125H36.75ZM34.125 55.125V53.375H32.375V55.125H34.125ZM31.5 55.125V53.375H29.75V55.125H31.5ZM28.875 55.125V53.375H27.125V55.125H28.875ZM26.25 55.125V53.375H24.5V55.125H26.25ZM23.625 55.125V53.375H21.875V55.125H23.625ZM21 55.125V53.375H19.25V55.125H21ZM18.375 55.125V53.375H16.625V55.125H18.375ZM15.75 55.125V53.375H14V55.125H15.75ZM13.125 55.125V53.375H11.375V55.125H13.125ZM10.5 55.125V53.375H8.75V55.125H10.5ZM7.875 55.125V53.375H6.125V55.125H7.875ZM5.25 55.125V53.375H3.5V55.125H5.25ZM2.625 55.125V53.375H0.875L0.875 55.125H2.625ZM0 56L0 56H56V55.125V53.375V52.5V50.75V49.875L56 48.125V47.25V45.5V44.625V42.875V42V40.25V39.375V37.625V36.75V35V34.125V32.375V31.5V29.75V28.875V27.125V26.25V24.5V23.625V21.875V21V19.25V18.375V16.625V15.75V14V13.125V11.375V10.5V8.75V7.875V6.125V5.25V3.5V2.625V0.875V0L55.125 -3.8147e-06H53.375H52.5H50.75H49.875H48.125H47.25H45.5H44.625H42.875H42H40.25H39.375H37.625H36.75H35H34.125H32.375H31.5H29.75H28.875H27.125H26.25H24.5H23.625H21.875H21H19.25H18.375H16.625H15.75H14H13.125H11.375H10.5H8.75H7.875H6.125H5.25H3.5H2.625L0.875 -7.62939e-06L0 0L0 0.875L0 2.625L0 3.5L0 5.25L0 6.125L0 7.875L0 8.75L0 10.5L0 11.375L0 13.125L0 14L0 15.75L0 16.625L0 18.375L0 19.25L0 21L0 21.875L0 23.625L0 24.5L0 26.25L0 27.125L0 28.875L0 29.75L0 31.5L0 32.375L0 34.125L0 35L0 36.75L0 37.625L0 39.375L0 40.25L0 42L0 42.875L0 44.625L0 45.5L0 47.25L0 48.125L0 49.875L0 50.75L0 52.5L0 53.375L0 55.125L0 56ZM0.875 52.5H2.625L2.625 50.75H0.875L0.875 52.5ZM0.875 49.875H2.625V48.125H0.875L0.875 49.875ZM0.875 47.25H2.625V45.5H0.875L0.875 47.25ZM0.875 44.625H2.625V42.875H0.875L0.875 44.625ZM0.875 42H2.625V40.25H0.875L0.875 42ZM0.875 39.375H2.625L2.625 37.625H0.875L0.875 39.375ZM0.875 36.75H2.625V35H0.875L0.875 36.75ZM0.875 34.125H2.625V32.375H0.875L0.875 34.125ZM0.875 31.5H2.625L2.625 29.75H0.875V31.5ZM0.875 28.875H2.625V27.125H0.875L0.875 28.875ZM0.875 26.25H2.625V24.5H0.875L0.875 26.25ZM0.875 23.625H2.625L2.625 21.875H0.875L0.875 23.625ZM0.875 21H2.625V19.25H0.875L0.875 21ZM0.875 18.375H2.625V16.625H0.875L0.875 18.375ZM0.875 15.75H2.625V14H0.875L0.875 15.75ZM0.875 13.125H2.625V11.375H0.875L0.875 13.125ZM0.875 10.5H2.625L2.625 8.75H0.875L0.875 10.5ZM0.875 7.875H2.625V6.125H0.875L0.875 7.875ZM0.875 5.25H2.625V3.5H0.875L0.875 5.25ZM0.875 2.625H2.625L2.625 0.875H0.875L0.875 2.625ZM3.5 0.875L3.5 2.625H5.25V0.875H3.5ZM6.125 0.875V2.625H7.875V0.875H6.125ZM8.75 0.875V2.625H10.5V0.875H8.75ZM11.375 0.875V2.625H13.125V0.875H11.375ZM14 0.875V2.625H15.75V0.875H14ZM16.625 0.875V2.625H18.375V0.875H16.625ZM19.25 0.875V2.625H21V0.875H19.25ZM21.875 0.875V2.625H23.625V0.875H21.875ZM24.5 0.875V2.625H26.25V0.875H24.5ZM27.125 0.875V2.625H28.875V0.875H27.125ZM29.75 0.875V2.625H31.5V0.875H29.75ZM32.375 0.875V2.625H34.125V0.875H32.375ZM35 0.875V2.625H36.75V0.875H35ZM37.625 0.875V2.625H39.375V0.875H37.625ZM40.25 0.875V2.625H42V0.875H40.25ZM42.875 0.875V2.625H44.625V0.875H42.875ZM45.5 0.875V2.625H47.25V0.875H45.5ZM48.125 0.875V2.625H49.875V0.875H48.125ZM50.75 0.875V2.625H52.5V0.875H50.75ZM53.375 0.875V2.625H55.125V0.875H53.375ZM55.125 3.5H53.375V5.25H55.125V3.5ZM55.125 6.125H53.375V7.875H55.125V6.125ZM55.125 8.75H53.375V10.5H55.125V8.75ZM55.125 11.375H53.375V13.125H55.125V11.375ZM55.125 14H53.375V15.75H55.125V14ZM55.125 16.625H53.375V18.375H55.125V16.625ZM55.125 19.25H53.375V21H55.125V19.25ZM55.125 21.875H53.375V23.625H55.125V21.875ZM55.125 24.5H53.375V26.25H55.125V24.5ZM55.125 27.125H53.375V28.875H55.125V27.125ZM55.125 29.75H53.375V31.5H55.125V29.75ZM55.125 32.375H53.375V34.125H55.125V32.375ZM55.125 35H53.375V36.75H55.125V35ZM55.125 37.625H53.375V39.375H55.125V37.625ZM55.125 40.25H53.375V42H55.125V40.25ZM55.125 42.875H53.375V44.625H55.125V42.875ZM55.125 45.5H53.375V47.25H55.125V45.5ZM55.125 48.125H53.375L53.375 49.875H55.125L55.125 48.125ZM55.125 50.75H53.375V52.5H55.125V50.75ZM52.5 52.5V50.75H50.75V52.5H52.5ZM49.875 52.5V50.75H48.125V52.5H49.875ZM47.25 52.5V50.75H45.5V52.5H47.25ZM44.625 52.5V50.75H42.875V52.5H44.625ZM42 52.5V50.75H40.25V52.5H42ZM39.375 52.5V50.75H37.625V52.5H39.375ZM36.75 52.5V50.75H35V52.5H36.75ZM34.125 52.5V50.75H32.375V52.5H34.125ZM31.5 52.5V50.75H29.75V52.5H31.5ZM28.875 52.5V50.75H27.125V52.5H28.875ZM26.25 52.5V50.75H24.5V52.5H26.25ZM23.625 52.5V50.75H21.875V52.5H23.625ZM21 52.5V50.75H19.25V52.5H21ZM18.375 52.5V50.75H16.625V52.5H18.375ZM15.75 52.5V50.75H14V52.5H15.75ZM13.125 52.5V50.75H11.375V52.5H13.125ZM10.5 52.5V50.75H8.75V52.5H10.5ZM7.875 52.5V50.75H6.125V52.5H7.875ZM5.25 52.5V50.75H3.5L3.5 52.5H5.25ZM3.5 49.875H5.25L5.25 48.125H3.5V49.875ZM3.5 47.25H5.25V45.5H3.5V47.25ZM3.5 44.625H5.25V42.875H3.5V44.625ZM3.5 42H5.25V40.25H3.5V42ZM3.5 39.375H5.25V37.625H3.5L3.5 39.375ZM3.5 36.75H5.25V35H3.5V36.75ZM3.5 34.125H5.25V32.375H3.5V34.125ZM3.5 31.5H5.25V29.75H3.5L3.5 31.5ZM3.5 28.875H5.25V27.125H3.5V28.875ZM3.5 26.25H5.25V24.5H3.5V26.25ZM3.5 23.625H5.25V21.875H3.5L3.5 23.625ZM3.5 21H5.25L5.25 19.25H3.5V21ZM3.5 18.375H5.25V16.625H3.5V18.375ZM3.5 15.75H5.25V14H3.5V15.75ZM3.5 13.125H5.25V11.375H3.5V13.125ZM3.5 10.5H5.25V8.75H3.5L3.5 10.5ZM3.5 7.875H5.25V6.125H3.5V7.875ZM3.5 5.25H5.25L5.25 3.5H3.5V5.25ZM6.125 3.5L6.125 5.25H7.875L7.875 3.5H6.125ZM8.75 3.5V5.25H10.5V3.5H8.75ZM11.375 3.5V5.25H13.125V3.5H11.375ZM14 3.5V5.25H15.75V3.5H14ZM16.625 3.5V5.25H18.375V3.5H16.625ZM19.25 3.5V5.25H21V3.5H19.25ZM21.875 3.5V5.25H23.625V3.5H21.875ZM24.5 3.5V5.25H26.25V3.5H24.5ZM27.125 3.5V5.25H28.875V3.5H27.125ZM29.75 3.5V5.25H31.5V3.5H29.75ZM32.375 3.5V5.25H34.125V3.5H32.375ZM35 3.5V5.25H36.75V3.5H35ZM37.625 3.5V5.25H39.375V3.5H37.625ZM40.25 3.5V5.25H42V3.5H40.25ZM42.875 3.5V5.25H44.625V3.5H42.875ZM45.5 3.5V5.25H47.25V3.5H45.5ZM48.125 3.5V5.25H49.875V3.5H48.125ZM50.75 3.5V5.25H52.5V3.5H50.75ZM52.5 6.125H50.75V7.875H52.5V6.125ZM52.5 8.75H50.75V10.5H52.5V8.75ZM52.5 11.375H50.75V13.125H52.5V11.375ZM52.5 14H50.75V15.75H52.5V14ZM52.5 16.625H50.75V18.375H52.5V16.625ZM52.5 19.25H50.75V21H52.5V19.25ZM52.5 21.875H50.75V23.625H52.5V21.875ZM52.5 24.5H50.75V26.25H52.5V24.5ZM52.5 27.125H50.75V28.875H52.5V27.125ZM52.5 29.75H50.75V31.5H52.5V29.75ZM52.5 32.375H50.75V34.125H52.5V32.375ZM52.5 35H50.75V36.75H52.5V35ZM52.5 37.625H50.75V39.375H52.5V37.625ZM52.5 40.25H50.75V42H52.5V40.25ZM52.5 42.875H50.75V44.625H52.5V42.875ZM52.5 45.5H50.75V47.25H52.5V45.5ZM52.5 48.125H50.75L50.75 49.875H52.5L52.5 48.125ZM49.875 49.875L49.875 48.125H48.125L48.125 49.875H49.875ZM47.25 49.875V48.125H45.5V49.875H47.25ZM44.625 49.875V48.125H42.875V49.875H44.625ZM42 49.875V48.125H40.25V49.875H42ZM39.375 49.875V48.125H37.625V49.875H39.375ZM36.75 49.875V48.125H35V49.875H36.75ZM34.125 49.875V48.125H32.375V49.875H34.125ZM31.5 49.875V48.125H29.75V49.875H31.5ZM28.875 49.875V48.125H27.125V49.875H28.875ZM26.25 49.875V48.125H24.5V49.875H26.25ZM23.625 49.875V48.125H21.875V49.875H23.625ZM21 49.875V48.125H19.25V49.875H21ZM18.375 49.875V48.125H16.625V49.875H18.375ZM15.75 49.875V48.125H14V49.875H15.75ZM13.125 49.875V48.125H11.375V49.875H13.125ZM10.5 49.875V48.125H8.75V49.875H10.5ZM7.875 49.875L7.875 48.125H6.125L6.125 49.875H7.875ZM6.125 47.25H7.875V45.5H6.125V47.25ZM6.125 44.625H7.875V42.875H6.125V44.625ZM6.125 42H7.875V40.25H6.125V42ZM6.125 39.375H7.875V37.625H6.125V39.375ZM6.125 36.75H7.875V35H6.125V36.75ZM6.125 34.125H7.875V32.375H6.125V34.125ZM6.125 31.5H7.875V29.75H6.125V31.5ZM6.125 28.875H7.875V27.125H6.125V28.875ZM6.125 26.25H7.875V24.5H6.125V26.25ZM6.125 23.625H7.875V21.875H6.125V23.625ZM6.125 21H7.875L7.875 19.25H6.125L6.125 21ZM6.125 18.375H7.875V16.625H6.125V18.375ZM6.125 15.75H7.875V14H6.125V15.75ZM6.125 13.125H7.875V11.375H6.125V13.125ZM6.125 10.5H7.875V8.75H6.125V10.5ZM6.125 7.875H7.875V6.125H6.125V7.875ZM8.75 6.125V7.875H10.5V6.125H8.75ZM11.375 6.125V7.875H13.125V6.125H11.375ZM14 6.125V7.875H15.75V6.125H14ZM16.625 6.125V7.875H18.375V6.125H16.625ZM19.25 6.125V7.875H21V6.125H19.25ZM21.875 6.125V7.875H23.625V6.125H21.875ZM24.5 6.125V7.875H26.25V6.125H24.5ZM27.125 6.125V7.875H28.875V6.125H27.125ZM29.75 6.125V7.875H31.5V6.125H29.75ZM32.375 6.125V7.875H34.125V6.125H32.375ZM35 6.125V7.875H36.75V6.125H35ZM37.625 6.125V7.875H39.375V6.125H37.625ZM40.25 6.125V7.875H42V6.125H40.25ZM42.875 6.125V7.875H44.625V6.125H42.875ZM45.5 6.125V7.875H47.25V6.125H45.5ZM48.125 6.125V7.875H49.875V6.125H48.125ZM49.875 8.75H48.125V10.5H49.875V8.75ZM49.875 11.375H48.125V13.125H49.875V11.375ZM49.875 14H48.125V15.75H49.875V14ZM49.875 16.625H48.125V18.375H49.875V16.625ZM49.875 19.25H48.125V21H49.875V19.25ZM49.875 21.875H48.125V23.625H49.875V21.875ZM49.875 24.5H48.125V26.25H49.875V24.5ZM49.875 27.125H48.125V28.875H49.875V27.125ZM49.875 29.75H48.125V31.5H49.875V29.75ZM49.875 32.375H48.125V34.125H49.875V32.375ZM49.875 35H48.125V36.75H49.875V35ZM49.875 37.625H48.125V39.375H49.875V37.625ZM49.875 40.25H48.125V42H49.875V40.25ZM49.875 42.875H48.125V44.625H49.875V42.875ZM49.875 45.5H48.125V47.25H49.875V45.5ZM47.25 47.25V45.5H45.5V47.25H47.25ZM44.625 47.25V45.5H42.875V47.25H44.625ZM42 47.25V45.5H40.25V47.25H42ZM39.375 47.25V45.5H37.625V47.25H39.375ZM36.75 47.25V45.5H35V47.25H36.75ZM34.125 47.25V45.5H32.375V47.25H34.125ZM31.5 47.25V45.5H29.75V47.25H31.5ZM28.875 47.25V45.5H27.125V47.25H28.875ZM26.25 47.25V45.5H24.5V47.25H26.25ZM23.625 47.25V45.5H21.875V47.25H23.625ZM21 47.25V45.5H19.25V47.25H21ZM18.375 47.25V45.5H16.625V47.25H18.375ZM15.75 47.25V45.5H14V47.25H15.75ZM13.125 47.25V45.5H11.375V47.25H13.125ZM10.5 47.25V45.5H8.75V47.25H10.5ZM8.75 44.625H10.5V42.875H8.75V44.625ZM8.75 42H10.5L10.5 40.25H8.75L8.75 42ZM8.75 39.375H10.5V37.625H8.75V39.375ZM8.75 36.75H10.5V35H8.75V36.75ZM8.75 34.125H10.5V32.375H8.75V34.125ZM8.75 31.5H10.5V29.75H8.75V31.5ZM8.75 28.875H10.5V27.125H8.75V28.875ZM8.75 26.25H10.5V24.5H8.75V26.25ZM8.75 23.625H10.5V21.875H8.75V23.625ZM8.75 21H10.5V19.25H8.75V21ZM8.75 18.375H10.5V16.625H8.75V18.375ZM8.75 15.75H10.5V14H8.75V15.75ZM8.75 13.125H10.5L10.5 11.375H8.75L8.75 13.125ZM8.75 10.5H10.5V8.75H8.75V10.5ZM11.375 8.75V10.5H13.125V8.75H11.375ZM14 8.75V10.5H15.75V8.75H14ZM16.625 8.75V10.5H18.375V8.75H16.625ZM19.25 8.75V10.5H21V8.75H19.25ZM21.875 8.75V10.5H23.625V8.75H21.875ZM24.5 8.75V10.5H26.25V8.75H24.5ZM27.125 8.75V10.5H28.875V8.75H27.125ZM29.75 8.75V10.5H31.5V8.75H29.75ZM32.375 8.75V10.5H34.125V8.75H32.375ZM35 8.75V10.5H36.75V8.75H35ZM37.625 8.75V10.5H39.375V8.75H37.625ZM40.25 8.75V10.5H42V8.75H40.25ZM42.875 8.75V10.5H44.625V8.75H42.875ZM45.5 8.75V10.5H47.25V8.75H45.5ZM47.25 11.375H45.5V13.125H47.25V11.375ZM47.25 14H45.5V15.75H47.25V14ZM47.25 16.625H45.5V18.375H47.25V16.625ZM47.25 19.25H45.5V21H47.25V19.25ZM47.25 21.875H45.5V23.625H47.25V21.875ZM47.25 24.5H45.5V26.25H47.25V24.5ZM47.25 27.125H45.5V28.875H47.25V27.125ZM47.25 29.75H45.5V31.5H47.25V29.75ZM47.25 32.375H45.5V34.125H47.25V32.375ZM47.25 35H45.5V36.75H47.25V35ZM47.25 37.625H45.5V39.375H47.25V37.625ZM47.25 40.25H45.5V42H47.25V40.25ZM47.25 42.875H45.5V44.625H47.25V42.875ZM44.625 44.625V42.875H42.875V44.625H44.625ZM42 44.625V42.875H40.25V44.625H42ZM39.375 44.625V42.875H37.625V44.625H39.375ZM36.75 44.625V42.875H35V44.625H36.75ZM34.125 44.625V42.875H32.375V44.625H34.125ZM31.5 44.625V42.875H29.75V44.625H31.5ZM28.875 44.625V42.875H27.125V44.625H28.875ZM26.25 44.625V42.875H24.5V44.625H26.25ZM23.625 44.625V42.875H21.875V44.625H23.625ZM21 44.625V42.875H19.25V44.625H21ZM18.375 44.625V42.875H16.625V44.625H18.375ZM15.75 44.625V42.875H14V44.625H15.75ZM13.125 44.625V42.875H11.375V44.625H13.125ZM11.375 42H13.125L13.125 40.25H11.375L11.375 42ZM11.375 39.375H13.125V37.625H11.375V39.375ZM11.375 36.75H13.125V35H11.375V36.75ZM11.375 34.125H13.125V32.375H11.375V34.125ZM11.375 31.5H13.125V29.75H11.375V31.5ZM11.375 28.875H13.125V27.125H11.375V28.875ZM11.375 26.25H13.125V24.5H11.375V26.25ZM11.375 23.625H13.125V21.875H11.375V23.625ZM11.375 21H13.125V19.25H11.375V21ZM11.375 18.375H13.125V16.625H11.375V18.375ZM11.375 15.75H13.125V14H11.375V15.75ZM11.375 13.125H13.125L13.125 11.375H11.375L11.375 13.125ZM14 11.375L14 13.125H15.75L15.75 11.375H14ZM16.625 11.375V13.125H18.375V11.375H16.625ZM19.25 11.375V13.125H21V11.375H19.25ZM21.875 11.375V13.125H23.625V11.375H21.875ZM24.5 11.375V13.125H26.25V11.375H24.5ZM27.125 11.375V13.125H28.875V11.375H27.125ZM29.75 11.375V13.125H31.5V11.375H29.75ZM32.375 11.375V13.125H34.125V11.375H32.375ZM35 11.375V13.125H36.75V11.375H35ZM37.625 11.375V13.125H39.375V11.375H37.625ZM40.25 11.375V13.125H42V11.375H40.25ZM42.875 11.375V13.125H44.625V11.375H42.875ZM44.625 14H42.875V15.75H44.625V14ZM44.625 16.625H42.875V18.375H44.625V16.625ZM44.625 19.25H42.875V21H44.625V19.25ZM44.625 21.875H42.875V23.625H44.625V21.875ZM44.625 24.5H42.875V26.25H44.625V24.5ZM44.625 27.125H42.875V28.875H44.625V27.125ZM44.625 29.75H42.875V31.5H44.625V29.75ZM44.625 32.375H42.875V34.125H44.625V32.375ZM44.625 35H42.875V36.75H44.625V35ZM44.625 37.625H42.875V39.375H44.625V37.625ZM44.625 40.25H42.875V42H44.625V40.25ZM42 42V40.25H40.25V42H42ZM39.375 42V40.25H37.625V42H39.375ZM36.75 42V40.25H35V42H36.75ZM34.125 42V40.25H32.375V42H34.125ZM31.5 42V40.25H29.75V42H31.5ZM28.875 42V40.25H27.125V42H28.875ZM26.25 42V40.25H24.5V42H26.25ZM23.625 42V40.25H21.875V42H23.625ZM21 42V40.25H19.25V42H21ZM18.375 42V40.25H16.625V42H18.375ZM15.75 42L15.75 40.25H14L14 42H15.75ZM14 39.375H15.75V37.625H14V39.375ZM14 36.75H15.75V35H14V36.75ZM14 34.125H15.75V32.375H14V34.125ZM14 31.5H15.75V29.75H14V31.5ZM14 28.875H15.75V27.125H14V28.875ZM14 26.25H15.75V24.5H14V26.25ZM14 23.625H15.75V21.875H14V23.625ZM14 21H15.75V19.25H14V21ZM14 18.375H15.75V16.625H14V18.375ZM14 15.75H15.75V14H14V15.75ZM16.625 14V15.75H18.375V14H16.625ZM19.25 14V15.75H21V14H19.25ZM21.875 14V15.75H23.625V14H21.875ZM24.5 14V15.75H26.25V14H24.5ZM27.125 14V15.75H28.875V14H27.125ZM29.75 14V15.75H31.5V14H29.75ZM32.375 14V15.75H34.125V14H32.375ZM35 14V15.75H36.75V14H35ZM37.625 14V15.75H39.375V14H37.625ZM40.25 14V15.75H42V14H40.25ZM42 16.625H40.25V18.375H42V16.625ZM42 19.25H40.25V21H42V19.25ZM42 21.875H40.25V23.625H42V21.875ZM42 24.5H40.25V26.25H42V24.5ZM42 27.125H40.25V28.875H42V27.125ZM42 29.75H40.25V31.5H42V29.75ZM42 32.375H40.25V34.125H42V32.375ZM42 35H40.25V36.75H42V35ZM42 37.625H40.25V39.375H42V37.625ZM39.375 39.375V37.625H37.625V39.375H39.375ZM36.75 39.375V37.625H35V39.375H36.75ZM34.125 39.375V37.625H32.375V39.375H34.125ZM31.5 39.375V37.625H29.75V39.375H31.5ZM28.875 39.375V37.625H27.125V39.375H28.875ZM26.25 39.375V37.625H24.5V39.375H26.25ZM23.625 39.375V37.625H21.875V39.375H23.625ZM21 39.375V37.625H19.25V39.375H21ZM18.375 39.375V37.625H16.625V39.375H18.375ZM16.625 36.75H18.375V35H16.625V36.75ZM16.625 34.125H18.375V32.375H16.625V34.125ZM16.625 31.5H18.375V29.75H16.625V31.5ZM16.625 28.875H18.375V27.125H16.625V28.875ZM16.625 26.25H18.375V24.5H16.625V26.25ZM16.625 23.625H18.375V21.875H16.625V23.625ZM16.625 21H18.375V19.25H16.625V21ZM16.625 18.375H18.375V16.625H16.625V18.375ZM19.25 16.625V18.375H21V16.625H19.25ZM21.875 16.625V18.375H23.625V16.625H21.875ZM24.5 16.625V18.375H26.25V16.625H24.5ZM27.125 16.625V18.375H28.875V16.625H27.125ZM29.75 16.625V18.375H31.5V16.625H29.75ZM32.375 16.625V18.375H34.125V16.625H32.375ZM35 16.625V18.375H36.75V16.625H35ZM37.625 16.625V18.375H39.375V16.625H37.625ZM39.375 19.25H37.625V21H39.375V19.25ZM39.375 21.875H37.625V23.625H39.375V21.875ZM39.375 24.5H37.625V26.25H39.375V24.5ZM39.375 27.125H37.625V28.875H39.375V27.125ZM39.375 29.75H37.625V31.5H39.375V29.75ZM39.375 32.375H37.625V34.125H39.375V32.375ZM39.375 35H37.625V36.75H39.375V35ZM36.75 36.75V35H35V36.75H36.75ZM34.125 36.75V35H32.375V36.75H34.125ZM31.5 36.75V35H29.75V36.75H31.5ZM28.875 36.75V35H27.125V36.75H28.875ZM26.25 36.75V35H24.5V36.75H26.25ZM23.625 36.75V35H21.875V36.75H23.625ZM21 36.75V35H19.25V36.75H21ZM19.25 34.125H21V32.375H19.25V34.125ZM19.25 31.5H21V29.75H19.25V31.5ZM19.25 28.875H21V27.125H19.25V28.875ZM19.25 26.25H21V24.5H19.25V26.25ZM19.25 23.625H21V21.875H19.25V23.625ZM19.25 21H21V19.25H19.25V21ZM21.875 19.25V21H23.625V19.25H21.875ZM24.5 19.25V21H26.25V19.25H24.5ZM27.125 19.25V21H28.875V19.25H27.125ZM29.75 19.25V21H31.5V19.25H29.75ZM32.375 19.25V21H34.125V19.25H32.375ZM35 19.25V21H36.75V19.25H35ZM36.75 21.875H35V23.625H36.75V21.875ZM36.75 24.5H35V26.25H36.75V24.5ZM36.75 27.125H35V28.875H36.75V27.125ZM36.75 29.75H35V31.5H36.75V29.75ZM36.75 32.375H35V34.125H36.75V32.375ZM34.125 34.125V32.375H32.375V34.125H34.125ZM31.5 34.125V32.375H29.75V34.125H31.5ZM28.875 34.125V32.375H27.125V34.125H28.875ZM26.25 34.125V32.375H24.5V34.125H26.25ZM23.625 34.125V32.375H21.875V34.125H23.625ZM21.875 31.5H23.625V29.75H21.875V31.5ZM21.875 28.875H23.625V27.125H21.875V28.875ZM21.875 26.25H23.625V24.5H21.875V26.25ZM21.875 23.625H23.625V21.875H21.875V23.625ZM24.5 21.875V23.625H26.25V21.875H24.5ZM27.125 21.875V23.625H28.875V21.875H27.125ZM29.75 21.875V23.625H31.5V21.875H29.75ZM32.375 21.875V23.625H34.125V21.875H32.375ZM34.125 24.5H32.375V26.25H34.125V24.5ZM34.125 27.125H32.375V28.875H34.125V27.125ZM34.125 29.75H32.375V31.5H34.125V29.75ZM31.5 31.5V29.75H29.75V31.5H31.5ZM28.875 31.5V29.75H27.125V31.5H28.875ZM26.25 31.5V29.75H24.5V31.5H26.25ZM24.5 28.875H26.25V27.125H24.5V28.875ZM24.5 26.25H26.25V24.5H24.5V26.25ZM27.125 24.5V26.25H28.875V24.5H27.125ZM29.75 24.5V26.25H31.5V24.5H29.75ZM31.5 27.125H29.75V28.875H31.5V27.125ZM28.875 28.875V27.125H27.125V28.875H28.875Z" fill="#BAC8D3"/>
</g>
<path d="M10.5 48.125H23.59V37.3229H31.9982C42.0831 37.3229 49 31.7341 49 20.7066C49 14.2029 45.0245 5.25 33.1097 5.25H10.5V48.125ZM23.59 15.8846H34.1385V27.0043H23.59V15.8846Z" fill="#003553"/>
</svg>
