<svg xmlns="http://www.w3.org/2000/svg" width="61.241" height="61.241" viewBox="0 0 61.241 61.241">
  <defs>
    <style>
      .cls-1 {
        fill: #f47f01;
      }
    </style>
  </defs>
  <path id="_383-headphones" data-name="383-headphones" class="cls-1" d="M56.456,35.664V25.836a25.836,25.836,0,0,0-44.1-18.269A25.667,25.667,0,0,0,4.784,25.836v9.856a14.7,14.7,0,0,0,9.965,25.548h4.389V31.816H14.749a14.706,14.706,0,0,0-5.18.938V25.836a21.051,21.051,0,0,1,42.1,0v6.9a14.532,14.532,0,0,0-5.088-.915H42.1V61.241h4.481a14.717,14.717,0,0,0,9.872-25.576Zm-42.1,20.785a9.927,9.927,0,0,1,0-19.84Zm32.534,0V36.605a9.93,9.93,0,0,1,0,19.846Zm0,0"/>
</svg>
