<svg xmlns="http://www.w3.org/2000/svg" width="51.305" height="61.241" viewBox="0 0 51.305 61.241">
  <defs>
    <style>
      .cls-1 {
        fill: #f47f01;
      }
    </style>
  </defs>
  <path id="_094-notification" data-name="094-notification" class="cls-1" d="M48.137,52.868l-7-13.847V23.683a18.746,18.746,0,0,0-16.267-18.5V0H20.086V5.179a18.746,18.746,0,0,0-16.267,18.5V38.947l-6.987,13.92H16.151a6.579,6.579,0,1,0,12.656,0ZM8.6,40.081V40.07H31.569V35.285H8.6v-11.6A13.929,13.929,0,0,1,22.275,9.81h.406A13.929,13.929,0,0,1,36.354,23.683V40.161l4,7.922H4.587ZM24.273,54.662a1.794,1.794,0,1,1-1.794-1.794A1.8,1.8,0,0,1,24.273,54.662Zm0,0" transform="translate(3.168)"/>
</svg>
