<svg xmlns="http://www.w3.org/2000/svg" width="54.866" height="54.866" viewBox="0 0 54.866 54.866">
  <defs>
    <style>
      .cls-1 {
        fill: #8dc640;
      }
    </style>
  </defs>
  <g id="email_1_" data-name="email (1)" transform="translate(-0.001)">
    <g id="Group_5577" data-name="Group 5577" transform="translate(0.001)">
      <path id="Path_47949" data-name="Path 47949" class="cls-1" d="M27.433,0A27.433,27.433,0,1,0,54.867,27.433,27.433,27.433,0,0,0,27.433,0Zm0,9.636L43.668,19.759H11.2ZM43.87,35.923h0a2.939,2.939,0,0,1-2.939,2.939H13.939A2.939,2.939,0,0,1,11,35.923V20.4a2.924,2.924,0,0,1,.046-.5l15.51,9.672c.019.012.039.02.059.031l.062.033a1.628,1.628,0,0,0,.338.132l.036.007a1.673,1.673,0,0,0,.383.048h0a1.643,1.643,0,0,0,.383-.048l.036-.007a1.644,1.644,0,0,0,.338-.132l.062-.033c.019-.011.04-.019.059-.031L43.824,19.9a2.92,2.92,0,0,1,.046.5V35.923Z" transform="translate(-0.001)"/>
    </g>
  </g>
</svg>
