<svg xmlns="http://www.w3.org/2000/svg" width="72.217" height="63.472" viewBox="0 0 72.217 63.472">
  <defs>
    <style>
      .cls-1 {
        fill: #012060;
      }
    </style>
  </defs>
  <g id="business" transform="translate(0 -31)">
    <path id="Path_48012" data-name="Path 48012" class="cls-1" d="M48.8,33.706C45.082,32.474,40.06,31,36.109,31s-8.974,1.474-12.694,2.706v9.988H0V94.472H72.217V43.694H48.8ZM27.646,36.8a35.366,35.366,0,0,1,8.463-1.564A35.361,35.361,0,0,1,44.572,36.8v6.9H27.646Zm14.81,40.747V73.315H29.761v4.227a48.96,48.96,0,0,1-12.694-1.815v-27.8H55.291V75.688A48.97,48.97,0,0,1,42.456,77.542Zm-4.231,0v2.116a2.116,2.116,0,1,1-4.231,0V77.546ZM12.835,47.926v26.41a47.98,47.98,0,0,1-8.6-4.287V47.926Zm-8.6,42.315V74.979a53.071,53.071,0,0,0,25.894,6.8,6.346,6.346,0,0,0,11.967,0,53.071,53.071,0,0,0,25.894-6.8V90.241ZM67.986,70.048a47.967,47.967,0,0,1-8.463,4.234V47.926h8.463Z"/>
  </g>
</svg>
