<svg xmlns="http://www.w3.org/2000/svg" width="20.129" height="18.813" viewBox="0 0 20.129 18.813">
  <defs>
    <style>
      .cls-1 {
        fill: #f47f01;
      }
    </style>
  </defs>
  <g id="calendar_1_" data-name="calendar (1)" transform="translate(-1 -2)">
    <path id="Path_48007" data-name="Path 48007" class="cls-1" d="M18.935,2H17.053V3.881a.627.627,0,0,1-1.254,0V2H5.766V3.881a.627.627,0,1,1-1.254,0V2H2.63A1.727,1.727,0,0,0,1,3.881V6.139H21.067V3.881A2.116,2.116,0,0,0,18.935,2ZM1,7.456V18.931a1.7,1.7,0,0,0,1.693,1.881H19a2.116,2.116,0,0,0,2.132-1.881V7.456ZM6.581,17.991H5.076a.5.5,0,0,1-.5-.5V15.921a.5.5,0,0,1,.5-.5H6.644a.5.5,0,0,1,.5.5v1.568a.549.549,0,0,1-.564.5Zm0-5.644H5.076a.5.5,0,0,1-.5-.5V10.278a.5.5,0,0,1,.5-.5H6.644a.5.5,0,0,1,.5.5v1.568a.549.549,0,0,1-.564.5ZM11.6,17.991H10.03a.5.5,0,0,1-.5-.5V15.921a.5.5,0,0,1,.5-.5H11.6a.5.5,0,0,1,.5.5v1.568A.462.462,0,0,1,11.6,17.991Zm0-5.644H10.03a.5.5,0,0,1-.5-.5V10.278a.5.5,0,0,1,.5-.5H11.6a.5.5,0,0,1,.5.5v1.568A.462.462,0,0,1,11.6,12.347Zm5.017,5.644H15.047a.5.5,0,0,1-.5-.5V15.921a.5.5,0,0,1,.5-.5h1.568a.5.5,0,0,1,.5.5v1.568A.462.462,0,0,1,16.614,17.991Zm0-5.644H15.047a.5.5,0,0,1-.5-.5V10.278a.5.5,0,0,1,.5-.5h1.568a.5.5,0,0,1,.5.5v1.568A.462.462,0,0,1,16.614,12.347Z"/>
  </g>
</svg>
