<svg xmlns="http://www.w3.org/2000/svg" width="67.996" height="55.778" viewBox="0 0 67.996 55.778">
  <defs>
    <style>
		.cls-1 {
		fill: #F47F01;
		}
	</style>
  </defs>
  <g id="coins" transform="translate(0 -46)">
    <path id="Path_47972" data-name="Path 47972" class="cls-1" d="M247.328,386a1.328,1.328,0,1,0,1.328,1.328A1.329,1.329,0,0,0,247.328,386Z" transform="translate(-213.33 -294.846)"/>
    <path id="Path_47973" data-name="Path 47973" class="cls-1" d="M62.3,48.041A33,33,0,0,0,50.333,46a33,33,0,0,0-11.964,2.041A11.787,11.787,0,0,0,34,50.836a11.787,11.787,0,0,0-4.371-2.8A33,33,0,0,0,17.663,46,33,33,0,0,0,5.7,48.041C2.024,49.521,0,51.626,0,53.968V85.842c0,2.342,2.024,4.447,5.7,5.927A32.3,32.3,0,0,0,16.733,93.8v.011c0,4.543,7.422,7.968,17.265,7.968s17.265-3.426,17.265-7.968V93.8A32.3,32.3,0,0,0,62.3,91.769c3.675-1.48,5.7-3.585,5.7-5.927V53.968C68,51.626,65.972,49.521,62.3,48.041ZM65.34,77.873c0,1.134-1.546,2.461-4.035,3.463a30.022,30.022,0,0,1-10.042,1.836v-5.3s0-.008,0-.011A32.3,32.3,0,0,0,62.3,75.832a14.461,14.461,0,0,0,3.043-1.626v3.667ZM32.67,61.937c0,1.134-1.546,2.461-4.035,3.463a30.752,30.752,0,0,1-10.972,1.849A30.752,30.752,0,0,1,6.691,65.4c-2.489-1-4.035-2.33-4.035-3.463V58.269A14.461,14.461,0,0,0,5.7,59.9a33,33,0,0,0,11.964,2.041A33,33,0,0,0,29.627,59.9a14.461,14.461,0,0,0,3.043-1.626ZM5.7,67.864A33,33,0,0,0,17.663,69.9a33,33,0,0,0,11.964-2.041,14.461,14.461,0,0,0,3.043-1.626v3.691a32.3,32.3,0,0,0-9.4,1.619,11.428,11.428,0,0,0-5.642,3.67A30.731,30.731,0,0,1,6.691,73.368c-2.489-1-4.035-2.33-4.035-3.463V66.238A14.461,14.461,0,0,0,5.7,67.864ZM2.656,74.206A14.46,14.46,0,0,0,5.7,75.832a32.3,32.3,0,0,0,11.035,2.03s0,.008,0,.011v5.3A30.021,30.021,0,0,1,6.692,81.337c-2.489-1-4.035-2.33-4.035-3.463ZM19.53,77.221c.984-2.29,6.665-4.66,14.468-4.66s13.484,2.369,14.467,4.657a1.643,1.643,0,0,1,.142.655c0,1.168-1.439,2.465-3.851,3.469A28.9,28.9,0,0,1,34,83.186,28.9,28.9,0,0,1,23.24,81.343c-2.411-1-3.851-2.3-3.851-3.469A1.64,1.64,0,0,1,19.53,77.221ZM65.34,69.9c0,1.134-1.546,2.461-4.035,3.463a30.729,30.729,0,0,1-10.94,1.849,11.429,11.429,0,0,0-5.643-3.67,32.292,32.292,0,0,0-9.4-1.619V66.238a14.461,14.461,0,0,0,3.043,1.626A33,33,0,0,0,50.333,69.9,33,33,0,0,0,62.3,67.864a14.461,14.461,0,0,0,3.043-1.626Zm0-7.968c0,1.134-1.546,2.461-4.035,3.463a30.752,30.752,0,0,1-10.972,1.849A30.752,30.752,0,0,1,39.362,65.4c-2.489-1-4.035-2.33-4.035-3.463V58.269A14.461,14.461,0,0,0,38.369,59.9a33,33,0,0,0,11.964,2.041A33,33,0,0,0,62.3,59.9a14.461,14.461,0,0,0,3.043-1.626ZM39.362,50.505a30.751,30.751,0,0,1,10.972-1.849,30.751,30.751,0,0,1,10.972,1.849c2.489,1,4.035,2.33,4.035,3.463s-1.546,2.461-4.035,3.463a30.751,30.751,0,0,1-10.972,1.849,30.751,30.751,0,0,1-10.972-1.849c-2.489-1-4.035-2.33-4.035-3.463S36.873,51.508,39.362,50.505Zm-32.67,0a30.752,30.752,0,0,1,10.972-1.849,30.752,30.752,0,0,1,10.972,1.849c2.489,1,4.035,2.33,4.035,3.463s-1.546,2.461-4.035,3.463a30.752,30.752,0,0,1-10.972,1.849A30.752,30.752,0,0,1,6.691,57.432c-2.489-1-4.035-2.33-4.035-3.463S4.2,51.508,6.691,50.505Zm0,38.8c-2.489-1-4.035-2.33-4.035-3.463V82.174A14.46,14.46,0,0,0,5.7,83.8a32.3,32.3,0,0,0,11.034,2.03v5.311A30.022,30.022,0,0,1,6.691,89.3Zm38.065,7.974A28.9,28.9,0,0,1,34,99.122,28.9,28.9,0,0,1,23.24,97.279c-2.411-1-3.851-2.3-3.851-3.469V90.22a11.7,11.7,0,0,0,1,.647,23.26,23.26,0,0,0,8.115,2.553,1.346,1.346,0,0,0,.195.014,1.328,1.328,0,0,0,.191-2.642c-6.172-.906-9.5-3.227-9.5-4.95v-3.6c3.006,2.2,8.312,3.6,14.609,3.6s11.6-1.4,14.609-3.6v3.6c0,1.724-3.331,4.044-9.5,4.95a1.328,1.328,0,0,0,.191,2.642,1.344,1.344,0,0,0,.195-.014A23.258,23.258,0,0,0,47.6,90.867a11.72,11.72,0,0,0,1-.647v3.59C48.607,94.978,47.167,96.275,44.756,97.279ZM61.305,89.3a30.022,30.022,0,0,1-10.042,1.836V85.83A32.3,32.3,0,0,0,62.3,83.8a14.461,14.461,0,0,0,3.043-1.626v3.667C65.34,86.975,63.794,88.3,61.305,89.3Z"/>
  </g>
</svg>
