<svg xmlns="http://www.w3.org/2000/svg" width="50.968" height="61.985" viewBox="0 0 50.968 61.985">
  <defs>
    <style>
		.cls-1 {
		fill: #F47F01;
		}
	</style>
  </defs>
  <g id="customer-service" transform="translate(-45.5)">
    <path id="Path_47989" data-name="Path 47989" class="cls-1" d="M208.756,188.482a2.382,2.382,0,0,0-1.712.721.908.908,0,0,0,1.294,1.273.58.58,0,0,1,.835,0,.908.908,0,1,0,1.294-1.273A2.382,2.382,0,0,0,208.756,188.482Z" transform="translate(-141.758 -165.664)"/>
    <path id="Path_47990" data-name="Path 47990" class="cls-1" d="M281.361,190.487a.906.906,0,0,0,1.283-.011.576.576,0,0,1,.832,0,.908.908,0,0,0,1.294-1.273,2.389,2.389,0,0,0-3.421,0A.909.909,0,0,0,281.361,190.487Z" transform="translate(-207.068 -165.664)"/>
    <path id="Path_47991" data-name="Path 47991" class="cls-1" d="M243.608,255.6a1.394,1.394,0,0,1-1.39,0,.908.908,0,0,0-1.031,1.495,3.172,3.172,0,0,0,3.457,0,.908.908,0,0,0-1.035-1.492Z" transform="translate(-171.651 -224.51)"/>
    <path id="Path_47992" data-name="Path 47992" class="cls-1" d="M96.442,59.853l-1.048-9.146c-.352-3.05-2-5.87-4.886-8.382l-.022-.019a9.464,9.464,0,0,0-.968-.731,30.826,30.826,0,0,1-2.791-11.991c.077-.415.134-.836.175-1.253a5,5,0,0,0,2.949-4.55v-.322a4.974,4.974,0,0,0-.778-2.675V18.344c0-5.648-1.93-10.4-5.581-13.746a18.6,18.6,0,0,0-24.485,0c-3.651,3.345-5.581,8.1-5.581,13.746v2.427a4.98,4.98,0,0,0-.774,2.671v.322a5.013,5.013,0,0,0,2.915,4.549c-.353,5.1-.641,8.14-2.859,13.1a9.566,9.566,0,0,0-1.231.9l-.016.014a17.487,17.487,0,0,0-2.275,2.367.908.908,0,1,0,1.425,1.125,15.685,15.685,0,0,1,2.04-2.12l.018-.015a7.787,7.787,0,0,1,1.084-.782.908.908,0,0,0,.229-.135,15.033,15.033,0,0,1,4.088-1.49v2.911A6.169,6.169,0,0,0,61.2,49.768a7.94,7.94,0,0,0,3.932,1,8.062,8.062,0,0,0,4.033-1.041,6.094,6.094,0,0,0,2.073-1.943,5.989,5.989,0,0,0,2.095,2,7.533,7.533,0,0,0,3.777.99,7.418,7.418,0,0,0,3.684-.95A6.209,6.209,0,0,0,83.9,44.186V41.279a12.514,12.514,0,0,1,5.4,2.4l.021.018a11.4,11.4,0,0,1,4.271,7.216l1.048,9.145c0,.04.008.076.01.107-.108,0-.238,0-.346,0s-.193,0-.294,0H87.553a10.582,10.582,0,0,0-.454-5.827.907.907,0,1,0-1.648.76,8.989,8.989,0,0,1,.238,5.067H56.279a9,9,0,0,1,.237-5.067.908.908,0,1,0-1.648-.76,10.593,10.593,0,0,0-.453,5.827H47.959c-.1,0-.2,0-.294,0s-.238,0-.345,0c0-.031.005-.066.01-.107l1.051-9.147a8.832,8.832,0,0,1,.339-1.609.907.907,0,1,0-1.734-.537,10.647,10.647,0,0,0-.408,1.94l-1.051,9.145a2.043,2.043,0,0,0,.384,1.608,1.912,1.912,0,0,0,1.533.524l.251,0,.265,0h46.05l.265,0,.251,0a1.912,1.912,0,0,0,1.534-.524,2.042,2.042,0,0,0,.384-1.608ZM88.037,23.781A3.179,3.179,0,0,1,85.5,26.888l-.008,0a3.191,3.191,0,0,1-.639.064h-1.9l-.005-6.681h1.9a3.19,3.19,0,0,1,3.186,3.186Zm-13.106-3.9c.251.043.508.083.765.119a26.852,26.852,0,0,0,3.537.254l1.907.014.006,7.6A7.929,7.929,0,0,1,79.435,32.8H76.273a.908.908,0,0,0,0,1.817h1.286a12.875,12.875,0,0,1-3.541,1.821,7.416,7.416,0,0,1-5.525,0c-4.466-1.521-7.133-4.726-7.133-8.572v-7.6l1.679.022h.1c3.3,0,3.6-1.941,3.748-2.878a3.656,3.656,0,0,1,.081-.423c.026-.059.066-.062.095-.054a.381.381,0,0,1,.136.088A12.557,12.557,0,0,0,71.3,19a.908.908,0,0,0,.555-1.73,11.45,11.45,0,0,1-3.394-1.549l-.012-.012a2.07,2.07,0,0,0-1.359-.6h-.07a2.066,2.066,0,0,0-1.356.6l-.01.01a2.339,2.339,0,0,0-.567,1.411c-.132.848-.212,1.36-2.03,1.34l-4.121-.035c1.344-8,7.049-11.632,12.292-11.667,5.283-.041,11.084,3.576,12.557,11.688H82.053l-2.809-.021a25.018,25.018,0,0,1-3.3-.237c-.238-.033-.476-.07-.708-.11a.908.908,0,0,0-.306,1.79Zm7.987,8.892H84.85q.025.362.05.712c-.446,2.164-1.422,3.113-3.28,3.284A9.641,9.641,0,0,0,82.918,28.771ZM55.241,18.343c0-11.355,8.3-16.527,16.009-16.527S87.259,6.989,87.259,18.343v.733a4.962,4.962,0,0,0-1.617-.557,16.885,16.885,0,0,0-5.114-10A13.658,13.658,0,0,0,62.021,8.6,16.567,16.567,0,0,0,57.1,18.467a4.959,4.959,0,0,0-1.856.591v-.714Zm-.774,5.421v-.322a3.192,3.192,0,0,1,3.186-3.19h1.893v6.7H57.653A3.192,3.192,0,0,1,54.467,23.764Zm.705,16.463c1.58-4.068,1.872-7.019,2.183-11.465.1.006.2.01.3.01h1.936a10.455,10.455,0,0,0,4.873,7.7v2.28A28.891,28.891,0,0,0,55.172,40.226Zm13.078,7.928a6.4,6.4,0,0,1-6.147.037,4.349,4.349,0,0,1-2.219-4.006V40.937a35.741,35.741,0,0,1,4.582-.367,5.007,5.007,0,0,0,4.993,4.836h.8A4.027,4.027,0,0,1,68.249,48.155Zm1.21-4.566a3.19,3.19,0,0,1-3.183-3.19V37.5a15.715,15.715,0,0,0,1.632.66,9.195,9.195,0,0,0,6.693,0,15.667,15.667,0,0,0,1.632-.659v2.9a3.192,3.192,0,0,1-3.186,3.19H69.459Zm12.624.6a4.38,4.38,0,0,1-2.2,4.062,5.875,5.875,0,0,1-5.643-.035,4.015,4.015,0,0,1-2.005-2.808h.809a5.008,5.008,0,0,0,5-4.822,34.745,34.745,0,0,1,4.04.355Zm-4.035-5.42V36.472a12.245,12.245,0,0,0,2.194-1.859h.709a5.431,5.431,0,0,0,4.27-1.622,29.214,29.214,0,0,0,1.805,7.324,28.372,28.372,0,0,0-8.978-1.549Z" transform="translate(0 0)"/>
    <path id="Path_47993" data-name="Path 47993" class="cls-1" d="M251.64,429.29a.908.908,0,0,0,.907-.908v-.007a.907.907,0,1,0-.907.915Z" transform="translate(-180.387 -375.719)"/>
    <path id="Path_47994" data-name="Path 47994" class="cls-1" d="M251.64,464.4a.908.908,0,0,0,.907-.908v-.007a.907.907,0,1,0-.907.915Z" transform="translate(-180.387 -406.578)"/>
  </g>
</svg>
