<svg xmlns="http://www.w3.org/2000/svg" width="72.349" height="72.349" viewBox="0 0 72.349 72.349">
  <defs>
    <style>
		.cls-1 {
		fill: #F47F01;
		}
	</style>
  </defs>
  <g id="dashboard" transform="translate(-1 -1)">
    <path id="Path_47974" data-name="Path 47974" class="cls-1" d="M66.347,40.127V17.243a8.164,8.164,0,1,0-9.335-8.075H1V55.845H36.067a18.659,18.659,0,1,0,30.28-15.718ZM65.18,3.334a5.835,5.835,0,1,1-5.835,5.835A5.841,5.841,0,0,1,65.18,3.334ZM3.334,11.5H57.356a8.163,8.163,0,0,0,1.292,2.55l-7.137,7.137a3.379,3.379,0,0,0-3,0L46.16,18.837a3.468,3.468,0,0,0,.35-1.5,3.5,3.5,0,1,0-7,0,3.443,3.443,0,0,0,.351,1.5l-5.852,5.852a3.468,3.468,0,0,0-1.5-.35,3.5,3.5,0,1,0,3.5,3.5,3.443,3.443,0,0,0-.351-1.5l5.852-5.852a3.384,3.384,0,0,0,3,0l2.351,2.351a3.468,3.468,0,0,0-.35,1.5,3.5,3.5,0,0,0,7,0,3.443,3.443,0,0,0-.351-1.5L60.3,15.7a8.119,8.119,0,0,0,3.715,1.543v21.29a18.557,18.557,0,0,0-23.338,3.836v-5.2h-7v14h2.675a18.72,18.72,0,0,0-.281,2.334H3.334ZM50.01,23.171a1.167,1.167,0,1,1-1.167,1.167A1.168,1.168,0,0,1,50.01,23.171Zm-8.168-5.835A1.167,1.167,0,1,1,43.009,18.5,1.168,1.168,0,0,1,41.842,17.337Zm-8.168,10.5a1.167,1.167,0,1,1-1.167-1.167A1.168,1.168,0,0,1,33.674,27.839Zm21,36.174a9.335,9.335,0,1,1,9.335-9.335A9.346,9.346,0,0,1,54.678,64.013ZM38.341,45.659a18.53,18.53,0,0,0-1.387,3.185h-.946V39.508h2.334ZM53.511,38.4v4.668a11.645,11.645,0,0,0-9.463,16.4L40,61.8A16.281,16.281,0,0,1,53.511,38.4Zm1.167,32.614a16.329,16.329,0,0,1-13.522-7.182l4.064-2.347a11.631,11.631,0,0,0,18.916,0L68.2,63.832A16.329,16.329,0,0,1,54.678,71.015ZM69.355,61.8l-4.048-2.337a11.645,11.645,0,0,0-9.463-16.4V38.4A16.281,16.281,0,0,1,69.355,61.8Z" transform="translate(0 0)"/>
    <path id="Path_47975" data-name="Path 47975" class="cls-1" d="M48,41a7,7,0,1,0,7,7A7.009,7.009,0,0,0,48,41Zm0,11.669A4.668,4.668,0,1,1,52.669,48,4.672,4.672,0,0,1,48,52.669Z" transform="translate(6.677 6.677)"/>
    <path id="Path_47976" data-name="Path 47976" class="cls-1" d="M5,12H7.334v2.334H5Z" transform="translate(0.668 1.836)"/>
    <path id="Path_47977" data-name="Path 47977" class="cls-1" d="M9,12H25.337v2.334H9Z" transform="translate(1.335 1.836)"/>
    <path id="Path_47978" data-name="Path 47978" class="cls-1" d="M5,16H7.334v2.334H5Z" transform="translate(0.668 2.504)"/>
    <path id="Path_47979" data-name="Path 47979" class="cls-1" d="M9,16H25.337v2.334H9Z" transform="translate(1.335 2.504)"/>
    <path id="Path_47980" data-name="Path 47980" class="cls-1" d="M5,20H7.334v2.334H5Z" transform="translate(0.668 3.171)"/>
    <path id="Path_47981" data-name="Path 47981" class="cls-1" d="M9,20H25.337v2.334H9Z" transform="translate(1.335 3.171)"/>
    <path id="Path_47982" data-name="Path 47982" class="cls-1" d="M5,24H7.334v2.334H5Z" transform="translate(0.668 3.839)"/>
    <path id="Path_47983" data-name="Path 47983" class="cls-1" d="M9,24H25.337v2.334H9Z" transform="translate(1.335 3.839)"/>
    <path id="Path_47984" data-name="Path 47984" class="cls-1" d="M5,45.669h7V34H5Zm2.334-9.335H9.668v7H7.334Z" transform="translate(0.668 5.508)"/>
    <path id="Path_47985" data-name="Path 47985" class="cls-1" d="M13,45.335h7V36H13Zm2.334-7h2.334V43H15.334Z" transform="translate(2.003 5.842)"/>
    <path id="Path_47986" data-name="Path 47986" class="cls-1" d="M21,46.671h7V28H21Zm2.334-16.337h2.334v14H23.334Z" transform="translate(3.338 4.507)"/>
  </g>
</svg>
