<svg xmlns="http://www.w3.org/2000/svg" width="61.241" height="61.241" viewBox="0 0 61.241 61.241">
  <defs>
    <style>
      .cls-1 {
        fill: #f47f01;
      }
    </style>
  </defs>
  <path id="_411-internet" data-name="411-internet" class="cls-1" d="M33.013,55.505c-.064-.062-.129-.124-.193-.188a15.835,15.835,0,0,1-4.592-9.869V55.955c-2.274-.947-4.465-3.2-6.243-6.508a39.106,39.106,0,0,1-4.107-16.434H33.013V5.286c2.274.947,4.465,3.2,6.243,6.508a39.069,39.069,0,0,1,4.1,16.383c.235-.01.471-.016.709-.016a15.8,15.8,0,0,1,11.249,4.66c.064.064.126.129.188.193a9.964,9.964,0,0,1,.749.829,15.751,15.751,0,0,1,3.338,6.729A30.57,30.57,0,1,0,40.571,59.593a15.771,15.771,0,0,1-7.235-3.783C33.183,55.67,33.013,55.505,33.013,55.505ZM56.344,28.228H48.151a44.083,44.083,0,0,0-4.683-18.7q-.548-1.019-1.143-1.934A25.887,25.887,0,0,1,56.344,28.228ZM28.228,5.286V28.228H17.878a39.1,39.1,0,0,1,4.107-16.434C23.763,8.489,25.954,6.232,28.228,5.286ZM18.915,7.592q-.593.917-1.143,1.934a44.083,44.083,0,0,0-4.683,18.7H4.9A25.886,25.886,0,0,1,18.915,7.592ZM4.9,33.013H13.09a44.083,44.083,0,0,0,4.683,18.7q.548,1.019,1.143,1.934A25.886,25.886,0,0,1,4.9,33.013ZM51.934,36.2A11.119,11.119,0,1,0,50.057,53.44L57.815,61.2,61.2,57.815,53.44,50.057A11.14,11.14,0,0,0,51.934,36.2ZM39.585,48.551a6.339,6.339,0,1,1,8.966,0A6.346,6.346,0,0,1,39.585,48.551Zm0,0"/>
</svg>
