<svg xmlns="http://www.w3.org/2000/svg" width="40" height="40" viewBox="0 0 40 40">
  <g id="Group_5418" data-name="Group 5418" transform="translate(0)">
    <circle id="Ellipse_239" data-name="Ellipse 239" cx="20" cy="20" r="20" transform="translate(0)" fill="#001135" opacity="0.2"/>
    <g id="_x30_1._Facebook" transform="translate(15.513 11.682)">
      <path id="Icon_11_" d="M30.9,19.49H28.837c-.333,0-.437-.125-.437-.437V16.534c0-.333.125-.437.437-.437H30.9V14.264a4.625,4.625,0,0,1,.562-2.353,3.455,3.455,0,0,1,1.853-1.541,4.632,4.632,0,0,1,1.6-.271h2.04c.291,0,.416.125.416.416V12.89c0,.291-.125.416-.416.416-.562,0-1.124,0-1.686.021a.752.752,0,0,0-.854.854c-.021.625,0,1.228,0,1.874h2.415c.333,0,.458.125.458.458v2.519c0,.333-.1.437-.458.437H34.417v6.787c0,.354-.1.479-.479.479h-2.6c-.312,0-.437-.125-.437-.437Z" transform="translate(-28.4 -10.1)" fill="#001135"/>
    </g>
  </g>
</svg>