<svg id="help" xmlns="http://www.w3.org/2000/svg" width="26.496" height="26.496" viewBox="0 0 26.496 26.496">
  <defs>
    <style>
      .cls-1 {
        fill: #012060;
      }
    </style>
  </defs>
  <g id="Group_5656" data-name="Group 5656">
    <g id="Group_5655" data-name="Group 5655">
      <path id="Path_48009" data-name="Path 48009" class="cls-1" d="M223.038,343.22a1.389,1.389,0,0,0,0,2.778,1.389,1.389,0,1,0,0-2.778Z" transform="translate(-210.196 -325.458)"/>
      <path id="Path_48010" data-name="Path 48010" class="cls-1" d="M187.576,140c-2.435,0-3.554,1.443-3.554,2.417a1.034,1.034,0,0,0,1.082,1.028c.974,0,.577-1.389,2.417-1.389.9,0,1.623.4,1.623,1.227,0,.974-1.01,1.533-1.605,2.038a3.3,3.3,0,0,0-1.209,2.742c0,.938.252,1.209.992,1.209.884,0,1.064-.4,1.064-.74a2.265,2.265,0,0,1,1.01-2.255c.487-.379,2.02-1.605,2.02-3.3S189.884,140,187.576,140Z" transform="translate(-174.499 -132.757)"/>
      <path id="Path_48011" data-name="Path 48011" class="cls-1" d="M13.248,0A13.241,13.241,0,0,0,0,13.248V25.461A1.035,1.035,0,0,0,1.035,26.5H13.248a13.248,13.248,0,0,0,0-26.5Zm0,24.426H2.07V13.248A11.178,11.178,0,1,1,13.248,24.426Z"/>
    </g>
  </g>
</svg>
