<svg xmlns="http://www.w3.org/2000/svg" width="55.833" height="41.875" viewBox="0 0 55.833 41.875">
  <g id="market-fluctuation" transform="translate(0 -3)">
    <path id="Path_46489" data-name="Path 46489" d="M14.958,9.908V32.59H1V9.908A2.909,2.909,0,0,1,3.908,7H12.05A2.909,2.909,0,0,1,14.958,9.908Z" transform="translate(1.326 5.306)" fill="#001135"/>
    <path id="Path_46490" data-name="Path 46490" d="M22.958,5.908V37.9H9V5.908A2.909,2.909,0,0,1,11.908,3H20.05A2.909,2.909,0,0,1,22.958,5.908Z" transform="translate(11.938 0)" fill="#001135"/>
    <path id="Path_46491" data-name="Path 46491" d="M30.958,12.908v15.7H17v-15.7A2.909,2.909,0,0,1,19.908,10H28.05A2.909,2.909,0,0,1,30.958,12.908Z" transform="translate(22.549 9.285)" fill="#001135"/>
    <path id="Path_46492" data-name="Path 46492" d="M54.089,22.99H1.745a1.745,1.745,0,1,1,0-3.49H54.089a1.745,1.745,0,1,1,0,3.49Z" transform="translate(0 21.885)" fill="#001135"/>
  </g>
</svg>