<svg xmlns="http://www.w3.org/2000/svg" width="56.48" height="56.491" viewBox="0 0 56.48 56.491">
  <g id="finance" transform="translate(-0.049)">
    <path id="Path_46502" data-name="Path 46502" d="M386.139,33.241V0h-8.454V30.447a17.839,17.839,0,0,1,3.457,6.1h11.365V33.241Z" transform="translate(-335.978)" fill="#001135"/>
    <path id="Path_46503" data-name="Path 46503" d="M139.6,250.322a14.439,14.439,0,1,0,14.439,14.439A14.455,14.455,0,0,0,139.6,250.322Zm0,12.784a5.586,5.586,0,0,1,1.655,10.922v2.522h-3.309v-2.522a5.6,5.6,0,0,1-3.931-5.336h3.309a2.277,2.277,0,1,0,2.277-2.277,5.586,5.586,0,0,1-1.655-10.922v-2.522h3.309v2.522a5.6,5.6,0,0,1,3.931,5.336h-3.309a2.277,2.277,0,1,0-2.277,2.277Z" transform="translate(-111.31 -222.708)" fill="#001135"/>
    <path id="Path_46504" data-name="Path 46504" d="M14.871,207.317V198.8H6.417v11.311H.049v3.309H11.414a17.831,17.831,0,0,1,3.457-6.1Z" transform="translate(0 -176.87)" fill="#001135"/>
    <path id="Path_46505" data-name="Path 46505" d="M279.5,66.267h-8.454V83.339A17.642,17.642,0,0,1,279.5,86.43Z" transform="translate(-241.105 -58.957)" fill="#001135"/>
    <path id="Path_46506" data-name="Path 46506" d="M172.867,132.533h-8.454v12.853a17.639,17.639,0,0,1,8.454-3.091Z" transform="translate(-146.233 -117.913)" fill="#001135"/>
  </g>
</svg>