<svg xmlns="http://www.w3.org/2000/svg" width="51.235" height="42.696" viewBox="0 0 51.235 42.696">
  <g id="suitcase" transform="translate(0 -2)">
    <path id="Path_46499" data-name="Path 46499" d="M22.944,11.607a2.136,2.136,0,0,1-2.135-2.135V6.27H12.27v3.2a2.135,2.135,0,0,1-4.27,0V6.27A4.274,4.274,0,0,1,12.27,2h8.539a4.274,4.274,0,0,1,4.27,4.27v3.2A2.136,2.136,0,0,1,22.944,11.607Z" transform="translate(9.078)" fill="#001135"/>
    <path id="Path_46500" data-name="Path 46500" d="M27.133,19.647a4.4,4.4,0,0,1-1.516.256,4.678,4.678,0,0,1-1.644-.3L0,11.62V27.909a5.867,5.867,0,0,0,5.871,5.871H45.365a5.867,5.867,0,0,0,5.871-5.871V11.62Z" transform="translate(0 10.917)" fill="#001135"/>
    <path id="Path_46501" data-name="Path 46501" d="M51.235,10.871v4.889L26.13,24.128a1.58,1.58,0,0,1-1.025,0L0,15.759V10.871A5.867,5.867,0,0,1,5.871,5H45.365A5.867,5.867,0,0,1,51.235,10.871Z" transform="translate(0 3.404)" fill="#001135"/>
  </g>
</svg>