<svg id="pie-chart" xmlns="http://www.w3.org/2000/svg" width="49" height="49" viewBox="0 0 49 49">
  <path id="Path_46495" data-name="Path 46495" d="M151,161.049A10.049,10.049,0,1,0,161.049,151,10.061,10.061,0,0,0,151,161.049Zm0,0" transform="translate(-136.549 -136.549)" fill="#001135"/>
  <path id="Path_46496" data-name="Path 46496" d="M361.012,277.583l8.165,8.166A24.445,24.445,0,0,0,375.462,271H363.737A12.773,12.773,0,0,1,361.012,277.583Zm0,0" transform="translate(-326.462 -245.064)" fill="#001135"/>
  <path id="Path_46497" data-name="Path 46497" d="M282.339,23.064h11.725A24.716,24.716,0,0,0,271,0V11.716A12.871,12.871,0,0,1,282.339,23.064Zm0,0" transform="translate(-245.064)" fill="#001135"/>
  <path id="Path_46498" data-name="Path 46498" d="M24.5,37.445A12.886,12.886,0,0,1,23.064,11.75V.027a24.52,24.52,0,0,0,1.436,49,24.359,24.359,0,0,0,16.185-6.285L32.52,34.574A12.791,12.791,0,0,1,24.5,37.445Zm0,0" transform="translate(0 -0.025)" fill="#001135"/>
</svg>