<svg xmlns="http://www.w3.org/2000/svg" width="40" height="40" viewBox="0 0 40 40">
  <g id="Group_5420" data-name="Group 5420" transform="translate(-0.145)">
    <circle id="Ellipse_241" data-name="Ellipse 241" cx="20" cy="20" r="20" transform="translate(0.145)" fill="#001135" opacity="0.2"/>
    <g id="instagram" transform="translate(12.83 12.686)">
      <g id="Group_5417" data-name="Group 5417">
        <path id="Path_20545" data-name="Path 20545" d="M10.972,0H3.657A3.668,3.668,0,0,0,0,3.657v7.315a3.668,3.668,0,0,0,3.657,3.657h7.315a3.668,3.668,0,0,0,3.657-3.657V3.657A3.668,3.668,0,0,0,10.972,0ZM7.315,10.362a3.048,3.048,0,1,1,3.048-3.048A3.048,3.048,0,0,1,7.315,10.362Zm3.962-6.1a.914.914,0,1,1,.914-.914A.914.914,0,0,1,11.277,4.267Z" fill="#001135"/>
      </g>
    </g>
  </g>
</svg>