<svg xmlns="http://www.w3.org/2000/svg" width="54" height="54" viewBox="0 0 54 54">
  <g id="international-relations" transform="translate(0 0)">
    <g id="Page-1_79_" transform="translate(0 0)">
      <g id="_x30_80---International-Studies" transform="translate(0 0)">
        <path id="Shape_291_" d="M27,1a27.033,27.033,0,0,0-12.644,3.15A7.944,7.944,0,0,0,8.582,1.017a8.044,8.044,0,0,0-6.051,2.2A7.982,7.982,0,0,0,0,9.072a19.027,19.027,0,0,0,2.16,8.363A26.589,26.589,0,0,0,0,28,26.982,26.982,0,0,0,41.508,50.756,33.384,33.384,0,0,0,43.964,54.1a2.526,2.526,0,0,0,3.877-.013c2.151-2.575,5.807-7.764,6.136-13.584a8.559,8.559,0,0,0-1.124-4.727A26.989,26.989,0,0,0,27,1ZM51.61,22.6H46.8a2.7,2.7,0,0,1-2.7-2.7V18.417a5.782,5.782,0,0,0-3.2-5.17,3.96,3.96,0,0,1-2.2-3.559V5.693A25.283,25.283,0,0,1,51.61,22.6ZM21.6,3.4v4.95A5.262,5.262,0,0,1,16.344,13.6a4.847,4.847,0,0,0-.838.079,17.1,17.1,0,0,0,.67-3.78,8.523,8.523,0,0,0-.864-4.222A25.115,25.115,0,0,1,21.6,3.4ZM3.766,4.521A6.257,6.257,0,0,1,8.1,2.8c.127,0,.254,0,.382.011a6.57,6.57,0,0,1,5.9,6.989c-.3,5.3-3.712,10.129-5.722,12.534A.72.72,0,0,1,8.1,22.6a.705.705,0,0,1-.55-.257C5.4,19.774,1.8,14.633,1.8,9.072A6.2,6.2,0,0,1,3.766,4.521ZM52.178,40.4c-.3,5.3-3.712,10.129-5.722,12.534a.72.72,0,0,1-.558.266.705.705,0,0,1-.55-.257c-2.15-2.57-5.75-7.711-5.75-13.272a6.285,6.285,0,0,1,6.3-6.27c.127,0,.254,0,.382.011A6.57,6.57,0,0,1,52.178,40.4Zm-5.8-8.785A8.087,8.087,0,0,0,37.8,39.671a19.909,19.909,0,0,0,2.79,9.54A25.184,25.184,0,0,1,1.8,28,24.861,24.861,0,0,1,3.29,19.48,33.068,33.068,0,0,0,6.165,23.5a2.526,2.526,0,0,0,3.877-.013,30.306,30.306,0,0,0,4.7-7.618,3.008,3.008,0,0,1,1.6-.469A7.064,7.064,0,0,0,23.4,8.346V3.072A24.982,24.982,0,0,1,36.9,4.831v4.86a5.75,5.75,0,0,0,3.2,5.171,3.976,3.976,0,0,1,2.2,3.555V19.9a4.505,4.505,0,0,0,4.5,4.5h5.139a25.141,25.141,0,0,1-.459,9.579,7.829,7.829,0,0,0-5.1-2.365Z" transform="translate(0 -1)" fill="#F47F01"/>
        <path id="Shape_290_" d="M49.378,45.9a4.5,4.5,0,1,0-4.5,4.5A4.5,4.5,0,0,0,49.378,45.9Zm-7.2,0a2.7,2.7,0,1,1,.791,1.909A2.7,2.7,0,0,1,42.178,45.9Z" transform="translate(-36.778 -37.796)" fill="#F47F01"/>
        <path id="Shape_289_" d="M468.828,384.6a4.5,4.5,0,1,0,4.5,4.5A4.5,4.5,0,0,0,468.828,384.6Zm0,7.2a2.7,2.7,0,1,1,2.7-2.7A2.7,2.7,0,0,1,468.828,391.8Z" transform="translate(-422.929 -350.395)" fill="#F47F01"/>
        <path id="Shape_288_" d="M178.605,223.091h-10.8a6.3,6.3,0,0,0,0,12.6h.9V246.9a3.19,3.19,0,0,0,5.94,1.62l7.837-13.325a4.492,4.492,0,0,0,.623-2.284v-5.32A4.505,4.505,0,0,0,178.605,223.091Zm2.7,9.82a2.7,2.7,0,0,1-.373,1.369L173.095,247.6a1.39,1.39,0,0,1-2.589-.7V235.691a1.8,1.8,0,0,0-1.8-1.8h-.9a4.5,4.5,0,0,1,0-9h10.8a2.7,2.7,0,0,1,2.7,2.7Z" transform="translate(-147.106 -203.29)" fill="#F47F01"/>
      </g>
    </g>
  </g>
</svg>
