<?xml version="1.0" encoding="utf-8"?>
<!-- Generator: Adobe Illustrator 24.2.1, SVG Export Plug-In . SVG Version: 6.00 Build 0)  -->
<svg version="1.1" id="Layer_1" xmlns="http://www.w3.org/2000/svg" xmlns:xlink="http://www.w3.org/1999/xlink" x="0px" y="0px"
	 viewBox="0 0 595.28 841.89" style="enable-background:new 0 0 595.28 841.89;" xml:space="preserve">
<style type="text/css">
	.st0{fill:#784D2F;}
	.st1{fill:#44280F;}
</style>
<path class="st0" d="M240.64,783.48c-2.51,0.46-5.05,0.8-7.62,0.99c-66.61,5.02-127.72-85.4-136.5-201.97
	c-8.78-116.56,58.5-224.11,99.34-227.83c0.84-0.08,1.69-0.12,2.53-0.15c-34.6,30.2-30.56,132.87,0.74,220.24
	C236.67,679.61,258.75,720.64,240.64,783.48z"/>
<g>
	<path class="st1" d="M243.42,654.63c-3.98-21.54-9.6-42.84-15.79-64c-1.6-5.28-3.12-10.58-4.77-15.86l-5.01-15.81
		c-0.84-2.61-1.65-5.31-2.47-8.02l-2.45-8.1c-1.73-5.38-3.03-10.88-4.46-16.35c-5.56-21.92-9.49-44.34-11.36-67.06
		c-0.22-2.84-0.48-5.68-0.67-8.52l-0.33-8.56l-0.16-4.28c-0.07-1.43-0.1-2.85-0.07-4.29l0.06-8.58l0.03-4.29l0.21-4.3l0.45-8.6
		c0.05-1.43,0.19-2.86,0.34-4.3l0.43-4.29c0.32-2.86,0.51-5.73,0.93-8.59c0.9-5.7,1.55-11.44,2.82-17.1
		c0.6-2.84,1.09-5.69,1.78-8.51l2.17-8.45c0.35-1.41,0.72-2.82,1.19-4.21l1.32-4.18c0.88-2.79,1.73-5.59,2.84-8.32l0.39-1.03
		l0.11-0.29l0.01-0.02l0.04-0.09c0.01-0.04,0.01-0.08,0.02-0.12l0.08-0.21c-0.03-0.04-0.16,0-0.22,0l-0.64,0.09l-0.22,0.03
		l-1.74,0.37l-3.67,0.76c-1.23,0.2-2.42,0.62-3.63,0.96l-3.61,1.04c-9.56,3.07-18.65,7.85-27.05,13.75
		c-8.42,5.9-16.16,12.93-23.18,20.72c-7.04,7.78-13.38,16.3-19.07,25.28c-5.68,9-10.67,18.49-15.1,28.25
		c-4.44,9.76-8.35,19.82-11.59,30.11C88.2,500.81,83.55,544.79,86,588.17c1.25,21.7,4.44,43.29,9.75,64.33
		c2.58,10.55,5.88,20.89,9.63,31.06c3.78,10.15,8.09,20.12,13.16,29.68c10.08,19.1,22.74,37.01,38.8,51.44
		c8.02,7.2,16.9,13.48,26.56,18.32c9.65,4.85,20.09,8.24,30.91,9.74c1.23,0.25,2.41,0.28,3.52,0.39c1.11,0.1,2.16,0.18,3.14,0.27
		c1.97,0.2,3.69,0.25,5.17,0.27c2.96,0.04,4.97-0.06,6.14-0.11c1.17-0.11,1.52-0.15,1.19-0.12c-0.33,0.03-1.35,0.15-2.92,0.2
		c-1.57,0.06-3.69,0.11-6.22,0.06c-2.53-0.06-5.46-0.37-8.65-0.56c-6.35-0.84-13.74-2.13-20.81-4.58c2.38,0.74,4.15,1.3,5.64,1.76
		c1.5,0.4,2.72,0.66,3.93,0.97c1.22,0.28,2.42,0.61,3.96,0.91c1.55,0.23,3.4,0.5,5.88,0.86c0,0-0.31-0.02-0.93-0.1
		c-0.64-0.08-1.57-0.2-2.79-0.35c-0.62-0.08-1.32-0.17-2.09-0.27c-0.78-0.09-1.61-0.32-2.53-0.49c-0.92-0.19-1.91-0.4-2.98-0.62
		c-1.07-0.23-2.23-0.42-3.42-0.81c-1.2-0.35-2.48-0.72-3.83-1.11c-0.68-0.2-1.37-0.4-2.08-0.6c-0.7-0.26-1.41-0.52-2.14-0.79
		c-1.46-0.54-3-1.12-4.61-1.71c-1.59-0.66-3.2-1.44-4.91-2.21c-6.77-3.2-14.4-7.58-22.32-13.71c7.89,6.14,16.47,11.41,25.67,15.4
		c1.12,0.56,2.01,0.87,2.64,1.13c0.63,0.26,1.02,0.42,1.25,0.51c0.43,0.19,0.13,0.11-0.47-0.08c-0.61-0.19-1.49-0.48-2.24-0.72
		c-0.74-0.27-1.32-0.5-1.34-0.46c-2.28-1.07-4.61-2.02-6.7-3.11c-2.08-1.12-4.01-2.16-5.67-3.05c-1.61-0.98-2.94-1.8-3.88-2.38
		c-0.47-0.28-0.84-0.5-1.1-0.65c-0.26-0.15-0.4-0.22-0.4-0.21c-0.06,0.1-0.19,0.29-0.25,0.38c2.16,1.29,4.77,3.09,7.88,4.63
		c1.54,0.79,3.11,1.71,4.79,2.48c1.69,0.75,3.42,1.52,5.15,2.29c0.85,0.41,1.74,0.74,2.63,1.04c0.89,0.32,1.77,0.64,2.64,0.95
		c0.87,0.31,1.73,0.62,2.58,0.93c0.85,0.31,1.72,0.5,2.55,0.74c1.67,0.46,3.26,0.9,4.74,1.31c1.49,0.36,2.89,0.58,4.13,0.84
		c-1.24-0.24-2.47-0.48-3.69-0.72c-1.19-0.33-2.37-0.65-3.51-0.97c-1.14-0.31-2.24-0.62-3.28-0.91c-1.04-0.29-1.99-0.69-2.89-0.99
		c-1.78-0.63-3.27-1.16-4.31-1.53c-1.04-0.37-1.6-0.66-1.62-0.63c-0.03,0.08-0.1,0.23-0.13,0.31c-9.43-3.71-20.5-10.16-30.32-18.18
		c-9.89-7.96-18.51-17.35-24.87-25.25l-0.43,0.33c6.26,8.02,15.02,17.37,25,25.27c9.93,7.96,21.06,14.34,30.51,18.07
		c-2.35-0.97-4.11-1.71-5.43-2.26c-1.32-0.56-2.16-1.02-2.74-1.27c-1.16-0.53-1.2-0.46-1.24-0.37c-3.47-1.63-6.71-3.66-10.01-5.62
		c-1.62-1.01-3.17-2.14-4.76-3.21l-2.37-1.63l-2.27-1.76l-4.52-3.55l-4.31-3.8c-0.71-0.64-1.45-1.26-2.14-1.92l-2.05-2.01
		c-1.36-1.35-2.74-2.68-4.08-4.04c-10.55-11.12-19.66-23.5-27.79-36.49c5.26,8.75,11.07,17.19,17.5,25.13
		c-3.43-3.8-7.75-9.37-12.38-16.09c-1.14-1.69-2.25-3.49-3.42-5.31c-1.17-1.83-2.36-3.71-3.46-5.69c-1.13-1.97-2.28-3.98-3.44-6.02
		c-1.08-2.08-2.17-4.2-3.27-6.33c-8.77-17.1-15.46-36.51-19.8-51.21c-14.33-48.6-18.03-106.2-7.74-161.98
		c5.16-27.85,13.8-55.23,26.28-80.28c6.24-12.51,13.44-24.44,21.64-35.42c8.22-10.97,17.51-20.95,27.75-29.51
		c3.01-2.64,6.3-4.98,9.56-7.38c1.64-1.19,3.4-2.22,5.1-3.34l2.58-1.65c0.88-0.52,1.79-1,2.68-1.5c7.08-4.12,14.8-7.36,22.79-9.82
		c2.02-0.56,4.01-1.24,6.07-1.68l6.19-1.29l0.78-0.16c0.31-0.05,0.82-0.08,1.22-0.12l2.57-0.24l5.15-0.48
		c1.72-0.13,3.45-0.38,5.16-0.42l5.11,0.01c3.43,0.02,6.79-0.01,10.31,0.06l2.62,0.04c0.35-0.08,0.13,0.21,0.09,0.39l-0.21,0.58
		l-0.42,1.16l-1.68,4.66c-1.12,3.12-2.25,6.24-3.37,9.36L231,339.9c-0.76,1.75-1.36,3.46-2.05,5.19l-1.1,2.85
		c-0.33,0.86-0.69,1.71-0.95,2.61l-1.7,5.31c-1.23,3.5-2.12,7.15-3.08,10.76l-0.72,2.71c-0.26,0.9-0.48,1.81-0.65,2.74l-1.16,5.52
		c-0.37,1.85-0.82,3.67-1.13,5.54l-0.9,5.6l-0.91,5.6c-0.25,1.88-0.44,3.77-0.66,5.66c-0.4,3.78-0.95,7.54-1.13,11.35
		c-0.24,3.8-0.59,7.6-0.74,11.41l-0.29,11.46c-0.06,3.82,0.1,7.65,0.13,11.48c0.05,1.91,0.02,3.83,0.13,5.74l0.34,5.74l0.34,5.74
		l0.17,2.87c0.07,0.96,0.18,1.91,0.28,2.86c0.38,3.82,0.76,7.63,1.14,11.45c1.92,15.22,4.27,30.39,7.77,45.28
		c1.53,7.49,3.6,14.85,5.51,22.22c0.94,3.66,2,7.43,3.02,11.16c1.02,3.74,2.04,7.47,3.06,11.2c2.02,7.46,3.83,14.96,5.72,22.39
		c0.9,3.73,1.73,7.48,2.58,11.2c0.82,3.74,1.75,7.43,2.47,11.17c-0.43,0.09-3.38-9.61-1.45,0.34c0.91,4.98,1.71,9.35,2.4,13.17
		c0.36,1.9,0.63,3.69,0.86,5.35c0.23,1.66,0.45,3.19,0.65,4.6c0.76,5.66,1.29,9.41,1.38,11.97c0.3,5.08-0.1,5.14-0.51,5.2
		c-0.1,0.02-0.42-1.85-0.83-4.5c-0.36-2.66-1.03-6.06-1.59-9.16c-1.13-6.2-2.05-11.17-1.36-6.16c-0.63-3.73-1.54-7.72-2.44-11.84
		c-0.93-4.11-1.77-8.36-2.82-12.49c-2.09-8.24-3.99-16.22-5.77-22.25c-3.42-12.12-4.96-16.92-1.25-2.26
		c1.2,4.92,4.17,17.12,7.15,29.34c1.32,6.15,2.75,12.28,3.72,17.53c0.93,5.26,1.65,9.61,1.96,12.1c0.62,5-0.17,2.59-0.96,0.18
		c-0.8-2.41-1.63-4.8-0.97,0.16c0.54,2.45,0.98,5.55,1.55,8.95c0.28,1.7,0.57,3.48,0.86,5.29c0.28,1.82,0.64,3.67,0.83,5.53
		c0.45,3.73,0.9,7.45,1.31,10.87c0.24,1.71,0.35,3.34,0.45,4.86c0.11,1.52,0.21,2.92,0.3,4.17c0.42,9.96-1.8-9.89-1.03,0.06"/>
</g>
<path class="st0" d="M249.92,328.59c2.51-0.46,5.05-0.8,7.62-0.99c66.61-5.02,127.72,85.4,136.5,201.97
	c8.78,116.56-58.5,224.11-99.34,227.83c-0.84,0.08-1.69,0.12-2.53,0.15c34.6-30.2,30.56-132.87-0.74-220.24
	C253.89,432.46,231.81,391.43,249.92,328.59z"/>
<g>
	<path class="st1" d="M247.14,457.44c3.98,21.54,9.6,42.84,15.79,64c1.6,5.28,3.12,10.58,4.77,15.86l5.01,15.81
		c0.84,2.61,1.65,5.31,2.47,8.02l2.45,8.1c1.73,5.38,3.03,10.88,4.46,16.35c5.56,21.92,9.49,44.34,11.36,67.06
		c0.22,2.84,0.48,5.68,0.67,8.52l0.33,8.56l0.16,4.28c0.07,1.43,0.1,2.85,0.07,4.29l-0.06,8.58l-0.03,4.29l-0.21,4.3l-0.45,8.6
		c-0.05,1.43-0.19,2.86-0.34,4.3l-0.43,4.29c-0.32,2.86-0.51,5.73-0.93,8.59c-0.9,5.7-1.55,11.44-2.82,17.1
		c-0.6,2.84-1.09,5.69-1.78,8.51l-2.17,8.45c-0.35,1.41-0.72,2.82-1.19,4.21l-1.32,4.18c-0.88,2.79-1.73,5.59-2.84,8.32l-0.39,1.03
		l-0.11,0.29l-0.01,0.02l-0.04,0.09c-0.01,0.04-0.01,0.08-0.02,0.12l-0.08,0.21c0.03,0.04,0.16,0,0.22,0l0.64-0.09l0.22-0.03
		l1.74-0.37l3.67-0.76c1.23-0.2,2.42-0.62,3.63-0.96l3.61-1.04c9.56-3.07,18.65-7.85,27.05-13.75c8.42-5.9,16.16-12.93,23.18-20.72
		c7.04-7.78,13.38-16.3,19.07-25.28c5.68-9,10.67-18.49,15.1-28.25c4.44-9.76,8.35-19.82,11.59-30.11
		c13.19-41.13,17.84-85.11,15.39-128.49c-1.25-21.7-4.44-43.29-9.75-64.33c-2.58-10.55-5.88-20.89-9.63-31.06
		c-3.78-10.15-8.09-20.12-13.16-29.68c-10.08-19.1-22.74-37.01-38.8-51.44c-8.02-7.2-16.9-13.48-26.56-18.32
		c-9.65-4.85-20.09-8.24-30.91-9.74c-1.23-0.25-2.41-0.28-3.52-0.39c-1.11-0.1-2.16-0.18-3.14-0.27c-1.97-0.2-3.69-0.25-5.17-0.27
		c-2.96-0.04-4.97,0.06-6.14,0.11c-1.17,0.11-1.52,0.15-1.19,0.12c0.33-0.03,1.35-0.15,2.92-0.2c1.57-0.06,3.69-0.11,6.22-0.06
		c2.53,0.06,5.46,0.37,8.65,0.56c6.35,0.84,13.74,2.13,20.81,4.58c-2.38-0.74-4.15-1.3-5.64-1.76c-1.5-0.4-2.72-0.66-3.93-0.97
		c-1.22-0.28-2.42-0.61-3.96-0.91c-1.55-0.23-3.4-0.5-5.88-0.86c0,0,0.31,0.02,0.93,0.1c0.64,0.08,1.57,0.2,2.79,0.35
		c0.62,0.08,1.32,0.17,2.09,0.27c0.78,0.09,1.61,0.32,2.53,0.49c0.92,0.19,1.91,0.4,2.98,0.62c1.07,0.23,2.23,0.42,3.42,0.81
		c1.2,0.35,2.48,0.72,3.83,1.11c0.68,0.19,1.37,0.4,2.08,0.6c0.7,0.26,1.41,0.52,2.14,0.79c1.46,0.54,3,1.12,4.61,1.71
		c1.59,0.66,3.2,1.44,4.91,2.21c6.77,3.2,14.4,7.58,22.32,13.71c-7.89-6.14-16.47-11.41-25.67-15.4c-1.12-0.56-2.01-0.87-2.64-1.13
		c-0.63-0.26-1.02-0.42-1.25-0.51c-0.43-0.19-0.13-0.11,0.47,0.08c0.61,0.19,1.49,0.48,2.24,0.72c0.74,0.27,1.32,0.5,1.34,0.46
		c2.28,1.07,4.61,2.02,6.7,3.11c2.08,1.12,4.01,2.16,5.67,3.05c1.61,0.98,2.94,1.8,3.88,2.38c0.47,0.28,0.84,0.5,1.1,0.65
		c0.26,0.15,0.4,0.22,0.4,0.21c0.06-0.1,0.19-0.29,0.25-0.38c-2.16-1.29-4.77-3.09-7.88-4.63c-1.54-0.79-3.11-1.71-4.79-2.48
		c-1.69-0.75-3.42-1.52-5.15-2.29c-0.85-0.41-1.74-0.74-2.63-1.04c-0.89-0.32-1.77-0.64-2.64-0.95c-0.87-0.31-1.73-0.62-2.58-0.93
		c-0.85-0.31-1.72-0.5-2.55-0.74c-1.67-0.46-3.26-0.9-4.74-1.31c-1.49-0.36-2.89-0.58-4.13-0.84c1.24,0.24,2.47,0.48,3.69,0.72
		c1.2,0.33,2.37,0.65,3.51,0.97c1.14,0.31,2.24,0.62,3.28,0.91c1.04,0.29,1.99,0.69,2.89,0.99c1.78,0.63,3.27,1.16,4.31,1.53
		c1.04,0.37,1.6,0.66,1.62,0.63c0.03-0.08,0.1-0.23,0.13-0.31c9.43,3.71,20.5,10.16,30.32,18.18c9.89,7.96,18.51,17.35,24.87,25.25
		l0.43-0.33c-6.26-8.02-15.02-17.37-25-25.27c-9.93-7.96-21.06-14.34-30.51-18.07c2.35,0.97,4.11,1.71,5.43,2.26
		c1.32,0.56,2.16,1.02,2.74,1.27c1.16,0.53,1.2,0.46,1.24,0.37c3.47,1.63,6.71,3.66,10.01,5.62c1.62,1.01,3.17,2.14,4.76,3.21
		l2.37,1.63l2.27,1.76l4.52,3.55l4.31,3.8c0.71,0.64,1.45,1.26,2.14,1.92l2.05,2.01c1.36,1.35,2.74,2.68,4.08,4.04
		c10.55,11.12,19.66,23.5,27.79,36.49c-5.26-8.75-11.07-17.19-17.5-25.13c3.43,3.8,7.75,9.37,12.38,16.09
		c1.14,1.69,2.25,3.49,3.42,5.31c1.17,1.83,2.36,3.71,3.46,5.69c1.13,1.97,2.28,3.98,3.44,6.02c1.08,2.08,2.17,4.2,3.27,6.33
		c8.77,17.1,15.46,36.51,19.8,51.21c14.33,48.6,18.03,106.2,7.74,161.98c-5.16,27.85-13.8,55.23-26.28,80.28
		c-6.24,12.51-13.44,24.44-21.64,35.42c-8.22,10.97-17.51,20.95-27.75,29.51c-3.01,2.64-6.3,4.98-9.56,7.38
		c-1.64,1.19-3.4,2.22-5.1,3.34l-2.58,1.65c-0.88,0.52-1.79,1-2.68,1.5c-7.08,4.12-14.8,7.36-22.79,9.82
		c-2.02,0.56-4.01,1.24-6.07,1.68l-6.19,1.29l-0.78,0.16c-0.31,0.05-0.82,0.08-1.22,0.12l-2.57,0.24l-5.15,0.48
		c-1.72,0.13-3.45,0.38-5.16,0.42l-5.11-0.01c-3.43-0.02-6.79,0.01-10.31-0.06l-2.62-0.04c-0.35,0.08-0.13-0.21-0.09-0.39l0.21-0.58
		l0.42-1.16l1.68-4.66c1.12-3.12,2.25-6.24,3.37-9.36l2.45-5.28c0.76-1.75,1.36-3.46,2.05-5.19l1.1-2.85
		c0.33-0.86,0.69-1.71,0.95-2.61l1.7-5.31c1.23-3.5,2.12-7.15,3.08-10.76l0.72-2.71c0.26-0.9,0.48-1.81,0.65-2.74l1.16-5.52
		c0.37-1.85,0.82-3.67,1.13-5.54l0.9-5.6l0.91-5.6c0.25-1.88,0.44-3.77,0.66-5.66c0.4-3.78,0.95-7.54,1.13-11.35
		c0.24-3.8,0.59-7.6,0.74-11.41l0.29-11.46c0.06-3.82-0.1-7.65-0.13-11.48c-0.05-1.91-0.02-3.83-0.13-5.74l-0.34-5.74l-0.34-5.74
		l-0.17-2.87c-0.07-0.96-0.18-1.91-0.28-2.86c-0.38-3.82-0.76-7.63-1.14-11.45c-1.92-15.22-4.27-30.39-7.77-45.28
		c-1.53-7.49-3.6-14.85-5.51-22.22c-0.94-3.66-2-7.43-3.02-11.16c-1.02-3.74-2.04-7.47-3.06-11.2c-2.02-7.46-3.83-14.96-5.72-22.39
		c-0.9-3.73-1.73-7.48-2.58-11.2c-0.82-3.74-1.75-7.43-2.47-11.17c0.43-0.09,3.38,9.61,1.45-0.34c-0.91-4.98-1.71-9.35-2.4-13.17
		c-0.36-1.9-0.63-3.69-0.86-5.35c-0.23-1.66-0.45-3.19-0.65-4.6c-0.76-5.66-1.29-9.41-1.38-11.97c-0.3-5.08,0.1-5.14,0.51-5.2
		c0.1-0.02,0.42,1.85,0.83,4.5c0.36,2.66,1.03,6.06,1.59,9.16c1.13,6.2,2.05,11.17,1.36,6.16c0.63,3.73,1.54,7.72,2.44,11.84
		c0.93,4.11,1.77,8.36,2.82,12.49c2.09,8.24,3.99,16.22,5.77,22.25c3.42,12.12,4.96,16.92,1.25,2.26
		c-1.2-4.92-4.17-17.12-7.15-29.34c-1.32-6.15-2.75-12.28-3.72-17.53c-0.93-5.26-1.65-9.61-1.96-12.1c-0.62-5,0.17-2.59,0.96-0.18
		c0.8,2.41,1.63,4.8,0.97-0.16c-0.54-2.45-0.98-5.55-1.55-8.95c-0.28-1.7-0.57-3.48-0.86-5.29c-0.28-1.82-0.64-3.67-0.83-5.53
		c-0.45-3.73-0.9-7.45-1.31-10.87c-0.24-1.71-0.35-3.34-0.45-4.86c-0.11-1.52-0.21-2.92-0.3-4.17c-0.42-9.96,1.8,9.89,1.03-0.06"/>
</g>
<path class="st0" d="M257.93,48.18c-6.61,19.19-7.91,37.36-3.43,52.49c2.04,7.63,5.59,14.55,9.88,21.2
	c2.19,3.29,4.61,6.52,7.21,9.67l2.04,2.32l2.3,2.75c1.74,2.11,3.5,4.19,5.12,6.46c3.41,4.34,6.16,9.32,8.86,14.29
	c2.56,5.11,4.61,10.51,6.26,16.08c2.99,11.23,3.8,23.23,1.71,34.38c-1.94,11.18-6.19,21.36-11.62,30.18
	c-5.39,8.99-12.02,16.17-18.21,24.22c-0.61-5.19-0.07-10.47,0.51-15.42l1.74-14.46c1.04-9.33,1.49-18.06,0.72-26.17
	c-1.5-16.18-7.53-29.9-17.18-43.37c-1.13-1.71-2.44-3.34-3.73-4.99l-2.23-2.9l-2.48-3.34c-3.2-4.55-6.24-9.31-8.63-14.52
	c-5.04-10.21-7.96-21.86-8.06-33.42C228.62,80.29,240.42,58.92,257.93,48.18z"/>
<path class="st1" d="M214.48,117.77c0.24,15.49,3.54,29,8.77,40.72c2.69,5.84,5.83,11.26,9.57,16.27c1.8,2.54,3.75,4.98,5.87,7.31
	l3.57,4.16c1.42,1.63,2.77,3.38,4.01,5.19c4.99,7.24,8.89,15.7,10.56,24.61c1.87,8.87,1.49,17.97-0.27,26.25
	c-1.73,8.33-5.07,15.85-8.97,22.61c-3.87,6.91-8.74,12.44-12.92,19.13c-1.47-3.87-1.56-8.06-1.75-11.98c-0.09-3.94,0-7.73,0.08-11.4
	c0.19-7.32,0.24-14.17-0.24-20.48c-0.96-12.7-4.23-22.94-10.38-32.96c-0.84-1.21-1.52-2.52-2.42-3.74l-1.35-1.96l-1.86-2.55
	c-2.39-3.47-4.56-7.12-6.47-10.91c-3.73-7.63-6.38-15.84-7.4-24.21C200.74,147.18,204.55,130.03,214.48,117.77z"/>
<path class="st0" d="M544.53,614.89c-5.89,14.87-16.78,28.41-31.03,38.41c-28.21,20.11-68.67,27.45-100.3,15.63l0.06-3.69
	c57.93-6.2,102.98-47.57,103.75-98.39c0.76-50.55-42.55-93.08-99.82-101.36c31.33-2.55,65.01,6.72,90.46,25.62
	c12.76,9.56,23.49,21.42,31.18,34.78c7.48,13.43,11.85,28.3,12.69,43.42C552.27,584.37,550.39,599.98,544.53,614.89z"/>
</svg>
