<svg xmlns="http://www.w3.org/2000/svg" width="40" height="40" viewBox="0 0 40 40">
  <g id="Group_5423" data-name="Group 5423" transform="translate(0.063)">
    <circle id="Ellipse_244" data-name="Ellipse 244" cx="20" cy="20" r="20" transform="translate(-0.063)" fill="#001135" opacity="0.2"/>
    <g id="_x31_0.Linkedin" transform="translate(12.656 11.719)">
      <path id="Path_20546" data-name="Path 20546" d="M47.71,45.256V39.923c0-2.621-.564-4.623-3.622-4.623a3.161,3.161,0,0,0-2.858,1.565h-.036V35.537H38.3v9.72h3.022V40.433c0-1.274.237-2.494,1.8-2.494,1.547,0,1.565,1.438,1.565,2.566v4.732H47.71Z" transform="translate(-33.149 -30.695)" fill="#001135"/>
      <path id="Path_20547" data-name="Path 20547" d="M11.3,36.6h3.022v9.72H11.3Z" transform="translate(-11.063 -31.758)" fill="#001135"/>
      <path id="Path_20548" data-name="Path 20548" d="M11.747,10a1.757,1.757,0,1,0,1.747,1.747A1.748,1.748,0,0,0,11.747,10Z" transform="translate(-10 -10)" fill="#001135"/>
    </g>
  </g>
</svg>