<svg xmlns="http://www.w3.org/2000/svg" width="31.924" height="31.924" viewBox="0 0 31.924 31.924">
  <defs>
    <style>
      .cls-1 {
        fill: #012060;
      }
    </style>
  </defs>
  <g id="link" transform="translate(-0.001)">
    <g id="Group_5617" data-name="Group 5617" transform="translate(0.001)">
      <g id="Group_5616" data-name="Group 5616" transform="translate(0)">
        <path id="Path_47969" data-name="Path 47969" class="cls-1" d="M15.963,0A15.962,15.962,0,1,0,31.925,15.962,15.962,15.962,0,0,0,15.963,0Zm8.02,13.121-3.9,3.9a2.242,2.242,0,0,1-3.17,0l-.153-.153-.416.416.153.153a2.244,2.244,0,0,1,0,3.17l-3.9,3.9a2.242,2.242,0,0,1-3.171,0L7.943,23.039a2.244,2.244,0,0,1,0-3.17l3.9-3.9a2.242,2.242,0,0,1,3.171,0l.152.152.416-.416-.152-.152a2.244,2.244,0,0,1,0-3.17l3.9-3.9a2.242,2.242,0,0,1,3.171,0l1.476,1.476A2.244,2.244,0,0,1,23.983,13.121Z" transform="translate(-0.001)"/>
        <path id="Path_47970" data-name="Path 47970" class="cls-1" d="M90.254,160.911l-.755.755-1.171-1.17.755-.755-.152-.152a.586.586,0,0,0-.828,0l-3.9,3.9a.586.586,0,0,0,0,.828l1.476,1.476a.6.6,0,0,0,.829,0l3.9-3.9a.587.587,0,0,0,0-.829Z" transform="translate(-75.086 -142.453)"/>
        <path id="Path_47971" data-name="Path 47971" class="cls-1" d="M159.313,89.2a.586.586,0,0,0-.829,0l-3.9,3.9a.587.587,0,0,0,0,.829l.153.152,1.158-1.158,1.171,1.171L155.9,95.257l.153.153a.6.6,0,0,0,.829,0l3.9-3.9a.587.587,0,0,0,0-.829Z" transform="translate(-137.978 -79.556)"/>
      </g>
    </g>
  </g>
</svg>
