<svg xmlns="http://www.w3.org/2000/svg" width="125.853" height="86.224" viewBox="0 0 125.853 86.224">
  <defs>
    <style>
      .cls-1 {
        fill: #f47f01;
      }
    </style>
  </defs>
  <g id="message" transform="translate(0 -80.609)">
    <g id="Group_5708" data-name="Group 5708" transform="translate(0 80.609)">
      <path id="Path_48017" data-name="Path 48017" class="cls-1" d="M114.791,80.609H11.061A11.074,11.074,0,0,0,0,91.67v64.1a11.074,11.074,0,0,0,11.061,11.061h103.73a11.074,11.074,0,0,0,11.061-11.061V91.67A11.074,11.074,0,0,0,114.791,80.609Zm-1.444,7.374-1.476,1.229-44.557,37.1a6.858,6.858,0,0,1-8.777,0l-44.557-37.1L12.5,87.983ZM7.374,93.307l36.3,30.23L7.374,147.7Zm107.417,66.152H11.061a3.693,3.693,0,0,1-3.613-2.952L49.59,128.46l4.229,3.521a14.232,14.232,0,0,0,18.215,0l4.229-3.521L118.4,156.507A3.693,3.693,0,0,1,114.791,159.459Zm3.687-11.761-36.3-24.161,36.3-30.23Z" transform="translate(0 -80.609)"/>
    </g>
  </g>
</svg>
