<svg xmlns="http://www.w3.org/2000/svg" width="108.79" height="127.138" viewBox="0 0 108.79 127.138">
  <defs>
    <style>
      .cls-1 {
        fill: #8dc640;
      }
    </style>
  </defs>
  <g id="online-support" transform="translate(-55.77)">
    <g id="Group_5705" data-name="Group 5705" transform="translate(55.77 0)">
      <g id="Group_5704" data-name="Group 5704">
        <path id="Path_48015" data-name="Path 48015" class="cls-1" d="M152.214,79.854l-4.1-1.453V74.757a5.94,5.94,0,0,0-6.181-5.65H123.513V63.231a21,21,0,0,0,5.362-5.41h.524c5.159,0,9.357-3.837,9.357-8.553V45.1a12.355,12.355,0,0,0,9-6,1.788,1.788,0,0,0-.876-2.509,2.134,2.134,0,0,0-2.745.8,8.236,8.236,0,0,1-5.382,3.909V26.5a8.235,8.235,0,0,1,5.382,3.908,2.133,2.133,0,0,0,2.745.8,1.788,1.788,0,0,0,.876-2.509,12.375,12.375,0,0,0-9.182-6.023,24.7,24.7,0,0,0-8.815-15.95A29.26,29.26,0,0,0,110.895,0h-1.97A29.259,29.259,0,0,0,90.059,6.731a24.694,24.694,0,0,0-8.815,15.947c-5.97.822-10.563,5.543-10.563,11.226,0,5.708,4.632,10.443,10.64,11.235a3.8,3.8,0,0,0,3.532,2.219h2.819a19.417,19.417,0,0,0,9.113,16.185v5.564H78.4a5.94,5.94,0,0,0-6.181,5.65V78.4l-4.065,1.44-.038.014c-.5.189-12.345,4.785-12.345,17.435v25.63a4.436,4.436,0,0,0,4.616,4.219h44.769a1.87,1.87,0,1,0,0-3.725H74.878A1.142,1.142,0,0,1,73.7,122.34v-3.963a1.142,1.142,0,0,1,1.174-1.073h70.574a1.142,1.142,0,0,1,1.174,1.073v3.963a1.142,1.142,0,0,1-1.174,1.073H114.664a1.87,1.87,0,1,0,0,3.725h45.3a4.414,4.414,0,0,0,4.593-4.2V97.29C164.56,84.639,152.719,80.044,152.214,79.854ZM81.064,41.3a7.808,7.808,0,0,1-6.308-7.4,7.808,7.808,0,0,1,6.308-7.4ZM69.628,118.377v3.963a4.638,4.638,0,0,0,.132,1.073H60.386a.52.52,0,0,1-.541-.494V97.29c0-10.018,9.254-13.77,9.806-13.985l2.566-.909v29.258a5.281,5.281,0,0,0,.55,2.33A4.833,4.833,0,0,0,69.628,118.377Zm65.052-69.109a4.912,4.912,0,0,1-3.755,4.62,18.428,18.428,0,0,0,1.222-6.53h2.533Zm0-5.634H132.15V24.175h2.531Zm-47.011,0H85.139V24.175H87.67Zm.287-23.183H85.787c2.507-9.594,12.079-16.725,23.138-16.725h1.97c11.058,0,20.631,7.131,23.139,16.725h-2.169a3.641,3.641,0,0,0-3.789,3.463v1.968c-.873-.851-1.962-1.913-3.323-3.249h0a4.145,4.145,0,0,0-4.968-.553,49.574,49.574,0,0,1-27.942,6.873h0l-.093-.005c0-5.465.008-5.137-.02-5.386A3.684,3.684,0,0,0,87.957,20.45Zm3.788,26.843V32.679a54.038,54.038,0,0,0,30.132-7.4l.624.612c3.264,3.2,5.069,4.916,5.573,5.511V47.293a15.077,15.077,0,0,1-1.629,6.8h-9.078a5.39,5.39,0,0,0-4.956-3.037h-2.57a4.919,4.919,0,1,0,0,9.8h2.57a5.39,5.39,0,0,0,4.956-3.037h6.488A18.587,18.587,0,0,1,110.2,63.633C98.736,63.634,91.745,55.409,91.745,47.294ZM113.7,55.958a1.235,1.235,0,0,1-1.285,1.175h-2.57a1.179,1.179,0,1,1,0-2.349h2.57A1.235,1.235,0,0,1,113.7,55.958Zm5.741,9.533v3.616H100.86V65.644a25.933,25.933,0,0,0,10.4,1.69A23.48,23.48,0,0,0,119.438,65.492Zm24.6,46.162a2.024,2.024,0,0,1-2.106,1.925H78.4a2.024,2.024,0,0,1-2.106-1.925v-36.9h0A2.024,2.024,0,0,1,78.4,72.832h63.532a2.024,2.024,0,0,1,2.106,1.925C144.037,76.57,144.037,110.538,144.037,111.653Zm15.93,11.76h-9.4a4.647,4.647,0,0,0,.132-1.073v-3.963a4.833,4.833,0,0,0-3.14-4.393,5.275,5.275,0,0,0,.55-2.329V82.4l2.564.908c.6.234,9.809,3.994,9.809,13.986v25.65h0A.5.5,0,0,1,159.967,123.413Z" transform="translate(-55.77 0)"/>
      </g>
    </g>
    <g id="Group_5707" data-name="Group 5707" transform="translate(95.807 76.986)">
      <g id="Group_5706" data-name="Group 5706">
        <path id="Path_48016" data-name="Path 48016" class="cls-1" d="M241.893,356.182a14.138,14.138,0,1,0,14.138,14.138A14.154,14.154,0,0,0,241.893,356.182Zm0,20.508a6.37,6.37,0,1,1,6.371-6.37A6.378,6.378,0,0,1,241.893,376.69Z" transform="translate(-227.755 -356.182)"/>
      </g>
    </g>
  </g>
</svg>
