<svg xmlns="http://www.w3.org/2000/svg" width="22.992" height="30.185" viewBox="0 0 22.992 30.185">
  <defs>
    <style>
      .cls-1 {
        fill: #012060;
      }
    </style>
  </defs>
  <g id="pdf" transform="translate(-61)">
    <path id="Path_47951" data-name="Path 47951" class="cls-1" d="M245.778,190.4l.553-.957a.638.638,0,1,0-1.105,0Z" transform="translate(-173.282 -177.369)"/>
    <path id="Path_47952" data-name="Path 47952" class="cls-1" d="M152.047,350.193a.638.638,0,1,0,1.105.638l.553-.957H152.6A.627.627,0,0,0,152.047,350.193Z" transform="translate(-85.596 -329.247)"/>
    <path id="Path_47953" data-name="Path 47953" class="cls-1" d="M233.527,283.245h2.65l-1.325-2.295Z" transform="translate(-162.356 -264.387)"/>
    <path id="Path_47954" data-name="Path 47954" class="cls-1" d="M77.212,7.664a.884.884,0,0,1-.884-.884V0H63.653A2.656,2.656,0,0,0,61,2.653V27.532a2.656,2.656,0,0,0,2.653,2.653H81.339a2.656,2.656,0,0,0,2.653-2.653V7.664Zm2.861,14.8a2.407,2.407,0,0,1-4.168,0l-1.063-1.841H70.15l-1.063,1.841A2.382,2.382,0,0,1,67,23.671h0a2.407,2.407,0,0,1,0-4.813h2.126l2.346-4.063-1.063-1.841a2.407,2.407,0,1,1,4.169,0l-1.063,1.841,2.346,4.063h2.126a2.407,2.407,0,0,1,2.084,3.61Z"/>
    <path id="Path_47955" data-name="Path 47955" class="cls-1" d="M331.539,349.874h-1.105l.553.957a.638.638,0,1,0,.553-.957Z" transform="translate(-253.55 -329.247)"/>
    <path id="Path_47956" data-name="Path 47956" class="cls-1" d="M351,8.783v5.378h5.377Z" transform="translate(-272.903 -8.265)"/>
  </g>
</svg>
