<svg id="Group_3679" data-name="Group 3679" xmlns="http://www.w3.org/2000/svg" width="23" height="23" viewBox="0 0 23 23">
  <path id="Path_25629" data-name="Path 25629" d="M19.63,3.367A11.5,11.5,0,1,0,23,11.5,11.5,11.5,0,0,0,19.63,3.367ZM17.416,16.019l0,0v0l-.583.579a3.067,3.067,0,0,1-2.894.828A10.19,10.19,0,0,1,10.978,16.1a13.673,13.673,0,0,1-2.334-1.882A13.778,13.778,0,0,1,6.9,12.1,10.732,10.732,0,0,1,5.589,9.446a3.067,3.067,0,0,1,.767-3.132l.682-.682a.487.487,0,0,1,.688,0l0,0L9.882,7.786a.487.487,0,0,1,0,.688l0,0L8.617,9.741a1.031,1.031,0,0,0-.107,1.342,14.794,14.794,0,0,0,1.514,1.767,14.7,14.7,0,0,0,1.993,1.675,1.039,1.039,0,0,0,1.326-.115l1.223-1.242a.487.487,0,0,1,.688,0l0,0,2.158,2.162A.487.487,0,0,1,17.416,16.019Z" transform="translate(0 0)" fill="#2b2b2b"/>
</svg>