<svg xmlns="http://www.w3.org/2000/svg" width="110.847" height="97.805" viewBox="0 0 110.847 97.805">
  <defs>
    <style>
      .cls-1 {
        fill: #fff;
      }
    </style>
  </defs>
  <g id="question" transform="translate(0 -30.12)">
    <path id="Path_48018" data-name="Path 48018" class="cls-1" d="M106.079,107.531A39.124,39.124,0,0,0,73,49.71,39.117,39.117,0,0,0,4.768,87.964L2.394,102.228a3.248,3.248,0,0,0,3.737,3.737l14.264-2.375a39.1,39.1,0,0,0,17.449,4.746,39.118,39.118,0,0,0,52.61,14.821l14.264,2.375a3.247,3.247,0,0,0,3.736-3.737ZM20.993,96.951a3.252,3.252,0,0,0-.533.044L9.546,98.811,11.363,87.9a3.247,3.247,0,0,0-.4-2.177A32.615,32.615,0,1,1,22.637,97.4a3.247,3.247,0,0,0-1.643-.446Zm78.49,10.514,1.817,10.913-10.913-1.817a3.244,3.244,0,0,0-2.177.4,32.611,32.611,0,0,1-42.938-9.092,38.778,38.778,0,0,0,7.76-2.074,3.23,3.23,0,0,0,1.754.517h33.9a3.247,3.247,0,0,0,0-6.495h-25.2a39.452,39.452,0,0,0,7.394-7.768h17.81a3.247,3.247,0,1,0,0-6.495H74.667a38.8,38.8,0,0,0,2.627-7.767H88.687a3.247,3.247,0,1,0,0-6.495h-10.5q.053-1.022.054-2.057A38.948,38.948,0,0,0,76.1,56.475a32.63,32.63,0,0,1,23.788,48.813,3.249,3.249,0,0,0-.4,2.177Z"/>
    <path id="Path_48019" data-name="Path 48019" class="cls-1" d="M134.448,122.389a4.922,4.922,0,1,1,4.922,4.922,3.248,3.248,0,0,0-3.247,3.247v9.569a3.247,3.247,0,0,0,6.495,0v-6.792a11.418,11.418,0,1,0-14.665-10.947,3.247,3.247,0,0,0,6.495,0Z" transform="translate(-100.252 -63.348)"/>
    <path id="Path_48020" data-name="Path 48020" class="cls-1" d="M168.928,280.649a3.247,3.247,0,1,0,3.247,3.247A3.284,3.284,0,0,0,168.928,280.649Z" transform="translate(-129.809 -196.29)"/>
  </g>
</svg>
