<svg id="share" xmlns="http://www.w3.org/2000/svg" width="19.59" height="21.37" viewBox="0 0 19.59 21.37">
  <defs>
    <style>
      .cls-1 {
        fill: #f47f01;
      }
    </style>
  </defs>
  <path id="Path_47999" data-name="Path 47999" class="cls-1" d="M320.456,18.894A2.894,2.894,0,1,1,317.562,16,2.894,2.894,0,0,1,320.456,18.894Zm0,0" transform="translate(-301.534 -15.332)"/>
  <path id="Path_48000" data-name="Path 48000" class="cls-1" d="M302.23,7.124a3.562,3.562,0,1,1,3.562-3.562A3.565,3.565,0,0,1,302.23,7.124Zm0-5.788a2.226,2.226,0,1,0,2.226,2.226A2.229,2.229,0,0,0,302.23,1.336Zm0,0" transform="translate(-286.202)"/>
  <path id="Path_48001" data-name="Path 48001" class="cls-1" d="M320.456,360.226a2.894,2.894,0,1,1-2.894-2.894A2.894,2.894,0,0,1,320.456,360.226Zm0,0" transform="translate(-301.534 -342.417)"/>
  <path id="Path_48002" data-name="Path 48002" class="cls-1" d="M302.23,348.456a3.562,3.562,0,1,1,3.562-3.562A3.565,3.565,0,0,1,302.23,348.456Zm0-5.788a2.226,2.226,0,1,0,2.226,2.226A2.229,2.229,0,0,0,302.23,342.668Zm0,0" transform="translate(-286.202 -327.085)"/>
  <path id="Path_48003" data-name="Path 48003" class="cls-1" d="M21.788,189.562a2.894,2.894,0,1,1-2.894-2.894A2.894,2.894,0,0,1,21.788,189.562Zm0,0" transform="translate(-15.332 -178.877)"/>
  <path id="Path_48004" data-name="Path 48004" class="cls-1" d="M3.562,177.791a3.562,3.562,0,1,1,3.562-3.562A3.565,3.565,0,0,1,3.562,177.791Zm0-5.788a2.226,2.226,0,1,0,2.226,2.226A2.229,2.229,0,0,0,3.562,172Zm0,0" transform="translate(0 -163.544)"/>
  <path id="Path_48005" data-name="Path 48005" class="cls-1" d="M115.24,96.707a.891.891,0,0,1-.442-1.664l8.262-4.71a.891.891,0,1,1,.882,1.548l-8.262,4.71A.885.885,0,0,1,115.24,96.707Zm0,0" transform="translate(-109.576 -86.449)"/>
  <path id="Path_48006" data-name="Path 48006" class="cls-1" d="M123.523,272.711a.885.885,0,0,1-.44-.117l-8.262-4.71a.891.891,0,0,1,.882-1.548l8.262,4.71a.891.891,0,0,1-.442,1.664Zm0,0" transform="translate(-109.597 -255.107)"/>
</svg>
