<svg id="statistics" xmlns="http://www.w3.org/2000/svg" width="54.788" height="54.788" viewBox="0 0 54.788 54.788">
  <defs>
    <style>
      .cls-1 {
        fill: #fff;
      }
    </style>
  </defs>
  <path id="Path_47995" data-name="Path 47995" class="cls-1" d="M35.815,25.682a4.8,4.8,0,0,0,3.339-1.351l4.724,2.362A4.815,4.815,0,1,0,53,25.212l6.421-6.421a4.815,4.815,0,0,0,6.67-5.785l5.579-4.184a4.809,4.809,0,1,0-1.928-2.567l-5.579,4.184a4.814,4.814,0,0,0-7.012,6.082l-6.421,6.421a4.805,4.805,0,0,0-5.414.88l-4.724-2.362a4.815,4.815,0,1,0-4.777,4.221ZM74.338,3.21a1.605,1.605,0,1,1-1.605,1.605A1.607,1.607,0,0,1,74.338,3.21ZM61.5,12.841a1.605,1.605,0,1,1-1.605,1.605A1.607,1.607,0,0,1,61.5,12.841ZM48.656,25.682a1.605,1.605,0,1,1-1.605,1.605A1.607,1.607,0,0,1,48.656,25.682Zm-12.841-6.42a1.605,1.605,0,1,1-1.605,1.605A1.607,1.607,0,0,1,35.815,19.261Zm0,0" transform="translate(-27.683)"/>
  <path id="Path_47996" data-name="Path 47996" class="cls-1" d="M53.183,185.527H51.471V151.605A1.6,1.6,0,0,0,49.866,150h-6.42a1.6,1.6,0,0,0-1.605,1.605v33.922H38.63V161.236a1.605,1.605,0,0,0-1.605-1.605H30.6A1.605,1.605,0,0,0,29,161.236v24.291h-3.21v-11.45a1.6,1.6,0,0,0-1.605-1.605h-6.42a1.6,1.6,0,0,0-1.605,1.605v11.45h-3.21v-17.87a1.605,1.605,0,0,0-1.605-1.605H4.922a1.605,1.605,0,0,0-1.605,1.605v17.87H1.605a1.605,1.605,0,1,0,0,3.21H53.183a1.605,1.605,0,1,0,0-3.21ZM45.05,153.21h3.21v32.316H45.05Zm-12.841,9.631h3.21v22.686h-3.21ZM19.368,175.682h3.21v9.845h-3.21Zm-12.841-6.42h3.21v16.265H6.527Zm0,0" transform="translate(0 -133.949)"/>
</svg>
