<svg xmlns="http://www.w3.org/2000/svg" width="67.996" height="61.197" viewBox="0 0 67.996 61.197">
  <defs>
    <style>
		.cls-1 {
		fill: #F47F01;
		}
	</style>
  </defs>
  <path id="suitcase" class="cls-1" d="M64.6,10.2H49.864V5.666A5.673,5.673,0,0,0,44.2,0H23.8a5.673,5.673,0,0,0-5.666,5.666V10.2H3.4A3.4,3.4,0,0,0,0,13.6V38.826a3.415,3.415,0,0,0,2.267,3.2V57.8a3.4,3.4,0,0,0,3.4,3.4H62.33a3.4,3.4,0,0,0,3.4-3.4V42.026A3.416,3.416,0,0,0,68,38.826V13.6A3.4,3.4,0,0,0,64.6,10.2ZM20.4,5.666a3.4,3.4,0,0,1,3.4-3.4H44.2a3.4,3.4,0,0,1,3.4,3.4V10.2H45.331V5.666A1.133,1.133,0,0,0,44.2,4.533H23.8a1.133,1.133,0,0,0-1.133,1.133V10.2H20.4ZM43.064,10.2H24.932V6.8H43.064Zm20.4,47.6A1.133,1.133,0,0,1,62.33,58.93H5.666A1.133,1.133,0,0,1,4.533,57.8V42.415l24.932,3.439v2.877a3.4,3.4,0,0,0,3.4,3.4h2.267a3.4,3.4,0,0,0,3.4-3.4V45.853l24.932-3.439Zm-27.2-9.066a1.133,1.133,0,0,1-1.133,1.133H32.865a1.133,1.133,0,0,1-1.133-1.133v-6.8A1.133,1.133,0,0,1,32.865,40.8h2.267a1.133,1.133,0,0,1,1.133,1.133ZM65.73,38.826a1.133,1.133,0,0,1-.974,1.123l-.314.043-25.91,3.573V41.931a3.4,3.4,0,0,0-3.4-3.4H32.865a3.4,3.4,0,0,0-3.4,3.4v1.634L3.242,39.949a1.133,1.133,0,0,1-.976-1.123V13.6A1.133,1.133,0,0,1,3.4,12.466H64.6A1.133,1.133,0,0,1,65.73,13.6Zm0,0"/>
</svg>
