<svg xmlns="http://www.w3.org/2000/svg" width="75.072" height="58.238" viewBox="0 0 75.072 58.238">
  <defs>
    <style>
		.cls-1 {
		fill: #F47F01;
		stroke: #f7f7f7;
		}
	</style>
  </defs>
  <g id="tap" transform="translate(0.5 -52.833)">
    <g id="Group_5619" data-name="Group 5619" transform="translate(8.705 58.536)">
      <g id="Group_5618" data-name="Group 5618">
        <path id="Path_47987" data-name="Path 47987" class="cls-1" d="M115.706,102.092,103.047,88.18a6.445,6.445,0,0,0-9.114.02,6.3,6.3,0,0,0-1.63,2.785,6.45,6.45,0,0,0-10.1,3.364,6.452,6.452,0,0,0-8.468.586,6.372,6.372,0,0,0-1.616,2.717l-5.966-5.966a6.445,6.445,0,0,0-9.114,9.114l22.922,22.922-13.6,2.135a7.542,7.542,0,0,0-6.444,7.431,5.056,5.056,0,0,0,5.05,5.05H96.714a18.4,18.4,0,0,0,13.094-5.424l5.3-5.3a18.5,18.5,0,0,0,.6-25.525Zm-2.983,23.144-5.3,5.3a15.052,15.052,0,0,1-10.714,4.438H64.967a1.684,1.684,0,0,1-1.684-1.683,4.166,4.166,0,0,1,3.579-4.1l16.885-2.653a1.682,1.682,0,0,0,.929-2.852L59.415,98.418a3.078,3.078,0,0,1,4.354-4.353L80.613,110.91a1.683,1.683,0,1,0,2.377-2.384l-6.879-6.879a3.078,3.078,0,0,1,4.353-4.353l6.882,6.882a1.683,1.683,0,1,0,2.377-2.384L86.212,98.28a3.078,3.078,0,0,1,4.353-4.353l3.528,3.528c.007,0,0,0,0,0l0,0,0,0,0,0h0a0,0,0,0,1,0,0,1.684,1.684,0,0,0,2.347-2.414l-.145-.145a3.079,3.079,0,0,1,4.3-4.411l12.606,13.855a15.132,15.132,0,0,1-.5,20.879Z" transform="translate(-55.153 -86.302)"/>
      </g>
    </g>
    <g id="Group_5621" data-name="Group 5621" transform="translate(0 53.333)">
      <g id="Group_5620" data-name="Group 5620" transform="translate(0 0)">
        <path id="Path_47988" data-name="Path 47988" class="cls-1" d="M28.942,62.266A15.136,15.136,0,1,0,8.932,82.279a1.685,1.685,0,0,0,1.387-3.071A11.769,11.769,0,1,1,25.875,63.653a1.683,1.683,0,1,0,3.067-1.387Z" transform="translate(0 -53.333)"/>
      </g>
    </g>
  </g>
</svg>
