<svg xmlns="http://www.w3.org/2000/svg" width="40" height="40" viewBox="0 0 40 40">
  <g id="Group_5419" data-name="Group 5419" transform="translate(0)">
    <circle id="Ellipse_240" data-name="Ellipse 240" cx="20" cy="20" r="20" transform="translate(0)" fill="#001135" opacity="0.2"/>
    <path id="twitter" d="M6.237,13.684a14.345,14.345,0,0,1-2.216-.176A10.4,10.4,0,0,1,.991,12.4L0,11.863l1.072-.353c1.172-.385,1.885-.625,2.768-1A3.683,3.683,0,0,1,1.948,8.318L1.7,7.56l.2.031a3.72,3.72,0,0,1-.466-.574,3.527,3.527,0,0,1-.6-2.1l.047-.661.4.153a3.7,3.7,0,0,1-.359-1A3.824,3.824,0,0,1,1.33.833L1.675.2l.461.554a8.486,8.486,0,0,0,5.5,3.1,3.288,3.288,0,0,1,.2-1.747A3.271,3.271,0,0,1,9.163.577,3.994,3.994,0,0,1,11.481.008a3.7,3.7,0,0,1,2.276.939A7.64,7.64,0,0,0,14.59.669c.183-.069.39-.147.649-.236L16.194.1l-.623,1.779.128-.008,1.02-.046-.6.824c-.035.047-.043.061-.056.079-.049.073-.109.164-.936,1.269a1.558,1.558,0,0,0-.291,1.015,9.6,9.6,0,0,1-.524,3.861,6.832,6.832,0,0,1-1.834,2.717,8.1,8.1,0,0,1-3.839,1.856A11.82,11.82,0,0,1,6.237,13.684Zm0,0" transform="translate(11.64 13.158)" fill="#001135"/>
  </g>
</svg>