<svg xmlns="http://www.w3.org/2000/svg" width="61.241" height="61.241" viewBox="0 0 61.241 61.241">
  <defs>
    <style>
      .cls-1 {
        fill: #f47f01;
      }
    </style>
  </defs>
  <path id="_382-counterclockwise" data-name="382-counterclockwise" class="cls-1" d="M61.241,30.62a30.621,30.621,0,0,1-30.62,30.62V56.456a25.836,25.836,0,1,0-14.842-4.689l6.589-6.589V61.241H6.305l6.048-6.048A30.57,30.57,0,0,1,0,30.62,30.62,30.62,0,0,1,52.272,8.969,30.419,30.419,0,0,1,61.241,30.62ZM31.859,35.242l7.536,7.535,3.383-3.383-7.535-7.536a4.787,4.787,0,0,0-2.23-5.382V10.765H28.228V26.477a4.785,4.785,0,0,0,3.631,8.765Zm0,0"/>
</svg>
