<svg xmlns="http://www.w3.org/2000/svg" width="40" height="40" viewBox="0 0 40 40">
  <g id="Group_5424" data-name="Group 5424" transform="translate(-0.081)">
    <circle id="Ellipse_245" data-name="Ellipse 245" cx="20" cy="20" r="20" transform="translate(0.081)" fill="#001135" opacity="0.2"/>
    <path id="whatsapp" d="M7.781,0A7.811,7.811,0,0,0,0,7.781a7.729,7.729,0,0,0,1.1,3.985L0,15.562l3.8-1.1a7.729,7.729,0,0,0,3.985,1.1A7.781,7.781,0,1,0,7.781,0Zm4.865,11.068-.362.362a3.088,3.088,0,0,1-2.447.325A8.893,8.893,0,0,1,3.82,5.963,3.2,3.2,0,0,1,4.1,3.278l.362-.362a.513.513,0,0,1,.724,0L6.633,4.364a.512.512,0,0,1,0,.724l-.362.362a1.026,1.026,0,0,0,0,1.448l2.391,2.36a1.023,1.023,0,0,0,1.448,0l.362-.362a.535.535,0,0,1,.724,0l1.448,1.448A.512.512,0,0,1,12.645,11.068Zm0,0" transform="translate(12.3 12.219)" fill="#001135"/>
  </g>
</svg>